mtllib Window_C.mtl
o Window_W_A
usemtl standardSurface1
v 536.4498753547668 56.36255645751953 252.53411269187927
v 528.6280980110168 49.129180908203125 252.53411269187927
v 632.6833958625793 44.43816375732422 252.53411269187927
v 536.4498753547668 56.36255645751953 252.53411269187927
v 632.6833958625793 44.43816375732422 252.53411269187927
v 622.8801732063293 54.770713806152344 252.53411269187927
v 626.1566624641418 198.11679077148438 227.45281386375427
v 526.7163548469543 206.44467163085938 227.45281386375427
v 526.7163548469543 206.44467163085938 252.53411269187927
v 626.1566624641418 198.11679077148438 227.45281386375427
v 526.7163548469543 206.44467163085938 252.53411269187927
v 626.1566624641418 198.11679077148438 252.53411269187927
v 528.6280980110168 49.129180908203125 252.53411269187927
v 528.6280980110168 49.129180908203125 227.45281386375427
v 632.6833958625793 44.43816375732422 227.45281386375427
v 528.6280980110168 49.129180908203125 252.53411269187927
v 632.6833958625793 44.43816375732422 227.45281386375427
v 632.6833958625793 44.43816375732422 252.53411269187927
v 632.6833958625793 44.43816375732422 252.53411269187927
v 632.6833958625793 44.43816375732422 227.45281386375427
v 629.7478489875793 80.61267852783203 227.45281386375427
v 632.6833958625793 44.43816375732422 252.53411269187927
v 629.7478489875793 80.61267852783203 227.45281386375427
v 629.7478489875793 80.61267852783203 252.53411269187927
v 528.6280980110168 49.129180908203125 227.45281386375427
v 528.6280980110168 49.129180908203125 252.53411269187927
v 528.3436741828918 74.25379180908203 252.53411269187927
v 528.6280980110168 49.129180908203125 227.45281386375427
v 528.3436741828918 74.25379180908203 252.53411269187927
v 528.3436741828918 74.25379180908203 227.45281386375427
v 526.7163548469543 199.4476318359375 227.45281386375427
v 527.7659153938293 164.23130798339844 227.45281386375427
v 527.7659153938293 164.23129272460938 252.53411269187927
v 526.7163548469543 199.4476318359375 227.45281386375427
v 527.7659153938293 164.23129272460938 252.53411269187927
v 526.7163548469543 199.4476318359375 252.53411269187927
v 626.1566624641418 191.1197509765625 252.53411269187927
v 627.7675023078918 156.06900024414062 252.53411269187927
v 627.7675023078918 156.06903076171875 227.45281386375427
v 626.1566624641418 191.1197509765625 252.53411269187927
v 627.7675023078918 156.06903076171875 227.45281386375427
v 626.1566624641418 191.1197509765625 227.45281386375427
v 526.7163548469543 199.4476318359375 252.53411269187927
v 527.7659153938293 164.23129272460938 252.53411269187927
v 535.5655980110168 167.32081604003906 252.53411269187927
v 526.7163548469543 199.4476318359375 252.53411269187927
v 535.5655980110168 167.32081604003906 252.53411269187927
v 534.8109593391418 189.09829711914062 252.53411269187927
v 622.8801732063293 54.770713806152344 252.53411269187927
v 632.6833958625793 44.43816375732422 252.53411269187927
v 629.7478489875793 80.61267852783203 252.53411269187927
v 622.8801732063293 54.770713806152344 252.53411269187927
v 629.7478489875793 80.61267852783203 252.53411269187927
v 620.8016819953918 77.1020736694336 252.53411269187927
v 617.3844456672668 180.33908081054688 252.53411269187927
v 618.5236058235168 159.401611328125 252.53411269187927
v 627.7675023078918 156.06900024414062 252.53411269187927
v 617.3844456672668 180.33908081054688 252.53411269187927
v 627.7675023078918 156.06900024414062 252.53411269187927
v 626.1566624641418 191.1197509765625 252.53411269187927
v 534.8827366828918 188.83847045898438 245.15020155906677
v 535.6061253547668 167.1742401123047 245.15020155906677
v 618.5846409797668 159.73159790039062 245.15020155906677
v 534.8827366828918 188.83847045898438 245.15020155906677
v 618.5846409797668 159.73159790039062 245.15020155906677
v 617.4930882453918 180.6002960205078 245.15020155906677
v 620.6879124641418 77.06472778320312 245.15020155906677
v 536.2338109016418 71.99314880371094 245.15020155906677
v 536.4302220344543 56.43524169921875 245.15020155906677
v 620.6879124641418 77.06472778320312 245.15020155906677
v 536.4302220344543 56.43524169921875 245.15020155906677
v 622.6799778938293 54.873291015625 245.15020155906677
v 627.7675023078918 156.06900024414062 252.53411269187927
v 618.5236058235168 159.401611328125 252.53411269187927
v 618.8823704719543 153.62060546875 252.53411269187927
v 618.5236058235168 159.401611328125 252.53411269187927
v 535.5655980110168 167.32081604003906 252.53411269187927
v 535.8043675422668 160.5673828125 252.53411269187927
v 618.5236058235168 159.401611328125 252.53411269187927
v 535.8043675422668 160.5673828125 252.53411269187927
v 618.8823704719543 153.62060546875 252.53411269187927
v 527.7659153938293 164.23129272460938 252.53411269187927
v 535.8043675422668 160.5673828125 252.53411269187927
v 535.5655980110168 167.32081604003906 252.53411269187927
v 528.3436741828918 74.25379180908203 227.45281386375427
v 528.3436741828918 74.25379180908203 252.53411269187927
v 527.7659153938293 164.23129272460938 252.53411269187927
v 528.3436741828918 74.25379180908203 227.45281386375427
v 527.7659153938293 164.23129272460938 252.53411269187927
v 527.7659153938293 164.23130798339844 227.45281386375427
v 627.7675023078918 156.06903076171875 227.45281386375427
v 527.7659153938293 164.23130798339844 227.45281386375427
v 526.7163548469543 199.4476318359375 227.45281386375427
v 627.7675023078918 156.06903076171875 227.45281386375427
v 526.7163548469543 199.4476318359375 227.45281386375427
v 626.1566624641418 191.1197509765625 227.45281386375427
v 629.7478489875793 80.61267852783203 252.53411269187927
v 629.7478489875793 80.61267852783203 227.45281386375427
v 627.7675023078918 156.06903076171875 227.45281386375427
v 629.7478489875793 80.61267852783203 252.53411269187927
v 627.7675023078918 156.06903076171875 227.45281386375427
v 627.7675023078918 156.06900024414062 252.53411269187927
v 627.7675023078918 156.06900024414062 252.53411269187927
v 618.8823704719543 153.62060546875 252.53411269187927
v 620.1239476203918 83.72187805175781 252.53411269187927
v 627.7675023078918 156.06900024414062 252.53411269187927
v 620.1239476203918 83.72187805175781 252.53411269187927
v 629.7478489875793 80.61267852783203 252.53411269187927
v 618.9242405891418 153.94509887695312 245.15020155906677
v 535.8324437141418 160.4661865234375 245.15020155906677
v 536.1703343391418 77.43326568603516 245.15020155906677
v 618.9242405891418 153.94509887695312 245.15020155906677
v 536.1703343391418 77.43326568603516 245.15020155906677
v 620.0458226203918 83.65144348144531 245.15020155906677
v 528.3436741828918 74.25379180908203 252.53411269187927
v 536.1780247688293 77.20701599121094 252.53411269187927
v 535.8043675422668 160.5673828125 252.53411269187927
v 528.3436741828918 74.25379180908203 252.53411269187927
v 535.8043675422668 160.5673828125 252.53411269187927
v 527.7659153938293 164.23129272460938 252.53411269187927
v 528.3436741828918 74.25379180908203 252.53411269187927
v 536.2451634407043 71.7940902709961 252.53411269187927
v 536.1780247688293 77.20701599121094 252.53411269187927
v 620.1239476203918 83.72187805175781 252.53411269187927
v 536.1780247688293 77.20701599121094 252.53411269187927
v 536.2451634407043 71.7940902709961 252.53411269187927
v 620.1239476203918 83.72187805175781 252.53411269187927
v 536.2451634407043 71.7940902709961 252.53411269187927
v 620.8016819953918 77.1020736694336 252.53411269187927
v 629.7478489875793 80.61267852783203 252.53411269187927
v 620.1239476203918 83.72187805175781 252.53411269187927
v 620.8016819953918 77.1020736694336 252.53411269187927
v 534.8109593391418 189.09829711914062 252.53411269187927
v 535.5655980110168 167.32081604003906 252.53411269187927
v 535.6061253547668 167.1742401123047 245.15020155906677
v 534.8109593391418 189.09829711914062 252.53411269187927
v 535.6061253547668 167.1742401123047 245.15020155906677
v 534.8827366828918 188.83847045898438 245.15020155906677
v 535.5655980110168 167.32081604003906 252.53411269187927
v 618.5236058235168 159.401611328125 252.53411269187927
v 618.5846409797668 159.73159790039062 245.15020155906677
v 535.5655980110168 167.32081604003906 252.53411269187927
v 618.5846409797668 159.73159790039062 245.15020155906677
v 535.6061253547668 167.1742401123047 245.15020155906677
v 618.5236058235168 159.401611328125 252.53411269187927
v 617.3844456672668 180.33908081054688 252.53411269187927
v 617.4930882453918 180.6002960205078 245.15020155906677
v 618.5236058235168 159.401611328125 252.53411269187927
v 617.4930882453918 180.6002960205078 245.15020155906677
v 618.5846409797668 159.73159790039062 245.15020155906677
v 617.3844456672668 180.33908081054688 252.53411269187927
v 534.8109593391418 189.09829711914062 252.53411269187927
v 534.8827366828918 188.83847045898438 245.15020155906677
v 617.3844456672668 180.33908081054688 252.53411269187927
v 534.8827366828918 188.83847045898438 245.15020155906677
v 617.4930882453918 180.6002960205078 245.15020155906677
v 620.8016819953918 77.1020736694336 252.53411269187927
v 536.2451634407043 71.7940902709961 252.53411269187927
v 536.2338109016418 71.99314880371094 245.15020155906677
v 620.8016819953918 77.1020736694336 252.53411269187927
v 536.2338109016418 71.99314880371094 245.15020155906677
v 620.6879124641418 77.06472778320312 245.15020155906677
v 536.2451634407043 71.7940902709961 252.53411269187927
v 536.4498753547668 56.36255645751953 252.53411269187927
v 536.4302220344543 56.43524169921875 245.15020155906677
v 536.2451634407043 71.7940902709961 252.53411269187927
v 536.4302220344543 56.43524169921875 245.15020155906677
v 536.2338109016418 71.99314880371094 245.15020155906677
v 536.4498753547668 56.36255645751953 252.53411269187927
v 622.8801732063293 54.770713806152344 252.53411269187927
v 622.6799778938293 54.873291015625 245.15020155906677
v 536.4498753547668 56.36255645751953 252.53411269187927
v 622.6799778938293 54.873291015625 245.15020155906677
v 536.4302220344543 56.43524169921875 245.15020155906677
v 622.8801732063293 54.770713806152344 252.53411269187927
v 620.8016819953918 77.1020736694336 252.53411269187927
v 620.6879124641418 77.06472778320312 245.15020155906677
v 622.8801732063293 54.770713806152344 252.53411269187927
v 620.6879124641418 77.06472778320312 245.15020155906677
v 622.6799778938293 54.873291015625 245.15020155906677
v 618.8823704719543 153.62060546875 252.53411269187927
v 535.8043675422668 160.5673828125 252.53411269187927
v 535.8324437141418 160.4661865234375 245.15020155906677
v 618.8823704719543 153.62060546875 252.53411269187927
v 535.8324437141418 160.4661865234375 245.15020155906677
v 618.9242405891418 153.94509887695312 245.15020155906677
v 535.8043675422668 160.5673828125 252.53411269187927
v 536.1780247688293 77.20701599121094 252.53411269187927
v 536.1703343391418 77.43326568603516 245.15020155906677
v 535.8043675422668 160.5673828125 252.53411269187927
v 536.1703343391418 77.43326568603516 245.15020155906677
v 535.8324437141418 160.4661865234375 245.15020155906677
v 536.1780247688293 77.20701599121094 252.53411269187927
v 620.1239476203918 83.72187805175781 252.53411269187927
v 620.0458226203918 83.65144348144531 245.15020155906677
v 536.1780247688293 77.20701599121094 252.53411269187927
v 620.0458226203918 83.65144348144531 245.15020155906677
v 536.1703343391418 77.43326568603516 245.15020155906677
v 620.1239476203918 83.72187805175781 252.53411269187927
v 618.8823704719543 153.62060546875 252.53411269187927
v 618.9242405891418 153.94509887695312 245.15020155906677
v 620.1239476203918 83.72187805175781 252.53411269187927
v 618.9242405891418 153.94509887695312 245.15020155906677
v 620.0458226203918 83.65144348144531 245.15020155906677
v 526.7163548469543 199.4476318359375 252.53411269187927
v 534.8109593391418 189.09829711914062 252.53411269187927
v 617.3844456672668 180.33908081054688 252.53411269187927
v 526.7163548469543 199.4476318359375 252.53411269187927
v 617.3844456672668 180.33908081054688 252.53411269187927
v 626.1566624641418 191.1197509765625 252.53411269187927
v 528.6280980110168 49.129180908203125 252.53411269187927
v 536.4498753547668 56.36255645751953 252.53411269187927
v 536.2451634407043 71.7940902709961 252.53411269187927
v 528.6280980110168 49.129180908203125 252.53411269187927
v 536.2451634407043 71.7940902709961 252.53411269187927
v 528.3436741828918 74.25379180908203 252.53411269187927
v 528.3436741828918 74.25379180908203 227.45281386375427
v 629.7478489875793 80.61267852783203 227.45281386375427
v 632.6833958625793 44.43816375732422 227.45281386375427
v 528.3436741828918 74.25379180908203 227.45281386375427
v 632.6833958625793 44.43816375732422 227.45281386375427
v 528.6280980110168 49.129180908203125 227.45281386375427
v 528.3436741828918 74.25379180908203 227.45281386375427
v 527.7659153938293 164.23130798339844 227.45281386375427
v 627.7675023078918 156.06903076171875 227.45281386375427
v 528.3436741828918 74.25379180908203 227.45281386375427
v 627.7675023078918 156.06903076171875 227.45281386375427
v 629.7478489875793 80.61267852783203 227.45281386375427
v 626.1566624641418 191.1197509765625 227.45281386375427
v 526.7163548469543 199.4476318359375 227.45281386375427
v 526.7163548469543 206.44467163085938 227.45281386375427
v 626.1566624641418 191.1197509765625 227.45281386375427
v 526.7163548469543 206.44467163085938 227.45281386375427
v 626.1566624641418 198.11679077148438 227.45281386375427
v 521.7992405891418 199.4476318359375 227.7227418422699
v 521.7992405891418 199.4476318359375 258.250360250473
v 521.7992405891418 206.44467163085938 258.250360250473
v 521.7992405891418 199.4476318359375 227.7227418422699
v 521.7992405891418 206.44467163085938 258.250360250473
v 521.7992405891418 206.44467163085938 227.7227418422699
v 521.7992405891418 199.4476318359375 258.250360250473
v 630.8137669563293 191.1197509765625 258.250360250473
v 630.8137669563293 198.11679077148438 258.250360250473
v 521.7992405891418 199.4476318359375 258.250360250473
v 630.8137669563293 198.11679077148438 258.250360250473
v 521.7992405891418 206.44467163085938 258.250360250473
v 630.8137669563293 191.1197509765625 258.250360250473
v 630.8137669563293 191.1197509765625 227.7227418422699
v 630.8137669563293 198.11679077148438 227.7227418422699
v 630.8137669563293 191.1197509765625 258.250360250473
v 630.8137669563293 198.11679077148438 227.7227418422699
v 630.8137669563293 198.11679077148438 258.250360250473
v 526.7163548469543 199.4476318359375 227.45281386375427
v 526.7163548469543 199.4476318359375 252.53411269187927
v 521.7992405891418 199.4476318359375 258.250360250473
v 526.7163548469543 199.4476318359375 227.45281386375427
v 521.7992405891418 199.4476318359375 258.250360250473
v 521.7992405891418 199.4476318359375 227.7227418422699
v 526.7163548469543 206.44467163085938 252.53411269187927
v 526.7163548469543 206.44467163085938 227.45281386375427
v 521.7992405891418 206.44467163085938 227.7227418422699
v 526.7163548469543 206.44467163085938 252.53411269187927
v 521.7992405891418 206.44467163085938 227.7227418422699
v 521.7992405891418 206.44467163085938 258.250360250473
v 526.7163548469543 206.44467163085938 227.45281386375427
v 526.7163548469543 199.4476318359375 227.45281386375427
v 521.7992405891418 199.4476318359375 227.7227418422699
v 526.7163548469543 206.44467163085938 227.45281386375427
v 521.7992405891418 199.4476318359375 227.7227418422699
v 521.7992405891418 206.44467163085938 227.7227418422699
v 526.7163548469543 199.4476318359375 252.53411269187927
v 626.1566624641418 191.1197509765625 252.53411269187927
v 630.8137669563293 191.1197509765625 258.250360250473
v 526.7163548469543 199.4476318359375 252.53411269187927
v 630.8137669563293 191.1197509765625 258.250360250473
v 521.7992405891418 199.4476318359375 258.250360250473
v 626.1566624641418 198.11679077148438 252.53411269187927
v 526.7163548469543 206.44467163085938 252.53411269187927
v 521.7992405891418 206.44467163085938 258.250360250473
v 626.1566624641418 198.11679077148438 252.53411269187927
v 521.7992405891418 206.44467163085938 258.250360250473
v 630.8137669563293 198.11679077148438 258.250360250473
v 626.1566624641418 191.1197509765625 252.53411269187927
v 626.1566624641418 191.1197509765625 227.45281386375427
v 630.8137669563293 191.1197509765625 227.7227418422699
v 626.1566624641418 191.1197509765625 252.53411269187927
v 630.8137669563293 191.1197509765625 227.7227418422699
v 630.8137669563293 191.1197509765625 258.250360250473
v 626.1566624641418 191.1197509765625 227.45281386375427
v 626.1566624641418 198.11679077148438 227.45281386375427
v 630.8137669563293 198.11679077148438 227.7227418422699
v 626.1566624641418 191.1197509765625 227.45281386375427
v 630.8137669563293 198.11679077148438 227.7227418422699
v 630.8137669563293 191.1197509765625 227.7227418422699
v 626.1566624641418 198.11679077148438 227.45281386375427
v 626.1566624641418 198.11679077148438 252.53411269187927
v 630.8137669563293 198.11679077148438 258.250360250473
v 626.1566624641418 198.11679077148438 227.45281386375427
v 630.8137669563293 198.11679077148438 258.250360250473
v 630.8137669563293 198.11679077148438 227.7227418422699
vt 0.5315538644790649 0.05267333984375
vt 0.5595210790634155 0.025131940841674805
vt 0.1757938712835312 0.01988905668258667
vt 0.5315538644790649 0.05267333984375
vt 0.1757938712835312 0.01988905668258667
vt 0.21308904886245728 0.05680513381958008
vt 0.08284240961074829 0.3658965229988098
vt 0.0903693437576294 0.8150618076324463
vt 0.20321470499038696 0.814313530921936
vt 0.08284240961074829 0.3658965229988098
vt 0.20321470499038696 0.814313530921936
vt 0.19617509841918945 0.3641011118888855
vt 0.311051607131958 0.7875205278396606
vt 0.3273518681526184 0.7856482267379761
vt 0.3144269585609436 0.6716934144496918
vt 0.311051607131958 0.7875205278396606
vt 0.3144269585609436 0.6716934144496918
vt 0.29812049865722656 0.6735593974590302
vt 0.12918365001678467 0.008180737495422363
vt 0.097298264503479 0.007244110107421875
vt 0.0944216251373291 0.08531320095062256
vt 0.12918365001678467 0.008180737495422363
vt 0.0944216251373291 0.08531320095062256
vt 0.12644606828689575 0.08584165573120117
vt 0.06706857681274414 0.009994268417358398
vt 0.03603827953338623 0.010688424110412598
vt 0.03729301691055298 0.06300389766693115
vt 0.06706857681274414 0.009994268417358398
vt 0.03729301691055298 0.06300389766693115
vt 0.06832277774810791 0.06228220462799072
vt 0.07344341278076172 0.3236597180366516
vt 0.07278543710708618 0.2500632405281067
vt 0.04170948266983032 0.2506253719329834
vt 0.07344341278076172 0.3236597180366516
vt 0.04170948266983032 0.2506253719329834
vt 0.04245173931121826 0.3240281939506531
vt 0.1257946491241455 0.32293468713760376
vt 0.1264401078224182 0.24760830402374268
vt 0.09453284740447998 0.24740898609161377
vt 0.1257946491241455 0.32293468713760376
vt 0.09453284740447998 0.24740898609161377
vt 0.09383577108383179 0.32265692949295044
vt 0.3073600232601166 0.2775716781616211
vt 0.4516921937465668 0.2759605050086975
vt 0.4396324157714844 0.24377578496932983
vt 0.3073600232601166 0.2775716781616211
vt 0.4396324157714844 0.24377578496932983
vt 0.35037049651145935 0.24520480632781982
vt 0.8786439895629883 0.14550042152404785
vt 0.9268794059753418 0.10184228420257568
vt 0.7613730430603027 0.11136704683303833
vt 0.8786439895629883 0.14550042152404785
vt 0.7613730430603027 0.11136704683303833
vt 0.776444673538208 0.15259629487991333
vt 0.3046441972255707 0.157126784324646
vt 0.4003777503967285 0.15417098999023438
vt 0.41658785939216614 0.11231571435928345
vt 0.3046441972255707 0.157126784324646
vt 0.41658785939216614 0.11231571435928345
vt 0.2563549280166626 0.11591178178787231
vt 0.48678451776504517 0.2989107370376587
vt 0.4956315755844116 0.40223002433776855
vt 0.9289975166320801 0.40991950035095215
vt 0.48678451776504517 0.2989107370376587
vt 0.9289975166320801 0.40991950035095215
vt 0.9145916104316711 0.31050509214401245
vt 0.9585617184638977 0.8452526330947876
vt 0.5275585651397705 0.8855235874652863
vt 0.5273317694664001 0.9578770101070404
vt 0.9585617184638977 0.8452526330947876
vt 0.5273317694664001 0.9578770101070404
vt 0.9716929793357849 0.952818900346756
vt 0.41658785939216614 0.11231571435928345
vt 0.4003777503967285 0.15417098999023438
vt 0.4268151819705963 0.1531527042388916
vt 0.43816399574279785 0.6409926414489746
vt 0.43843817710876465 0.3823673725128174
vt 0.41764187812805176 0.3850747346878052
vt 0.43816399574279785 0.6409926414489746
vt 0.41764187812805176 0.3850747346878052
vt 0.4204068183898926 0.643787145614624
vt 0.4516921937465668 0.2759605050086975
vt 0.4673137068748474 0.2433132529258728
vt 0.4396324157714844 0.24377578496932983
vt 0.06832277774810791 0.06228220462799072
vt 0.03729301691055298 0.06300389766693115
vt 0.04170948266983032 0.2506253719329834
vt 0.06832277774810791 0.06228220462799072
vt 0.04170948266983032 0.2506253719329834
vt 0.07278543710708618 0.2500632405281067
vt 0.43772393465042114 0.6690707504749298
vt 0.45405882596969604 0.7784701287746429
vt 0.49292171001434326 0.776847779750824
vt 0.43772393465042114 0.6690707504749298
vt 0.49292171001434326 0.776847779750824
vt 0.4763522148132324 0.6681621670722961
vt 0.12644606828689575 0.08584165573120117
vt 0.0944216251373291 0.08531320095062256
vt 0.09453284740447998 0.24740898609161377
vt 0.12644606828689575 0.08584165573120117
vt 0.09453284740447998 0.24740898609161377
vt 0.1264401078224182 0.24760830402374268
vt 0.41658785939216614 0.11231571435928345
vt 0.4268151819705963 0.1531527042388916
vt 0.7461423277854919 0.15498137474060059
vt 0.41658785939216614 0.11231571435928345
vt 0.7461423277854919 0.15498137474060059
vt 0.7613730430603027 0.11136704683303833
vt 0.9323867559432983 0.43892908096313477
vt 0.498706579208374 0.42780637741088867
vt 0.5175083875656128 0.8588910102844238
vt 0.9323867559432983 0.43892908096313477
vt 0.5175083875656128 0.8588910102844238
vt 0.9538854956626892 0.8132195770740509
vt 0.8202986121177673 0.2804620862007141
vt 0.8087997436523438 0.24814587831497192
vt 0.4673137068748474 0.2433132529258728
vt 0.8202986121177673 0.2804620862007141
vt 0.4673137068748474 0.2433132529258728
vt 0.4516921937465668 0.2759605050086975
vt 0.8202986121177673 0.2804620862007141
vt 0.8309770226478577 0.24828416109085083
vt 0.8087997436523438 0.24814587831497192
vt 0.3269265592098236 0.3867504596710205
vt 0.3353947103023529 0.6556295156478882
vt 0.35268062353134155 0.6562100052833557
vt 0.3269265592098236 0.3867504596710205
vt 0.35268062353134155 0.6562100052833557
vt 0.3481540381908417 0.38555943965911865
vt 0.7613730430603027 0.11136704683303833
vt 0.7461423277854919 0.15498137474060059
vt 0.776444673538208 0.15259629487991333
vt 0.35037049651145935 0.24520480632781982
vt 0.4396324157714844 0.24377578496932983
vt 0.4397539794445038 0.21351897716522217
vt 0.35037049651145935 0.24520480632781982
vt 0.4397539794445038 0.21351897716522217
vt 0.35096022486686707 0.21493923664093018
vt 0.43843817710876465 0.3823673725128174
vt 0.43816399574279785 0.6409926414489746
vt 0.46110254526138306 0.6411123871803284
vt 0.43843817710876465 0.3823673725128174
vt 0.46110254526138306 0.6411123871803284
vt 0.4613577723503113 0.38256001472473145
vt 0.4003777503967285 0.15417098999023438
vt 0.3046441972255707 0.157126784324646
vt 0.3045210540294647 0.19087952375411987
vt 0.4003777503967285 0.15417098999023438
vt 0.3045210540294647 0.19087952375411987
vt 0.3999294638633728 0.18793082237243652
vt 0.6025803089141846 0.03832286596298218
vt 0.9240267872810364 0.042391955852508545
vt 0.9240062236785889 0.0137864351272583
vt 0.6025803089141846 0.03832286596298218
vt 0.9240062236785889 0.0137864351272583
vt 0.6026245355606079 0.009715557098388672
vt 0.3481540381908417 0.38555943965911865
vt 0.35268062353134155 0.6562100052833557
vt 0.3762773275375366 0.655812680721283
vt 0.3481540381908417 0.38555943965911865
vt 0.3762773275375366 0.655812680721283
vt 0.3717484176158905 0.38553494215011597
vt 0.8309770226478577 0.24828416109085083
vt 0.894202709197998 0.24862366914749146
vt 0.894066333770752 0.21837127208709717
vt 0.8309770226478577 0.24828416109085083
vt 0.894066333770752 0.21837127208709717
vt 0.830323338508606 0.2180292010307312
vt 0.5315538644790649 0.05267333984375
vt 0.21308904886245728 0.05680513381958008
vt 0.21418648958206177 0.08400052785873413
vt 0.5315538644790649 0.05267333984375
vt 0.21418648958206177 0.08400052785873413
vt 0.5319841504096985 0.07987582683563232
vt 0.8786439895629883 0.14550042152404785
vt 0.776444673538208 0.15259629487991333
vt 0.7789018750190735 0.18623942136764526
vt 0.8786439895629883 0.14550042152404785
vt 0.7789018750190735 0.18623942136764526
vt 0.880431056022644 0.1791967749595642
vt 0.4204068183898926 0.643787145614624
vt 0.41764187812805176 0.3850747346878052
vt 0.3947267532348633 0.38543248176574707
vt 0.4204068183898926 0.643787145614624
vt 0.3947267532348633 0.38543248176574707
vt 0.39747095108032227 0.6440810859203339
vt 0.4673137068748474 0.2433132529258728
vt 0.8087997436523438 0.24814587831497192
vt 0.8083009123802185 0.21788489818572998
vt 0.4673137068748474 0.2433132529258728
vt 0.8083009123802185 0.21788489818572998
vt 0.4681568443775177 0.2130710482597351
vt 0.3353947103023529 0.6556295156478882
vt 0.3269265592098236 0.3867504596710205
vt 0.3033542335033417 0.38775932788848877
vt 0.3353947103023529 0.6556295156478882
vt 0.3033542335033417 0.38775932788848877
vt 0.31180304288864136 0.6563428640365601
vt 0.7461423277854919 0.15498137474060059
vt 0.4268151819705963 0.1531527042388916
vt 0.4251430332660675 0.18687224388122559
vt 0.7461423277854919 0.15498137474060059
vt 0.4251430332660675 0.18687224388122559
vt 0.7462646961212158 0.18871259689331055
vt 0.9589507579803467 0.07937443256378174
vt 0.9240267872810364 0.042391955852508545
vt 0.6025803089141846 0.03832286596298218
vt 0.9589507579803467 0.07937443256378174
vt 0.6025803089141846 0.03832286596298218
vt 0.5726429224014282 0.08303403854370117
vt 0.9232349395751953 0.2812148928642273
vt 0.894202709197998 0.24862366914749146
vt 0.8309770226478577 0.24828416109085083
vt 0.9232349395751953 0.2812148928642273
vt 0.8309770226478577 0.24828416109085083
vt 0.8202986121177673 0.2804620862007141
vt 0.3549489378929138 0.7840799987316132
vt 0.3545396327972412 0.6718558669090271
vt 0.3144269585609436 0.6716934144496918
vt 0.3549489378929138 0.7840799987316132
vt 0.3144269585609436 0.6716934144496918
vt 0.3273518681526184 0.7856482267379761
vt 0.3549489378929138 0.7840799987316132
vt 0.45405882596969604 0.7784701287746429
vt 0.43772393465042114 0.6690707504749298
vt 0.3549489378929138 0.7840799987316132
vt 0.43772393465042114 0.6690707504749298
vt 0.3545396327972412 0.6718558669090271
vt 0.05134320259094238 0.3640168309211731
vt 0.058938443660736084 0.8138461112976074
vt 0.0903693437576294 0.8150618076324463
vt 0.05134320259094238 0.3640168309211731
vt 0.0903693437576294 0.8150618076324463
vt 0.08284240961074829 0.3658965229988098
vt 0.2735152244567871 0.9704033136367798
vt 0.26078274846076965 0.8333221673965454
vt 0.22935891151428223 0.8362481594085693
vt 0.2735152244567871 0.9704033136367798
vt 0.22935891151428223 0.8362481594085693
vt 0.24209630489349365 0.9733223915100098
vt 0.26078274846076965 0.8333221673965454
vt 0.25310218334198 0.33979976177215576
vt 0.22168540954589844 0.34271538257598877
vt 0.26078274846076965 0.8333221673965454
vt 0.22168540954589844 0.34271538257598877
vt 0.22935891151428223 0.8362481594085693
vt 0.25310218334198 0.33979976177215576
vt 0.24036842584609985 0.20272034406661987
vt 0.2089495062828064 0.20563918352127075
vt 0.25310218334198 0.33979976177215576
vt 0.2089495062828064 0.20563918352127075
vt 0.22168540954589844 0.34271538257598877
vt 0.3993849456310272 0.8091689348220825
vt 0.28626710176467896 0.8107693195343018
vt 0.26078274846076965 0.8333221673965454
vt 0.3993849456310272 0.8091689348220825
vt 0.26078274846076965 0.8333221673965454
vt 0.398476243019104 0.8313572406768799
vt 0.20321470499038696 0.814313530921936
vt 0.0903693437576294 0.8150618076324463
vt 0.09088212251663208 0.8371833562850952
vt 0.20321470499038696 0.814313530921936
vt 0.09088212251663208 0.8371833562850952
vt 0.22935891151428223 0.8362481594085693
vt 0.0903693437576294 0.8150618076324463
vt 0.058938443660736084 0.8138461112976074
vt 0.05892068147659302 0.8363240957260132
vt 0.0903693437576294 0.8150618076324463
vt 0.05892068147659302 0.8363240957260132
vt 0.09088212251663208 0.8371833562850952
vt 0.28626710176467896 0.8107693195343018
vt 0.27926361560821533 0.36032330989837646
vt 0.25310218334198 0.33979976177215576
vt 0.28626710176467896 0.8107693195343018
vt 0.25310218334198 0.33979976177215576
vt 0.26078274846076965 0.8333221673965454
vt 0.19617509841918945 0.3641011118888855
vt 0.20321470499038696 0.814313530921936
vt 0.22935891151428223 0.8362481594085693
vt 0.19617509841918945 0.3641011118888855
vt 0.22935891151428223 0.8362481594085693
vt 0.22168540954589844 0.34271538257598877
vt 0.27926361560821533 0.36032330989837646
vt 0.3923269808292389 0.35818004608154297
vt 0.39070597290992737 0.3372061848640442
vt 0.27926361560821533 0.36032330989837646
vt 0.39070597290992737 0.3372061848640442
vt 0.25310218334198 0.33979976177215576
vt 0.05134320259094238 0.3640168309211731
vt 0.08284240961074829 0.3658965229988098
vt 0.08388149738311768 0.34485942125320435
vt 0.05134320259094238 0.3640168309211731
vt 0.08388149738311768 0.34485942125320435
vt 0.05247223377227783 0.34307247400283813
vt 0.08284240961074829 0.3658965229988098
vt 0.19617509841918945 0.3641011118888855
vt 0.22168540954589844 0.34271538257598877
vt 0.08284240961074829 0.3658965229988098
vt 0.22168540954589844 0.34271538257598877
vt 0.08388149738311768 0.34485942125320435
vn 6.174575872819322e-8 0 0.9999999999999982
vn 6.089024395805598e-8 0 0.9999999999999982
vn 5.712644224331589e-8 0 0.9999999999999984
vn 6.174575872819322e-8 0 0.9999999999999982
vn 5.712644224331589e-8 0 0.9999999999999984
vn 5.481618714497918e-8 0 0.9999999999999984
vn 0.0834553464298258 0.9965115178221865 0
vn 0.0834553464298258 0.9965115178221865 0
vn 0.0834553464298258 0.9965115178221865 0
vn 0.0834553464298258 0.9965115178221865 0
vn 0.0834553464298258 0.9965115178221865 0
vn 0.0834553464298258 0.9965115178221865 0
vn -0.045036196961054965 -0.9989853557301454 0
vn -0.045036196961054965 -0.9989853557301454 0
vn -0.045036196961054965 -0.9989853557301454 0
vn -0.045036196961054965 -0.9989853557301454 0
vn -0.045036196961054965 -0.9989853557301454 0
vn -0.045036196961054965 -0.9989853557301454 0
vn 0.996723578367376 0.08088330066542207 0
vn 0.996723578367376 0.08088330066542207 0
vn 0.9990317786195827 0.04399437814304017 1.0889177521164052e-8
vn 0.996723578367376 0.08088330066542207 0
vn 0.9990317786195827 0.04399437814304017 1.0889177521164052e-8
vn 0.9990317786195827 0.04399437814304017 1.0889177521164052e-8
vn -0.9999359277005727 -0.011319915794528276 0
vn -0.9999359277005727 -0.011319915794528276 0
vn -0.9999719483887091 -0.007490155918857592 -2.6426788011105316e-9
vn -0.9999359277005727 -0.011319915794528276 0
vn -0.9999719483887091 -0.007490155918857592 -2.6426788011105316e-9
vn -0.9999719483887091 -0.007490155918857592 -2.6426788011105316e-9
vn -0.9995561506525538 -0.029790966628308827 -1.726764199566219e-8
vn -0.9999155309325498 -0.012997345878182253 -7.288557245559464e-9
vn -0.9999155310535868 -0.012997336566529884 -7.288553249638872e-9
vn -0.9995561506525538 -0.029790966628308827 -1.726764199566219e-8
vn -0.9999155310535868 -0.012997336566529884 -7.288553249638872e-9
vn -0.9995561506525538 -0.029790966628308827 -1.726764199566219e-8
vn 0.9989456621725479 0.04590821306312776 0
vn 0.9994723835023449 0.03248006490359103 1.1004766917581434e-8
vn 0.9994723830186094 0.03248007978903222 1.1004755365935734e-8
vn 0.9989456621725479 0.04590821306312776 0
vn 0.9994723830186094 0.03248007978903222 1.1004755365935734e-8
vn 0.9989456621725479 0.04590821306312776 0
vn 2.1487319656898267e-7 0 0.9999999999999769
vn 0 0 1
vn 0 0 1
vn 2.1487319656898267e-7 0 0.9999999999999769
vn 0 0 1
vn 2.0277384749078506e-7 0 0.9999999999999796
vn 5.481618714497918e-8 0 0.9999999999999984
vn 5.712644224331589e-8 0 0.9999999999999984
vn 3.524672109733726e-8 0 0.9999999999999993
vn 5.481618714497918e-8 0 0.9999999999999984
vn 3.524672109733726e-8 0 0.9999999999999993
vn 6.043873668204459e-8 0 0.9999999999999982
vn -2.3236589541397728e-8 0 0.9999999999999998
vn -3.8542464153576345e-7 0 0.9999999999999258
vn -2.6843605382963634e-7 0 0.999999999999964
vn -2.3236589541397728e-8 0 0.9999999999999998
vn -2.6843605382963634e-7 0 0.999999999999964
vn 5.262684510398678e-8 0 0.9999999999999987
vn 1.3922007724431618e-7 0 0.9999999999999905
vn 1.3922007724431618e-7 0 0.9999999999999905
vn 1.3922007724431618e-7 0 0.9999999999999905
vn 1.3922007724431618e-7 0 0.9999999999999905
vn 1.3922007724431618e-7 0 0.9999999999999905
vn 1.392200914551709e-7 0 0.9999999999999905
vn 0 0 1
vn 0 0 1
vn 0 0 1
vn 0 0 1
vn 0 0 1
vn 0 0 1
vn -2.6843605382963634e-7 0 0.999999999999964
vn -3.8542464153576345e-7 0 0.9999999999999258
vn -4.1653198223912074e-8 0 0.9999999999999991
vn -3.8542464153576345e-7 0 0.9999999999999258
vn 0 0 1
vn 0 0 1
vn -3.8542464153576345e-7 0 0.9999999999999258
vn 0 0 1
vn -4.1653198223912074e-8 0 0.9999999999999991
vn 0 0 1
vn 0 0 1
vn 0 0 1
vn -0.9999719483887091 -0.007490155918857592 -2.6426788011105316e-9
vn -0.9999719483887091 -0.007490155918857592 -2.6426788011105316e-9
vn -0.9999155310535868 -0.012997336566529884 -7.288553249638872e-9
vn -0.9999719483887091 -0.007490155918857592 -2.6426788011105316e-9
vn -0.9999155310535868 -0.012997336566529884 -7.288553249638872e-9
vn -0.9999155309325498 -0.012997345878182253 -7.288557245559464e-9
vn -2.6282181764258887e-8 0 -0.9999999999999998
vn -3.513109092523334e-8 0 -0.9999999999999993
vn -1.398053228740523e-7 0 -0.9999999999999902
vn -2.6282181764258887e-8 0 -0.9999999999999998
vn -1.398053228740523e-7 0 -0.9999999999999902
vn -1.3980529445234287e-7 0 -0.9999999999999902
vn 0.9990317786195827 0.04399437814304017 1.0889177521164052e-8
vn 0.9990317786195827 0.04399437814304017 1.0889177521164052e-8
vn 0.9994723830186094 0.03248007978903222 1.1004755365935734e-8
vn 0.9990317786195827 0.04399437814304017 1.0889177521164052e-8
vn 0.9994723830186094 0.03248007978903222 1.1004755365935734e-8
vn 0.9994723835023449 0.03248006490359103 1.1004766917581434e-8
vn -2.6843605382963634e-7 0 0.999999999999964
vn -4.1653198223912074e-8 0 0.9999999999999991
vn 3.32048628592929e-8 0 0.9999999999999996
vn -2.6843605382963634e-7 0 0.999999999999964
vn 3.32048628592929e-8 0 0.9999999999999996
vn 3.524672109733726e-8 0 0.9999999999999993
vn 0 0 1
vn 0 0 1
vn 0 0 1
vn 0 0 1
vn 0 0 1
vn 0 0 1
vn 0 0 1
vn 0 0 1
vn 0 0 1
vn 0 0 1
vn 0 0 1
vn 0 0 1
vn 0 0 1
vn 0 0 1
vn 0 0 1
vn 3.32048628592929e-8 0 0.9999999999999996
vn 0 0 1
vn 0 0 1
vn 3.32048628592929e-8 0 0.9999999999999996
vn 0 0 1
vn 6.043873668204459e-8 0 0.9999999999999982
vn 3.524672109733726e-8 0 0.9999999999999993
vn 3.32048628592929e-8 0 0.9999999999999996
vn 6.043873668204459e-8 0 0.9999999999999982
vn 0.9993995239671024 0.03400261263520042 0.006664370060985202
vn 0.9993995239640008 0.034002612635094895 0.006664370526625798
vn 0.9993995239640008 0.034002612635094895 0.006664370526625798
vn 0.9993995239671024 0.03400261263520042 0.006664370060985202
vn 0.9993995239640008 0.034002612635094895 0.006664370526625798
vn 0.9993995239640008 0.034002612635094895 0.006664370526625798
vn 0.09217473165869715 0.9956579854511277 0.012999801961913537
vn 0.09217474643213946 0.9956579840715265 0.01299980287522336
vn 0.0921747390459763 0.9956579847673543 0.012999801952985853
vn 0.09217473165869715 0.9956579854511277 0.012999801961913537
vn 0.0921747390459763 0.9956579847673543 0.012999801952985853
vn 0.09217474643325543 0.995657984083581 0.01299980194405817
vn -0.9984871711476101 -0.053275402455880846 -0.013605166180797235
vn -0.9984871715565939 -0.05327539502712206 -0.013605165255047387
vn -0.9984871713584278 -0.053275398741838974 -0.01360516525234722
vn -0.9984871711476101 -0.053275402455880846 -0.013605166180797235
vn -0.9984871713584278 -0.053275398741838974 -0.01360516525234722
vn -0.9984871715439424 -0.05327539502644702 -0.013605166186197571
vn -0.10235929684631284 -0.9947465848174051 -0.0013440026925522152
vn -0.10235929684632886 -0.9947465848175607 -0.0013440025761371015
vn -0.10235930421883067 -0.9947465840587754 -0.00134400269152723
vn -0.10235929684631284 -0.9947465848174051 -0.0013440026925522152
vn -0.10235930421883067 -0.9947465840587754 -0.00134400269152723
vn -0.10235931159133245 -0.9947465832999897 -0.0013440028069173582
vn 0.06129401662719489 -0.9980541055655494 -0.011447527656938444
vn 0.06129402033783602 -0.998054105327015 -0.011447528585525082
vn 0.06129401291459333 -0.9980541057721619 -0.011447529521953442
vn 0.06129401662719489 -0.9980541055655494 -0.011447527656938444
vn 0.06129401291459333 -0.9980541057721619 -0.011447529521953442
vn 0.06129401662654142 -0.9980541055549089 -0.01144752858813899
vn 0.9999145033157741 0.012943026303931546 -0.0018612170385056662
vn 0.9999145033280439 0.012943025372767817 -0.001861216922113186
vn 0.9999145033280439 0.012943025372767817 -0.001861216922113186
vn 0.9999145033157741 0.012943026303931546 -0.0018612170385056662
vn 0.9999145033280439 0.012943025372767817 -0.001861216922113186
vn 0.9999145033155574 0.012943026303928741 -0.0018612171549205819
vn 0.018259521730765244 0.9997660603645833 0.011593722838000748
vn 0.01825952359298654 0.9997660603413749 0.011593721906409032
vn 0.018259523592592225 0.9997660603197851 0.011593723768803832
vn 0.018259521730765244 0.9997660603645833 0.011593722838000748
vn 0.018259523592592225 0.9997660603197851 0.011593723768803832
vn 0.018259523592789387 0.9997660603305801 0.011593722837606435
vn -0.9956319076653656 -0.09102698927009754 0.02076515502100473
vn -0.9956319061993553 -0.09102700403722637 0.020765160578364535
vn -0.9956319055241135 -0.09102701142607186 0.02076516056428152
vn -0.9956319076653656 -0.09102698927009754 0.02076515502100473
vn -0.9956319055241135 -0.09102701142607186 0.02076516056428152
vn -0.9956319062378645 -0.09102700404074712 0.020765158716522597
vn -0.08077409126983656 -0.9966126690947712 -0.015451018714906273
vn -0.08077409127099888 -0.9966126691091123 -0.015451017783806035
vn -0.08077409126751191 -0.996612669066089 -0.015451020577106749
vn -0.08077409126983656 -0.9966126690947712 -0.015451018714906273
vn -0.08077409126751191 -0.996612669066089 -0.015451020577106749
vn -0.08077409867180618 -0.9966126684949959 -0.015451018705607635
vn 0.9999898519685236 0.00427658337169277 0.001416613791897621
vn 0.9999898519681937 0.004276583371691359 0.0014166140247277937
vn 0.9999898519683587 0.004276583371692064 0.0014166139083127073
vn 0.9999898519685236 0.00427658337169277 0.001416613791897621
vn 0.9999898519683587 0.004276583371692064 0.0014166139083127073
vn 0.9999898519665321 0.004276583837345533 0.0014166137918947997
vn -0.07565050005954488 0.9970741507704525 0.010960825978079108
vn -0.07565050005877264 0.9970741507602743 0.010960826909289815
vn -0.07565050746671374 0.9970741501982832 0.010960826903111853
vn -0.07565050005954488 0.9970741507704525 0.010960825978079108
vn -0.07565050746671374 0.9970741501982832 0.010960826903111853
vn -0.07565050746671374 0.9970741501982832 0.010960826903111853
vn -0.9998556172485822 -0.016854039982471675 0.002164715391401998
vn -0.9998556173118633 -0.016854036258248148 0.002164715158708364
vn -0.9998556172804748 -0.016854038120364158 0.002164715158640407
vn -0.9998556172485822 -0.016854039982471675 0.002164715391401998
vn -0.9998556172804748 -0.016854038120364158 0.002164715158640407
vn -0.9998556172490862 -0.016854039982480168 0.0021647151585724497
vn 2.1487319656898267e-7 0 0.9999999999999769
vn 2.0277384749078506e-7 0 0.9999999999999796
vn -2.3236589541397728e-8 0 0.9999999999999998
vn 2.1487319656898267e-7 0 0.9999999999999769
vn -2.3236589541397728e-8 0 0.9999999999999998
vn 5.262684510398678e-8 0 0.9999999999999987
vn 6.089024395805598e-8 0 0.9999999999999982
vn 6.174575872819322e-8 0 0.9999999999999982
vn 0 0 1
vn 6.089024395805598e-8 0 0.9999999999999982
vn 0 0 1
vn 0 0 1
vn 1.043136332867789e-8 0 -1
vn 1.066742072453053e-8 0 -1
vn 0 0 -1
vn 1.043136332867789e-8 0 -1
vn 0 0 -1
vn 0 0 -1
vn 1.043136332867789e-8 0 -1
vn -3.513109092523334e-8 0 -0.9999999999999993
vn -2.6282181764258887e-8 0 -0.9999999999999998
vn 1.043136332867789e-8 0 -1
vn -2.6282181764258887e-8 0 -0.9999999999999998
vn 1.066742072453053e-8 0 -1
vn 1.754420395627649e-7 0 -0.9999999999999847
vn 1.754420253519102e-7 0 -0.9999999999999847
vn 1.754420395627649e-7 0 -0.9999999999999847
vn 1.754420395627649e-7 0 -0.9999999999999847
vn 1.754420395627649e-7 0 -0.9999999999999847
vn 1.754420253519102e-7 0 -0.9999999999999847
vn -1 0 0
vn -1 0 0
vn -1 0 0
vn -1 0 0
vn -1 0 0
vn -1 0 0
vn 0 0 1
vn 0 0 1
vn 0 0 1
vn 0 0 1
vn 0 0 1
vn 0 0 1
vn 1 0 0
vn 1 0 0
vn 1 0 0
vn 1 0 0
vn 1 0 0
vn 1 0 0
vn 0 -1 0
vn 0 -1 0
vn 0 -1 0
vn 0 -1 0
vn 0 -1 0
vn 0 -1 0
vn 0 1 0
vn 0 1 0
vn 0 1 0
vn 0 1 0
vn 0 1 0
vn 0 1 0
vn -0.054812317130654015 0 -0.9984966749522847
vn -0.054812317130654015 0 -0.9984966749522847
vn -0.054812317130654015 0 -0.9984966749522847
vn -0.054812317130654015 0 -0.9984966749522847
vn -0.054812317130654015 0 -0.9984966749522847
vn -0.054812317130654015 0 -0.9984966749522847
vn -0.07964711021938219 -0.9968214794647161 -0.0018099479208599357
vn -0.07964711021938219 -0.9968214794647161 -0.0018099479208599357
vn -0.07964710281604864 -0.996821480056037 -0.0018099480383489321
vn -0.07964711021938219 -0.9968214794647161 -0.0018099479208599357
vn -0.07964710281604864 -0.996821480056037 -0.0018099480383489321
vn -0.07964711762268215 -0.996821478872975 -0.0018099480362008236
vn 0.07964711058715401 0.9968214840675556 0.0018073949411560551
vn 0.07964711058713726 0.9968214840673459 0.0018073950575709995
vn 0.07964711799045404 0.9968214834758149 0.0018073950564984598
vn 0.07964711058715401 0.9968214840675556 0.0018073949411560551
vn 0.07964711799045404 0.9968214834758149 0.0018073950564984598
vn 0.07964710318382048 0.9968214846588771 0.0018073950586435389
vn 0 -1 0
vn 0 -1 0
vn 0 -1 0
vn 0 -1 0
vn 0 -1 0
vn 0 -1 0
vn 0.057862616045768346 0 -0.9983245552746562
vn 0.057862616045768346 0 -0.9983245552746562
vn 0.057862616045768346 0 -0.9983245552746562
vn 0.057862616045768346 0 -0.9983245552746562
vn 0.057862616045768346 0 -0.9983245552746562
vn 0.057862616045768346 0 -0.9983245552746562
vn 0 1 0
vn 0 1 0
vn 0 1 0
vn 0 1 0
vn 0 1 0
vn 0 1 0
f 1/1/1 2/2/2 3/3/3
f 4/4/4 5/5/5 6/6/6
f 7/7/7 8/8/8 9/9/9
f 10/10/10 11/11/11 12/12/12
f 13/13/13 14/14/14 15/15/15
f 16/16/16 17/17/17 18/18/18
f 19/19/19 20/20/20 21/21/21
f 22/22/22 23/23/23 24/24/24
f 25/25/25 26/26/26 27/27/27
f 28/28/28 29/29/29 30/30/30
f 31/31/31 32/32/32 33/33/33
f 34/34/34 35/35/35 36/36/36
f 37/37/37 38/38/38 39/39/39
f 40/40/40 41/41/41 42/42/42
f 43/43/43 44/44/44 45/45/45
f 46/46/46 47/47/47 48/48/48
f 49/49/49 50/50/50 51/51/51
f 52/52/52 53/53/53 54/54/54
f 55/55/55 56/56/56 57/57/57
f 58/58/58 59/59/59 60/60/60
f 61/61/61 62/62/62 63/63/63
f 64/64/64 65/65/65 66/66/66
f 67/67/67 68/68/68 69/69/69
f 70/70/70 71/71/71 72/72/72
f 73/73/73 74/74/74 75/75/75
f 76/76/76 77/77/77 78/78/78
f 79/79/79 80/80/80 81/81/81
f 82/82/82 83/83/83 84/84/84
f 85/85/85 86/86/86 87/87/87
f 88/88/88 89/89/89 90/90/90
f 91/91/91 92/92/92 93/93/93
f 94/94/94 95/95/95 96/96/96
f 97/97/97 98/98/98 99/99/99
f 100/100/100 101/101/101 102/102/102
f 103/103/103 104/104/104 105/105/105
f 106/106/106 107/107/107 108/108/108
f 109/109/109 110/110/110 111/111/111
f 112/112/112 113/113/113 114/114/114
f 115/115/115 116/116/116 117/117/117
f 118/118/118 119/119/119 120/120/120
f 121/121/121 122/122/122 123/123/123
f 124/124/124 125/125/125 126/126/126
f 127/127/127 128/128/128 129/129/129
f 130/130/130 131/131/131 132/132/132
f 133/133/133 134/134/134 135/135/135
f 136/136/136 137/137/137 138/138/138
f 139/139/139 140/140/140 141/141/141
f 142/142/142 143/143/143 144/144/144
f 145/145/145 146/146/146 147/147/147
f 148/148/148 149/149/149 150/150/150
f 151/151/151 152/152/152 153/153/153
f 154/154/154 155/155/155 156/156/156
f 157/157/157 158/158/158 159/159/159
f 160/160/160 161/161/161 162/162/162
f 163/163/163 164/164/164 165/165/165
f 166/166/166 167/167/167 168/168/168
f 169/169/169 170/170/170 171/171/171
f 172/172/172 173/173/173 174/174/174
f 175/175/175 176/176/176 177/177/177
f 178/178/178 179/179/179 180/180/180
f 181/181/181 182/182/182 183/183/183
f 184/184/184 185/185/185 186/186/186
f 187/187/187 188/188/188 189/189/189
f 190/190/190 191/191/191 192/192/192
f 193/193/193 194/194/194 195/195/195
f 196/196/196 197/197/197 198/198/198
f 199/199/199 200/200/200 201/201/201
f 202/202/202 203/203/203 204/204/204
f 205/205/205 206/206/206 207/207/207
f 208/208/208 209/209/209 210/210/210
f 211/211/211 212/212/212 213/213/213
f 214/214/214 215/215/215 216/216/216
f 217/217/217 218/218/218 219/219/219
f 220/220/220 221/221/221 222/222/222
f 223/223/223 224/224/224 225/225/225
f 226/226/226 227/227/227 228/228/228
f 229/229/229 230/230/230 231/231/231
f 232/232/232 233/233/233 234/234/234
f 235/235/235 236/236/236 237/237/237
f 238/238/238 239/239/239 240/240/240
f 241/241/241 242/242/242 243/243/243
f 244/244/244 245/245/245 246/246/246
f 247/247/247 248/248/248 249/249/249
f 250/250/250 251/251/251 252/252/252
f 253/253/253 254/254/254 255/255/255
f 256/256/256 257/257/257 258/258/258
f 259/259/259 260/260/260 261/261/261
f 262/262/262 263/263/263 264/264/264
f 265/265/265 266/266/266 267/267/267
f 268/268/268 269/269/269 270/270/270
f 271/271/271 272/272/272 273/273/273
f 274/274/274 275/275/275 276/276/276
f 277/277/277 278/278/278 279/279/279
f 280/280/280 281/281/281 282/282/282
f 283/283/283 284/284/284 285/285/285
f 286/286/286 287/287/287 288/288/288
f 289/289/289 290/290/290 291/291/291
f 292/292/292 293/293/293 294/294/294
f 295/295/295 296/296/296 297/297/297
f 298/298/298 299/299/299 300/300/300
