# This file uses centimeters as units for non-parametric coordinates.

mtllib Pillar_E.mtl
g default
v 771.027405 219.324066 -331.592346
v 772.209778 233.766937 -334.047363
v 805.982666 233.291245 -332.721893
v 772.209778 234.650864 -364.130096
v 808.046753 233.791092 -362.172546
v 771.027405 219.324066 -362.172546
v 805.221924 250.589035 -335.382263
v 805.221924 251.024658 -370.744202
v 771.257019 200.930222 -334.758972
v 801.117798 201.411026 -337.203217
v 801.117981 219.408661 -368.352051
v 771.257019 199.923523 -372.591888
v 801.117981 200.849945 -372.591888
v 772.576599 188.538437 -338.285522
v 811.267700 182.804840 -336.956055
v 772.595337 200.781723 -337.159393
v 772.576599 199.768753 -367.060608
v 811.267700 183.146576 -365.265778
v 798.806702 153.844208 -336.958893
v 772.537170 170.679276 -336.958893
v 798.806702 170.598938 -336.958893
v 772.537170 171.439804 -366.864685
v 798.806702 154.209915 -361.688843
v 770.549866 170.988876 -336.298462
v 804.211060 169.505814 -334.324341
v 804.211060 184.142075 -335.445770
v 804.211060 183.062424 -372.996857
v 770.549866 171.798264 -364.070221
v 804.211060 169.972000 -367.863098
v 809.573608 137.716095 -334.946808
v 769.119934 157.540680 -334.373779
v 769.119934 142.164871 -369.242645
v 809.573608 137.368500 -368.903992
v 770.648621 129.044693 -336.537170
v 770.648621 138.778046 -336.585693
v 804.681519 137.207336 -336.830444
v 770.648621 141.350037 -366.001190
v 804.681519 125.032990 -366.049713
v 771.455994 108.680298 -334.673279
v 799.894226 125.273743 -334.625122
v 801.108887 125.389923 -362.052795
v 768.894958 108.681801 -371.195709
v 801.108887 104.656105 -362.052795
v 808.726257 92.970268 -335.661804
v 769.474426 109.020897 -330.297333
v 770.946655 91.878403 -372.193054
v 810.202026 91.878403 -372.193054
v 807.110901 79.458694 -334.286194
v 772.110229 90.983009 -336.719788
v 803.005310 92.147003 -337.262512
v 772.110229 91.745766 -363.505432
v 804.378967 91.745766 -363.505432
v 772.110229 85.367973 -363.505432
v 806.143127 87.077171 -363.505432
v 805.139160 61.450218 -338.401978
v 808.130554 79.102226 -337.307922
v 806.324036 86.159973 -368.042236
v 802.700867 61.564083 -368.042236
v 767.261047 44.918324 -333.820038
v 813.206604 46.954491 -335.955414
v 769.304504 62.352993 -334.707428
v 772.100098 60.958694 -372.810242
v 810.202026 45.858723 -371.181305
v 767.919495 34.015961 -333.429840
v 770.245789 44.661480 -334.924744
v 805.194519 46.019810 -334.878174
v 806.143127 44.278255 -362.624084
v 771.033813 32.139427 -362.599060
v 805.590210 20.022236 -336.194824
v 772.336548 32.559517 -334.508545
v 805.491516 32.412106 -334.508545
v 770.171631 14.973986 -368.768677
v 802.199036 15.571432 -365.414093
v 770.946655 1.920532 -332.612640
v 810.202026 0.000000 -332.612640
v 772.777405 13.559044 -336.511902
v 770.946655 13.559044 -368.994781
v 810.202026 0.000000 -368.994781
v 775.491028 250.197296 -331.222321
v 769.595520 247.694809 -330.209961
v 769.997620 250.191879 -336.378815
v 775.744385 233.966171 -329.921356
v 766.837830 237.353073 -329.027405
v 765.831543 234.261963 -338.137146
v 803.668457 234.137680 -333.582153
v 805.221924 235.707092 -333.937286
v 803.667053 235.459457 -370.583618
v 805.221924 237.020554 -370.744202
v 768.724182 250.520660 -366.774567
v 771.591431 250.591476 -369.839386
v 765.596558 235.223572 -363.798065
v 768.397217 235.339981 -366.940918
v 799.182861 219.680832 -332.507080
v 807.921631 223.172638 -332.789490
v 808.437683 219.674805 -340.152161
v 773.670532 219.063995 -336.375977
v 769.192383 216.539673 -335.821777
v 768.827026 219.499359 -340.782379
v 801.113586 212.037216 -338.015961
v 801.113647 218.336395 -348.918060
v 791.507080 218.215759 -337.726440
v 798.927856 201.413879 -336.162292
v 808.595947 196.919662 -336.111450
v 808.595947 201.411285 -344.030060
v 778.125793 187.351715 -336.926392
v 769.710510 184.063416 -337.139557
v 769.430725 188.422852 -346.186707
v 779.104553 156.529221 -336.958893
v 772.537170 160.737991 -336.958893
v 772.537170 157.554321 -344.818634
v 797.279053 153.737701 -335.488312
v 807.392456 148.781555 -335.631592
v 807.392456 152.585510 -344.120880
v 775.187988 138.957779 -333.683655
v 769.119934 141.931458 -333.597717
v 769.119934 139.625092 -338.828033
v 796.173279 126.035919 -336.757141
v 804.681519 128.076569 -336.830444
v 804.681519 125.032990 -344.135254
v 769.423767 125.251732 -333.560364
v 772.817444 128.685654 -333.450043
v 768.094849 124.634933 -371.027283
v 771.407532 128.274963 -368.580933
v 789.346924 107.949669 -335.534210
v 800.470398 113.757370 -335.517334
v 799.725464 106.541199 -345.117035
v 795.947388 107.278587 -334.849945
v 809.685486 101.660866 -336.727509
v 810.202026 106.722572 -349.513428
v 779.287354 91.706619 -331.638458
v 769.474426 95.719276 -330.297333
v 769.842468 91.433655 -340.771271
v 781.717285 61.962738 -337.226562
v 768.581177 68.046768 -336.843628
v 769.105469 62.002594 -347.600647
v 777.738281 78.900429 -337.307922
v 767.981995 80.664864 -344.991516
v 767.850891 76.136566 -337.191833
v 780.918152 79.122261 -334.286194
v 772.167969 82.003342 -334.894592
v 772.167969 80.599579 -341.591003
v 802.231079 60.825867 -334.535889
v 813.206604 56.976242 -334.847900
v 812.455444 60.590767 -343.654358
v 798.826538 32.928650 -333.411072
v 808.145325 35.929615 -333.773163
v 808.382446 33.172653 -340.709625
v 777.982300 16.186192 -337.439941
v 769.668884 19.320511 -337.018372
v 769.127686 14.924128 -345.583405
v 806.476929 19.834095 -334.457306
v 808.545532 18.265181 -334.177185
v 810.202026 18.168354 -368.994781
v 808.208984 19.850340 -368.994781
v 798.791931 219.305954 -362.172546
v 808.046753 222.922699 -362.172546
v 808.144470 219.393631 -356.667450
v 773.665710 220.473526 -367.907898
v 769.186523 217.550751 -368.543884
v 768.822021 220.487122 -363.772461
v 801.594910 200.520706 -368.237976
v 811.267700 196.365173 -367.789276
v 810.599731 200.931335 -362.480347
v 772.576599 188.439377 -365.265808
v 778.125793 187.085556 -372.614502
v 769.710510 184.269516 -370.382812
v 769.430725 188.425659 -365.911957
v 794.866272 170.725067 -362.465210
v 798.806702 170.598938 -357.979340
v 798.806702 168.140579 -361.688843
v 781.731506 156.637466 -366.049713
v 772.537170 162.667923 -367.861267
v 772.537170 157.808014 -360.145142
v 779.233337 156.819458 -372.386749
v 769.119934 157.971649 -363.754211
v 769.119934 154.127686 -372.471405
v 809.573608 149.041092 -368.903992
v 809.028320 152.845352 -362.708221
v 801.988525 153.903839 -369.774689
v 796.173279 138.243011 -366.037598
v 804.681519 137.207336 -358.744904
v 804.681519 134.163757 -366.049713
v 782.560120 127.205673 -366.049713
v 770.648621 132.916641 -366.032715
v 770.648621 128.609772 -355.720337
v 800.388184 107.432281 -372.193054
v 810.202026 103.543808 -372.193054
v 810.202026 107.254852 -366.523132
v 778.307007 107.432281 -372.193054
v 770.578613 107.829437 -361.719116
v 770.946655 103.543808 -372.193054
v 778.410095 86.159973 -368.042236
v 769.105469 80.011002 -368.042236
v 768.824585 84.786194 -362.279541
v 777.504333 61.564083 -368.042236
v 769.105469 61.673710 -362.931824
v 769.105469 66.175812 -368.042236
v 800.676514 61.299118 -371.588531
v 810.202026 57.524124 -371.181305
v 810.765381 61.207138 -364.299561
v 784.107544 47.110806 -370.122498
v 770.771851 52.395794 -370.692627
v 769.078186 46.781666 -357.046051
v 780.618469 46.431213 -362.624084
v 771.644104 46.527020 -355.699249
v 771.841125 43.396507 -362.617828
v 797.365784 34.278831 -362.617828
v 806.143127 37.313538 -362.624084
v 806.702942 34.537140 -357.145477
v 794.733398 33.040840 -365.712128
v 803.022156 33.020607 -357.687714
v 802.199036 28.810440 -365.414093
v 777.935791 32.629990 -366.382721
v 772.336548 32.509659 -358.581848
v 771.795288 28.113277 -367.146851
v 780.760498 0.000000 -368.994781
v 770.946655 3.389761 -368.994781
v 770.946655 0.480133 -359.899231
vt 0.199031 0.881977
vt 0.199031 0.782411
vt 0.246056 0.790405
vt 0.248934 0.888351
vt 0.341807 0.535670
vt 0.346083 0.415830
vt 0.391679 0.415830
vt 0.390261 0.530965
vt 0.336697 0.536826
vt 0.341001 0.416353
vt 0.859726 0.404237
vt 0.861244 0.295038
vt 0.903865 0.278323
vt 0.907380 0.400586
vt 0.327662 0.144280
vt 0.328382 0.005940
vt 0.382337 0.002316
vt 0.380328 0.124304
vt 0.393517 0.001957
vt 0.392180 0.116339
vt 0.631493 0.974001
vt 0.656298 0.878866
vt 0.671498 0.878866
vt 0.672805 0.964311
vt 0.917556 0.970844
vt 0.917926 0.874338
vt 0.998008 0.874338
vt 0.975029 0.974406
vt 0.115226 0.664605
vt 0.115226 0.546149
vt 0.174380 0.546149
vt 0.174696 0.659511
vt 0.179804 0.658599
vt 0.179857 0.546149
vt 0.997778 0.264152
vt 0.947972 0.254461
vt 0.944841 0.170911
vt 0.954905 0.141251
vt 0.988577 0.145101
vt 0.996707 0.165186
vt 0.998008 0.274130
vt 0.948351 0.264693
vt 0.561414 0.654505
vt 0.559587 0.539283
vt 0.620012 0.553088
vt 0.616521 0.616363
vt 0.596012 0.651859
vt 0.398339 0.977415
vt 0.374844 0.946160
vt 0.368706 0.891018
vt 0.436213 0.891018
vt 0.435835 0.980320
vt 0.457874 0.977597
vt 0.442349 0.906246
vt 0.446919 0.884443
vt 0.476156 0.890386
vt 0.478639 0.977597
vt 0.691244 0.974534
vt 0.679856 0.950562
vt 0.678940 0.896790
vt 0.690431 0.878866
vt 0.725817 0.878866
vt 0.724189 0.974754
vt 0.827696 0.531469
vt 0.830973 0.408289
vt 0.881796 0.411749
vt 0.891433 0.427900
vt 0.894648 0.502754
vt 0.885088 0.518289
vt 0.555689 0.875382
vt 0.556802 0.783208
vt 0.599841 0.774992
vt 0.614707 0.792278
vt 0.616270 0.852350
vt 0.601646 0.878132
vt 0.779569 0.965850
vt 0.779891 0.878005
vt 0.819754 0.874338
vt 0.816456 0.971693
vt 0.694019 0.744550
vt 0.691384 0.654128
vt 0.733953 0.656866
vt 0.748147 0.686323
vt 0.748156 0.750546
vt 0.734624 0.765103
vt 0.184426 0.975989
vt 0.185616 0.895471
vt 0.230973 0.895471
vt 0.238977 0.907548
vt 0.238977 0.975989
vt 0.239388 0.892943
vt 0.790061 0.870347
vt 0.774238 0.845224
vt 0.773412 0.795322
vt 0.783777 0.769732
vt 0.816145 0.769732
vt 0.818622 0.867102
vt 0.770074 0.769732
vt 0.458715 0.399465
vt 0.450446 0.300438
vt 0.457955 0.283409
vt 0.508777 0.285936
vt 0.510181 0.381596
vt 0.497665 0.409978
vt 0.945302 0.648796
vt 0.944171 0.538235
vt 0.982175 0.538235
vt 0.994562 0.558407
vt 0.993716 0.618926
vt 0.981330 0.646566
vt 0.998008 0.535400
vt 0.595629 0.977258
vt 0.585719 0.953474
vt 0.585719 0.882123
vt 0.615448 0.882123
vt 0.625358 0.905907
vt 0.625358 0.977258
vt 0.745975 0.970373
vt 0.731952 0.936797
vt 0.733368 0.874338
vt 0.765059 0.874496
vt 0.773433 0.970270
vt 0.009878 0.540785
vt 0.006323 0.421844
vt 0.044304 0.421844
vt 0.056387 0.440304
vt 0.054654 0.495686
vt 0.038173 0.537316
vt 0.785165 0.138365
vt 0.783717 0.036059
vt 0.797670 0.001957
vt 0.840979 0.001957
vt 0.837100 0.104263
vt 0.823146 0.138365
vt 0.638561 0.874875
vt 0.623903 0.858236
vt 0.624974 0.808319
vt 0.644653 0.773295
vt 0.670992 0.774429
vt 0.685736 0.799824
vt 0.699155 0.856112
vt 0.683607 0.874875
vt 0.239629 0.661067
vt 0.236061 0.546375
vt 0.274043 0.546375
vt 0.286034 0.568781
vt 0.284027 0.636000
vt 0.272259 0.664673
vt 0.410476 0.403462
vt 0.392197 0.359031
vt 0.386130 0.283409
vt 0.442896 0.286298
vt 0.438356 0.410357
vt 0.532739 0.977901
vt 0.538849 0.882930
vt 0.573510 0.887797
vt 0.579584 0.955436
vt 0.569391 0.977963
vt 0.493751 0.978379
vt 0.484775 0.955794
vt 0.489218 0.902281
vt 0.498257 0.884443
vt 0.520933 0.884443
vt 0.526604 0.974781
vt 0.720250 0.864229
vt 0.705759 0.769094
vt 0.748864 0.769094
vt 0.762571 0.794251
vt 0.760590 0.869720
vt 0.754453 0.764958
vt 0.754291 0.689469
vt 0.768605 0.661582
vt 0.811710 0.653410
vt 0.811548 0.731790
vt 0.797234 0.759677
vt 0.811940 0.757189
vt 0.196811 0.664831
vt 0.187337 0.635217
vt 0.192027 0.546375
vt 0.229921 0.559070
vt 0.229921 0.664831
vt 0.674314 0.409958
vt 0.698286 0.411639
vt 0.699205 0.440091
vt 0.602618 0.531762
vt 0.602618 0.441364
vt 0.620542 0.410913
vt 0.702184 0.531762
vt 0.602618 0.411231
vt 0.454762 0.656202
vt 0.450446 0.546241
vt 0.546334 0.539520
vt 0.552708 0.656202
vt 0.824019 0.162442
vt 0.822710 0.142357
vt 0.841905 0.145653
vt 0.938706 0.159197
vt 0.938706 0.274332
vt 0.829208 0.271386
vt 0.819873 0.261407
vt 0.900784 0.408228
vt 0.998008 0.408228
vt 0.998007 0.523450
vt 0.900784 0.531408
vt 0.086008 0.798563
vt 0.087198 0.782411
vt 0.101778 0.784216
vt 0.159852 0.788613
vt 0.191130 0.825052
vt 0.191144 0.888327
vt 0.101762 0.886881
vt 0.085992 0.873416
vt 0.191130 0.789555
vt 0.087179 0.888951
vt 0.516710 0.288692
vt 0.542493 0.288692
vt 0.516876 0.320170
vt 0.520122 0.405906
vt 0.602565 0.282168
vt 0.621311 0.311486
vt 0.617478 0.405967
vt 0.619850 0.279993
vt 0.176671 0.778420
vt 0.164322 0.668823
vt 0.273521 0.668823
vt 0.267093 0.778420
vt 0.708319 0.443260
vt 0.709230 0.413804
vt 0.736629 0.413110
vt 0.821560 0.408289
vt 0.821560 0.530551
vt 0.736629 0.529307
vt 0.708319 0.507484
vt 0.709230 0.522040
vt 0.048743 0.160869
vt 0.076384 0.160869
vt 0.048277 0.193797
vt 0.044648 0.285480
vt 0.136902 0.155542
vt 0.159910 0.178463
vt 0.168414 0.252552
vt 0.140308 0.285480
vt 0.168690 0.285480
vt 0.712487 0.274069
vt 0.695458 0.274069
vt 0.712207 0.254312
vt 0.596431 0.274069
vt 0.597533 0.142356
vt 0.708095 0.142356
vt 0.660510 0.658496
vt 0.684293 0.658496
vt 0.684532 0.686198
vt 0.622790 0.769304
vt 0.589159 0.730521
vt 0.589159 0.658496
vt 0.685248 0.769304
vt 0.589214 0.769304
vt 0.559239 0.660193
vt 0.583023 0.660193
vt 0.582984 0.687895
vt 0.487091 0.771001
vt 0.487888 0.660193
vt 0.582865 0.771001
vt 0.627801 0.650136
vt 0.632391 0.535754
vt 0.731435 0.539580
vt 0.724505 0.628882
vt 0.633991 0.022893
vt 0.635673 0.064522
vt 0.589261 0.016780
vt 0.503068 0.001957
vt 0.635673 0.119904
vt 0.603720 0.138365
vt 0.531826 0.138365
vt 0.506663 0.104263
vt 0.635673 0.138365
vt 0.507861 0.138365
vt 0.643392 0.138365
vt 0.644591 0.104263
vt 0.675342 0.133998
vt 0.648186 0.001957
vt 0.775997 0.001957
vt 0.771192 0.120899
vt 0.255551 0.887813
vt 0.257318 0.787221
vt 0.342762 0.782749
vt 0.342762 0.887813
vt 0.886616 0.649231
vt 0.864813 0.649231
vt 0.888597 0.620741
vt 0.793462 0.649419
vt 0.793462 0.538611
vt 0.888597 0.535460
vt 0.164102 0.541289
vt 0.129078 0.539582
vt 0.162855 0.498519
vt 0.079161 0.539582
vt 0.062522 0.512236
vt 0.062522 0.430199
vt 0.159028 0.422260
vt 0.062522 0.539582
vt 0.196149 0.001957
vt 0.224822 0.004403
vt 0.195133 0.037692
vt 0.195692 0.144898
vt 0.292041 0.009905
vt 0.315773 0.042754
vt 0.319751 0.135795
vt 0.314447 0.011739
vt 0.048015 0.145634
vt 0.003583 0.140120
vt 0.005439 0.096700
vt 0.001992 0.011739
vt 0.116684 0.001957
vt 0.123636 0.151551
vt 0.789974 0.142356
vt 0.812558 0.143128
vt 0.813737 0.173469
vt 0.718704 0.263960
vt 0.718643 0.178225
vt 0.736460 0.147825
vt 0.813676 0.274100
vt 0.718622 0.149647
vt 0.443316 0.652501
vt 0.420790 0.653143
vt 0.443336 0.623923
vt 0.353150 0.657695
vt 0.352998 0.543906
vt 0.443336 0.540817
vt 0.129876 0.676637
vt 0.155033 0.679317
vt 0.156003 0.703624
vt 0.054408 0.776546
vt 0.054408 0.668597
vt 0.158187 0.758315
vt 0.132788 0.776546
vt 0.105368 0.662236
vt 0.077481 0.663998
vt 0.103995 0.635169
vt 0.001992 0.660599
vt 0.012914 0.556321
vt 0.108049 0.545280
vt 0.490721 0.529331
vt 0.484032 0.419609
vt 0.596482 0.413969
vt 0.596482 0.535292
vt 0.160432 0.418268
vt 0.130818 0.418268
vt 0.130818 0.386316
vt 0.130818 0.290457
vt 0.249274 0.290457
vt 0.249274 0.418268
vt 0.852074 0.137259
vt 0.848798 0.107599
vt 0.881073 0.134349
vt 0.848032 0.024050
vt 0.857151 0.013817
vt 0.971986 0.001957
vt 0.971991 0.122430
vt 0.826594 0.794855
vt 0.826594 0.769732
vt 0.856530 0.775630
vt 0.912125 0.789829
vt 0.912125 0.870347
vt 0.847977 0.870347
vt 0.826594 0.844756
vt 0.399773 0.001957
vt 0.496320 0.051152
vt 0.491816 0.106293
vt 0.458024 0.137494
vt 0.399773 0.140297
vt 0.494241 0.137549
vt 0.375097 0.278991
vt 0.349702 0.279418
vt 0.350080 0.247225
vt 0.350080 0.148271
vt 0.450148 0.154153
vt 0.450148 0.245038
vt 0.431385 0.276247
vt 0.450148 0.275333
vt 0.760329 0.404297
vt 0.760329 0.278323
vt 0.852503 0.278323
vt 0.848175 0.404297
vt 0.825889 0.874338
vt 0.911420 0.874338
vt 0.911420 0.942779
vt 0.898591 0.957384
vt 0.825889 0.971709
vt 0.221305 0.542157
vt 0.171648 0.531757
vt 0.170237 0.422260
vt 0.215833 0.422260
vt 0.220916 0.427322
vt 0.460191 0.771001
vt 0.460191 0.665937
vt 0.475391 0.660193
vt 0.480956 0.771001
vt 0.064960 0.417283
vt 0.058707 0.289472
vt 0.118176 0.294865
vt 0.123284 0.301600
vt 0.102853 0.411322
vt 0.925324 0.403298
vt 0.914297 0.374299
vt 0.914855 0.283381
vt 0.919965 0.278323
vt 0.968419 0.278323
vt 0.967144 0.375124
vt 0.958996 0.394319
vt 0.227440 0.542383
vt 0.228602 0.450712
vt 0.239971 0.422260
vt 0.272916 0.428573
vt 0.274465 0.538534
vt 0.489425 0.872216
vt 0.490991 0.774992
vt 0.525588 0.775006
vt 0.545705 0.806284
vt 0.548467 0.864358
vt 0.540248 0.878938
vt 0.646469 0.404035
vt 0.627801 0.278061
vt 0.673757 0.286760
vt 0.688390 0.318238
vt 0.686332 0.403974
vt 0.884759 0.763008
vt 0.879931 0.653410
vt 0.927585 0.653410
vt 0.938035 0.738341
vt 0.927329 0.765741
vt 0.330203 0.977335
vt 0.316500 0.955952
vt 0.307758 0.891804
vt 0.362309 0.891804
vt 0.362571 0.977335
vt 0.539473 0.274070
vt 0.529791 0.254312
vt 0.525748 0.142356
vt 0.561777 0.149458
vt 0.577913 0.182386
vt 0.590295 0.274070
vt 0.422364 0.772495
vt 0.412568 0.689389
vt 0.419212 0.661687
vt 0.448941 0.661687
vt 0.454055 0.772495
vt 0.013844 0.888028
vt 0.001992 0.877242
vt 0.011385 0.780537
vt 0.078893 0.780537
vt 0.066510 0.877084
vt 0.282035 0.772141
vt 0.279656 0.713890
vt 0.298566 0.677673
vt 0.336062 0.668664
vt 0.347170 0.767708
vt 0.335990 0.778757
vt 0.187890 0.286465
vt 0.174825 0.254515
vt 0.178940 0.158665
vt 0.207235 0.155542
vt 0.225526 0.200272
vt 0.231199 0.286465
vt 0.307571 0.277658
vt 0.287762 0.234888
vt 0.286093 0.158629
vt 0.343567 0.148889
vt 0.342909 0.247843
vt 0.333911 0.280036
vt 0.904188 0.649231
vt 0.894807 0.620741
vt 0.895903 0.535460
vt 0.937215 0.548828
vt 0.933425 0.649419
vt 0.130818 0.151551
vt 0.137447 0.001957
vt 0.170077 0.001957
vt 0.182611 0.037692
vt 0.187584 0.144898
vt 0.240875 0.279860
vt 0.237334 0.179230
vt 0.247105 0.148889
vt 0.279958 0.158497
vt 0.275535 0.272286
vt 0.302786 0.657774
vt 0.292581 0.630706
vt 0.305071 0.540817
vt 0.345411 0.541139
vt 0.345891 0.649088
vt 0.280600 0.532512
vt 0.283399 0.415830
vt 0.318786 0.415830
vt 0.330562 0.445963
vt 0.330503 0.536361
vt 0.424881 0.880451
vt 0.415365 0.865868
vt 0.418832 0.776486
vt 0.479257 0.776486
vt 0.482273 0.873710
vt 0.698462 0.404065
vt 0.696014 0.309585
vt 0.709544 0.278091
vt 0.752582 0.278091
vt 0.735350 0.404065
vt 0.827244 0.765740
vt 0.818075 0.738341
vt 0.831174 0.653410
vt 0.873795 0.653410
vt 0.867849 0.763008
vt 0.245523 0.977873
vt 0.247851 0.905172
vt 0.256265 0.892342
vt 0.301622 0.892342
vt 0.293718 0.947937
vt 0.274084 0.977873
vt 0.465047 0.276001
vt 0.456283 0.243073
vt 0.465776 0.168984
vt 0.481608 0.144288
vt 0.519613 0.144288
vt 0.503997 0.276001
vt 0.353306 0.772495
vt 0.363422 0.689389
vt 0.376704 0.661687
vt 0.406433 0.661687
vt 0.399359 0.733712
vt 0.380764 0.772495
vt 0.268211 0.411839
vt 0.255551 0.387874
vt 0.255551 0.315980
vt 0.268211 0.284027
vt 0.306193 0.284027
vt 0.306193 0.411839
vt 0.417835 0.535529
vt 0.397815 0.505234
vt 0.397815 0.414349
vt 0.477896 0.426145
vt 0.477896 0.508183
vt 0.462881 0.535529
vt 0.003101 0.413528
vt 0.001992 0.320486
vt 0.014283 0.289472
vt 0.052264 0.289472
vt 0.048188 0.374433
vt 0.030980 0.417852
vt 0.748772 0.646227
vt 0.738891 0.617648
vt 0.745901 0.534543
vt 0.768577 0.534543
vt 0.778458 0.563121
vt 0.785424 0.648855
vt 0.365144 0.881740
vt 0.350438 0.861748
vt 0.349100 0.807056
vt 0.362874 0.782749
vt 0.405979 0.782749
vt 0.407924 0.887027
vt 0.334503 0.411839
vt 0.314019 0.290516
vt 0.319496 0.284027
vt 0.378650 0.284027
vt 0.378650 0.379886
vt 0.367613 0.411839
vn 0.348108 -0.837066 0.422067
vn 0.348108 -0.837066 0.422067
vn 0.348108 -0.837066 0.422067
vn 0.018051 0.999552 0.023859
vn 0.018051 0.999552 0.023859
vn 0.018051 0.999552 0.023859
vn 0.018051 0.999552 0.023859
vn -0.996846 0.079357 0.001156
vn -0.996846 0.079357 0.001156
vn -0.996846 0.079357 0.001156
vn -0.996846 0.079357 0.001156
vn -0.043530 -0.037674 -0.998342
vn -0.083190 -0.126010 -0.988535
vn -0.029849 -0.007330 -0.999528
vn -0.029849 -0.007330 -0.999528
vn 1.000000 -0.000003 0.000000
vn 1.000000 -0.000003 0.000000
vn 1.000000 -0.000003 0.000000
vn 1.000000 -0.000003 0.000000
vn -0.318008 0.885848 0.337852
vn -0.318008 0.885848 0.337852
vn -0.318008 0.885848 0.337852
vn 0.024426 -0.999473 0.021400
vn 0.024426 -0.999473 0.021400
vn 0.024426 -0.999473 0.021400
vn 0.024426 -0.999473 0.021400
vn -0.379576 0.781926 0.494484
vn -0.379576 0.781926 0.494484
vn -0.379576 0.781926 0.494484
vn 0.372779 0.807119 0.457815
vn 0.372779 0.807119 0.457815
vn 0.372780 0.807119 0.457815
vn 0.342252 0.733228 -0.587572
vn 0.342252 0.733228 -0.587572
vn 0.342252 0.733228 -0.587572
vn 0.548254 0.697125 -0.461989
vn 0.548254 0.697125 -0.461989
vn 0.548254 0.697125 -0.461989
vn -0.510691 -0.796873 0.322783
vn -0.510691 -0.796873 0.322783
vn -0.510691 -0.796873 0.322783
vn -0.049646 -0.998551 -0.020775
vn -0.049646 -0.998551 -0.020775
vn -0.049646 -0.998551 -0.020775
vn -0.049646 -0.998551 -0.020775
vn 1.000000 0.000002 0.000000
vn 1.000000 0.000002 0.000000
vn 1.000000 0.000002 0.000000
vn 1.000000 0.000002 0.000000
vn -0.339984 0.843050 0.416747
vn -0.339984 0.843050 0.416747
vn -0.339984 0.843050 0.416747
vn 0.412641 0.831257 0.372476
vn 0.412641 0.831257 0.372476
vn 0.412641 0.831257 0.372476
vn -0.404800 -0.836672 0.368941
vn -0.404800 -0.836672 0.368941
vn -0.404800 -0.836672 0.368941
vn 0.219241 -0.900624 0.375247
vn 0.219241 -0.900624 0.375247
vn 0.219241 -0.900624 0.375247
vn 0.404285 0.844281 -0.351772
vn 0.404285 0.844281 -0.351772
vn 0.404285 0.844281 -0.351772
vn -0.405008 -0.843689 -0.352359
vn -0.405008 -0.843690 -0.352359
vn -0.405008 -0.843689 -0.352359
vn 0.390819 -0.750082 0.533514
vn 0.390819 -0.750082 0.533514
vn 0.390819 -0.750082 0.533514
vn 0.110695 0.993842 -0.005024
vn 0.110695 0.993842 -0.005024
vn 0.110695 0.993842 -0.005024
vn 0.110695 0.993842 -0.005024
vn -0.994645 -0.088707 0.053031
vn -0.994645 -0.088707 0.053031
vn -0.994645 -0.088707 0.053031
vn -0.994645 -0.088707 0.053031
vn 0.395090 0.848571 0.351898
vn 0.395090 0.848571 0.351897
vn 0.395090 0.848571 0.351897
vn 0.314684 0.794204 -0.519821
vn 0.314684 0.794205 -0.519821
vn 0.314684 0.794204 -0.519821
vn -0.313121 -0.882786 0.350206
vn -0.313121 -0.882786 0.350206
vn -0.313121 -0.882786 0.350206
vn -0.018370 0.999811 0.006340
vn -0.018370 0.999811 0.006340
vn -0.018370 0.999811 0.006340
vn -0.018370 0.999811 0.006340
vn -0.000001 0.000000 -1.000000
vn -0.000001 0.000000 -1.000000
vn -0.000001 0.000000 -1.000000
vn -0.000001 0.000000 -1.000000
vn 0.943526 0.327576 0.049532
vn 0.943526 0.327576 0.049532
vn 0.943526 0.327576 0.049532
vn 0.943526 0.327576 0.049532
vn -0.318944 -0.927611 0.194454
vn -0.318944 -0.927611 0.194454
vn -0.318944 -0.927611 0.194454
vn 0.984539 -0.151882 -0.087263
vn 0.984539 -0.151882 -0.087263
vn 0.984539 -0.151882 -0.087263
vn 0.984539 -0.151882 -0.087263
vn -0.366302 -0.818724 0.442170
vn -0.366302 -0.818724 0.442170
vn -0.366302 -0.818724 0.442170
vn 0.320209 0.885681 0.336207
vn 0.320209 0.885681 0.336207
vn 0.320209 0.885681 0.336207
vn 0.343305 0.816108 -0.464876
vn 0.343305 0.816108 -0.464876
vn 0.343305 0.816108 -0.464876
vn -0.324012 -0.860083 -0.394048
vn -0.324012 -0.860083 -0.394048
vn -0.324012 -0.860083 -0.394048
vn 0.298515 -0.883372 0.361307
vn 0.298515 -0.883372 0.361307
vn 0.298515 -0.883372 0.361307
vn -0.299691 0.865963 -0.400367
vn -0.299691 0.865963 -0.400367
vn -0.299691 0.865963 -0.400367
vn 0.450745 0.762783 -0.463671
vn 0.450745 0.762783 -0.463671
vn 0.450745 0.762783 -0.463671
vn -0.294746 -0.842429 0.451041
vn -0.294746 -0.842429 0.451041
vn -0.294746 -0.842429 0.451041
vn -0.038786 0.175825 0.983657
vn -0.038351 0.176969 0.983469
vn -0.075211 0.078327 0.994087
vn -0.174387 0.984677 0.000496
vn -0.174387 0.984677 0.000496
vn -0.174387 0.984677 0.000496
vn -0.174387 0.984677 0.000496
vn 0.998654 0.046401 0.023171
vn 0.998654 0.046401 0.023171
vn 0.998654 0.046401 0.023171
vn 0.998654 0.046401 0.023171
vn -0.312502 -0.904752 -0.289425
vn -0.312502 -0.904752 -0.289425
vn -0.312502 -0.904752 -0.289425
vn -0.012064 0.999857 0.011826
vn -0.012063 0.999857 0.011821
vn -0.011961 0.999864 0.011372
vn -0.011961 0.999864 0.011372
vn -0.305113 -0.891051 0.336057
vn -0.305113 -0.891051 0.336057
vn -0.305113 -0.891051 0.336057
vn 0.132905 0.087229 0.987283
vn 0.132902 0.087201 0.987286
vn 0.133002 0.088448 0.987161
vn 0.133036 0.088387 0.987162
vn -0.973036 0.228502 0.031443
vn -0.973036 0.228502 0.031443
vn -0.972220 0.232005 0.031023
vn -0.972021 0.232848 0.030922
vn 0.707296 -0.706467 -0.025236
vn 0.707296 -0.706467 -0.025236
vn 0.707296 -0.706467 -0.025236
vn 0.707296 -0.706467 -0.025236
vn 0.000416 -0.999334 -0.036487
vn 0.000428 -0.999333 -0.036513
vn 0.000391 -0.999336 -0.036431
vn 0.000391 -0.999336 -0.036431
vn -0.738628 0.023292 -0.673711
vn -0.738628 0.023292 -0.673711
vn -0.738628 0.023292 -0.673711
vn -0.738628 0.023292 -0.673711
vn -0.006137 0.095859 0.995376
vn 0.032479 -0.000445 0.999472
vn -0.005643 0.094631 0.995496
vn 0.311633 -0.797421 -0.516724
vn 0.311633 -0.797421 -0.516724
vn 0.311633 -0.797421 -0.516724
vn 0.496493 0.751599 0.434274
vn 0.496493 0.751599 0.434274
vn 0.496493 0.751599 0.434273
vn -0.423141 0.756871 -0.498095
vn -0.423141 0.756871 -0.498095
vn -0.423141 0.756871 -0.498095
vn 0.079583 0.077270 0.993829
vn 0.079613 0.077297 0.993825
vn 0.079064 0.076818 0.993905
vn 0.079064 0.076818 0.993905
vn 1.000000 0.000144 0.000086
vn 1.000000 0.000143 0.000086
vn 1.000000 0.000406 0.000246
vn -0.041747 -0.078541 0.996036
vn -0.041686 -0.078410 0.996049
vn -0.036161 -0.066508 0.997130
vn -0.052099 0.068747 0.996273
vn -0.052159 0.068901 0.996259
vn -0.049082 0.060985 0.996931
vn -0.391074 0.661752 -0.639644
vn -0.391074 0.661752 -0.639644
vn -0.391074 0.661752 -0.639644
vn 0.000000 0.000000 1.000000
vn 0.000000 0.000000 1.000000
vn 0.000000 0.000000 1.000000
vn 0.000000 0.000000 1.000000
vn -0.410346 -0.771635 -0.486000
vn -0.410347 -0.771635 -0.486000
vn -0.410346 -0.771635 -0.486000
vn -0.079743 -0.996195 -0.035163
vn -0.080525 -0.996164 -0.034237
vn -0.039012 -0.995774 -0.083145
vn 0.043641 0.056203 0.997465
vn 0.041760 0.061525 0.997232
vn 0.044858 0.052756 0.997599
vn 0.044858 0.052756 0.997599
vn -0.233518 0.889692 -0.392323
vn -0.233518 0.889692 -0.392323
vn -0.233518 0.889692 -0.392323
vn 0.008003 0.002555 0.999965
vn 0.008618 -0.000007 0.999963
vn 0.008012 0.002520 0.999965
vn 0.267296 0.029471 -0.963164
vn 0.267961 0.013522 -0.963335
vn 0.268088 0.010270 -0.963340
vn 0.268088 0.010270 -0.963340
vn -0.728800 0.684495 0.017807
vn -0.728800 0.684495 0.017807
vn -0.728800 0.684495 0.017807
vn -0.728800 0.684495 0.017807
vn 0.999385 0.011839 0.032999
vn 0.999386 0.011272 0.033166
vn 0.999360 0.016984 0.031491
vn 0.999360 0.016984 0.031491
vn 0.040701 -0.066864 0.996932
vn 0.040701 -0.066864 0.996932
vn 0.037722 -0.070216 0.996818
vn 0.038126 -0.069762 0.996835
vn -0.099267 -0.994311 0.038632
vn -0.099041 -0.994324 0.038879
vn -0.035393 -0.993553 0.107700
vn 0.019427 -0.999763 0.009790
vn 0.018991 -0.999767 0.010242
vn 0.018991 -0.999767 0.010242
vn 0.019890 -0.999759 0.009312
vn 0.156913 0.031267 0.987117
vn 0.140262 0.076354 0.987166
vn 0.140262 0.076354 0.987166
vn 0.147945 0.055682 0.987427
vn -0.436918 0.827022 -0.353748
vn -0.436918 0.827022 -0.353748
vn -0.436918 0.827022 -0.353748
vn -0.230027 0.843298 0.485732
vn -0.230027 0.843298 0.485732
vn -0.230027 0.843298 0.485732
vn 0.022470 -0.015786 0.999623
vn 0.022076 -0.022068 0.999513
vn 0.021662 -0.028640 0.999355
vn 0.021662 -0.028640 0.999355
vn -0.447813 0.677626 -0.583341
vn -0.447814 0.677626 -0.583341
vn -0.447813 0.677626 -0.583341
vn 0.032515 -0.971356 -0.235395
vn 0.032988 -0.971210 -0.235932
vn 0.032988 -0.971210 -0.235932
vn 0.032322 -0.971415 -0.235175
vn 0.003476 0.216709 0.976230
vn 0.003528 0.216858 0.976197
vn 0.003577 0.217000 0.976165
vn 0.003577 0.217000 0.976165
vn -0.999993 -0.003690 0.000773
vn -0.999981 -0.006106 0.001293
vn -0.999993 -0.003759 0.000788
vn 0.024954 -0.009872 0.999640
vn 0.024954 -0.009872 0.999640
vn 0.024557 -0.011004 0.999638
vn 0.024803 -0.010304 0.999639
vn -0.001457 0.124244 0.992251
vn 0.003258 0.109807 0.993948
vn -0.001376 0.123994 0.992282
vn 0.290527 -0.841228 -0.455993
vn 0.290528 -0.841228 -0.455993
vn 0.290527 -0.841228 -0.455993
vn 0.069687 -0.994487 0.078351
vn 0.067723 -0.994453 0.080481
vn 0.067723 -0.994453 0.080481
vn 0.070282 -0.994496 0.077706
vn -0.010792 -0.161358 0.986837
vn -0.010564 -0.160765 0.986936
vn -0.010478 -0.160543 0.986973
vn -0.010478 -0.160543 0.986973
vn -0.522366 0.771580 -0.363038
vn -0.522366 0.771580 -0.363039
vn -0.522366 0.771580 -0.363038
vn 0.623370 0.781368 0.029549
vn 0.623370 0.781368 0.029549
vn 0.623370 0.781368 0.029549
vn 0.623370 0.781368 0.029549
vn 0.995197 0.091580 0.034595
vn 0.996088 0.088242 -0.004669
vn 0.996088 0.088242 -0.004669
vn 0.995233 0.091507 0.033719
vn 0.006157 -0.999962 0.006182
vn 0.006136 -0.999955 0.007308
vn 0.006139 -0.999955 0.007178
vn 0.006157 -0.999962 0.006182
vn 0.029628 -0.075819 -0.996681
vn 0.029628 -0.075819 -0.996681
vn 0.029123 -0.074527 -0.996794
vn 0.029413 -0.075268 -0.996730
vn 0.044288 0.997828 0.048773
vn 0.044450 0.997845 0.048268
vn 0.051587 0.997151 0.055029
vn -0.007020 0.222871 -0.974823
vn -0.007017 0.222868 -0.974824
vn -0.007017 0.222867 -0.974824
vn -0.007017 0.222867 -0.974824
vn -0.992351 -0.123447 -0.000116
vn -0.992351 -0.123449 -0.000101
vn -0.992397 -0.123009 -0.004219
vn -0.992397 -0.123009 -0.004219
vn 0.994032 0.099861 0.043919
vn 0.994032 0.099861 0.043919
vn 0.993775 0.099782 0.049547
vn 0.993838 0.099801 0.048218
vn -0.025089 0.999179 -0.031803
vn -0.025099 0.999188 -0.031526
vn -0.025102 0.999191 -0.031410
vn -0.025089 0.999179 -0.031803
vn -0.028797 -0.173329 -0.984443
vn -0.028893 -0.173548 -0.984402
vn -0.028732 -0.173181 -0.984471
vn -0.028732 -0.173181 -0.984471
vn -0.140993 -0.990001 -0.004345
vn -0.140993 -0.990001 -0.004345
vn -0.140993 -0.990001 -0.004345
vn -0.140993 -0.990001 -0.004345
vn -1.000000 0.000800 0.000314
vn -1.000000 0.000800 0.000314
vn -1.000000 0.000800 0.000314
vn -1.000000 0.000800 0.000314
vn 0.137722 0.990334 -0.016479
vn 0.137714 0.990330 -0.016777
vn 0.137677 0.990310 -0.018197
vn 0.137677 0.990310 -0.018197
vn -0.102787 -0.410771 -0.905926
vn -0.103213 -0.409806 -0.906314
vn -0.103425 -0.409325 -0.906508
vn -0.103425 -0.409325 -0.906508
vn -0.997827 -0.065879 -0.001096
vn -0.997827 -0.065879 -0.001096
vn -0.997828 -0.065867 -0.001035
vn -0.997829 -0.065852 -0.000957
vn 1.000000 0.000000 0.000000
vn 1.000000 0.000000 0.000000
vn 1.000000 0.000000 0.000000
vn 1.000000 0.000000 0.000000
vn 0.015310 0.999775 0.014662
vn 0.015118 0.999776 0.014831
vn 0.031992 0.999488 0.000000
vn 0.218399 0.056545 -0.974220
vn 0.226596 0.038325 -0.973234
vn 0.234769 0.019940 -0.971847
vn 0.234769 0.019940 -0.971847
vn -0.135903 -0.990601 -0.015477
vn -0.135906 -0.990600 -0.015498
vn -0.135887 -0.990605 -0.015356
vn -0.135887 -0.990605 -0.015356
vn -1.000000 -0.000001 0.000000
vn -1.000000 -0.000001 0.000000
vn -1.000000 0.000001 0.000000
vn -1.000000 0.000001 0.000000
vn 0.524936 0.745149 -0.411333
vn 0.524936 0.745149 -0.411333
vn 0.524936 0.745149 -0.411333
vn -1.000000 -0.000000 0.000000
vn -1.000000 0.000001 0.000000
vn -1.000000 0.000003 0.000000
vn -1.000000 0.000003 0.000000
vn 0.129500 0.991403 0.018716
vn 0.129479 0.991406 0.018717
vn 0.126190 0.991828 0.018785
vn 0.126190 0.991828 0.018785
vn 0.994753 0.096222 0.034755
vn 0.994726 0.096159 0.035675
vn 0.992868 0.093467 0.074014
vn 0.992868 0.093467 0.074014
vn 0.034563 -0.134919 -0.990254
vn 0.080202 -0.129675 -0.988308
vn 0.080202 -0.129675 -0.988308
vn 0.034410 -0.134936 -0.990257
vn 1.000000 0.000000 0.000000
vn 1.000000 0.000000 0.000000
vn 1.000000 0.000000 0.000000
vn 1.000000 0.000000 0.000000
vn 0.078437 0.995670 0.049890
vn 0.079419 0.995649 0.048741
vn 0.079816 0.995640 0.048277
vn 0.078437 0.995670 0.049890
vn -0.000668 0.002409 -0.999997
vn -0.000401 0.001357 -0.999999
vn -0.000289 0.000914 -1.000000
vn -0.000289 0.000914 -1.000000
vn -0.108157 -0.994067 0.011514
vn -0.102933 -0.994674 0.005289
vn -0.102933 -0.994674 0.005289
vn -0.107227 -0.994180 0.010405
vn -1.000000 -0.000001 0.000000
vn -1.000000 -0.000001 0.000000
vn -1.000000 -0.000002 0.000000
vn -1.000000 -0.000002 0.000000
vn 0.998600 -0.046016 0.026081
vn 0.998610 -0.046438 0.024922
vn 0.998577 -0.052811 0.007400
vn 0.998577 -0.052811 0.007400
vn 0.029293 0.999485 -0.013071
vn 0.029428 0.999482 -0.013061
vn 0.008169 0.999859 -0.014665
vn 0.008169 0.999859 -0.014665
vn 0.000000 0.000000 -1.000000
vn 0.000000 0.000000 -1.000000
vn 0.000000 0.000000 -1.000000
vn 0.000000 0.000000 -1.000000
vn -0.999383 0.000003 -0.035119
vn -0.999383 -0.000003 -0.035119
vn -0.999383 -0.000006 -0.035119
vn -0.999383 -0.000006 -0.035119
vn -0.003239 0.973066 0.230505
vn -0.003353 0.973799 0.227385
vn -0.003352 0.973793 0.227410
vn -0.003239 0.973066 0.230505
vn -0.380944 -0.693777 -0.611192
vn -0.380943 -0.693777 -0.611192
vn -0.380943 -0.693777 -0.611192
vn 0.000000 0.000000 -1.000000
vn 0.000000 0.000000 -1.000000
vn 0.000000 0.000000 -1.000000
vn 0.000000 0.000000 -1.000000
vn -0.010516 -0.999919 0.007240
vn -0.010590 -0.999911 0.008112
vn -0.010399 -0.999929 0.005855
vn -0.010399 -0.999929 0.005855
vn -0.998823 -0.038487 -0.029517
vn -0.998882 -0.036943 -0.029502
vn -0.997336 -0.066592 -0.029785
vn -0.997336 -0.066592 -0.029785
vn 0.996490 0.004261 -0.083606
vn 0.996492 0.004257 -0.083578
vn 0.996622 0.004029 -0.082033
vn 0.996622 0.004029 -0.082033
vn 0.019560 0.999738 -0.011929
vn 0.019322 0.999781 -0.008086
vn 0.019335 0.999779 -0.008291
vn 0.019560 0.999738 -0.011929
vn 0.009883 -0.139149 -0.990222
vn -0.010781 -0.078773 -0.996834
vn -0.020636 -0.049821 -0.998545
vn -0.020636 -0.049821 -0.998545
vn -0.051153 -0.995165 -0.083841
vn 0.008710 -0.999847 -0.015156
vn 0.007821 -0.999839 -0.016177
vn -0.990043 0.120070 -0.073475
vn -0.990043 0.120065 -0.073477
vn -0.990058 0.119897 -0.073548
vn -0.990058 0.119897 -0.073548
vn 0.014898 0.999874 0.005474
vn 0.013136 0.999909 0.003191
vn 0.013136 0.999909 0.003191
vn 0.015255 0.999866 0.005936
vn -0.987137 0.133222 -0.088389
vn -0.986931 0.134393 -0.088913
vn -0.995613 0.071279 -0.060612
vn 0.985415 0.168568 -0.023293
vn 0.985411 0.168674 -0.022679
vn 0.985385 0.169232 -0.019413
vn 0.985385 0.169232 -0.019413
vn 0.018707 -0.999825 -0.000472
vn 0.018697 -0.999825 -0.000158
vn 0.020658 -0.997938 -0.060775
vn 0.020658 -0.997938 -0.060775
vn -0.000436 -0.001221 -0.999999
vn -0.000170 -0.000476 -1.000000
vn -0.000170 -0.000476 -1.000000
vn -0.000280 -0.000785 -1.000000
vn 0.993650 0.011196 -0.111956
vn 0.993650 0.011196 -0.111956
vn 0.993674 0.010869 -0.111780
vn 0.993661 0.011039 -0.111871
vn -0.007758 0.999896 0.012144
vn -0.007219 0.999900 0.012140
vn -0.019811 0.999729 0.012247
vn -0.019811 0.999729 0.012247
vn 0.077428 0.056625 -0.995389
vn 0.077472 0.056619 -0.995386
vn 0.079930 0.056269 -0.995211
vn 0.079930 0.056269 -0.995211
vn -0.987151 0.157718 -0.025652
vn -0.985275 0.170040 -0.017883
vn -0.982819 0.184361 -0.008819
vn -0.982819 0.184361 -0.008819
vn -0.000000 0.000000 -1.000000
vn -0.000000 0.000000 -1.000000
vn 0.000000 0.000000 -1.000000
vn -0.000000 -0.998610 0.052715
vn -0.027054 -0.999356 0.023563
vn -0.027348 -0.999356 0.023246
vn -0.995831 0.086880 0.027791
vn -0.995739 0.087832 0.028096
vn -0.995658 0.088659 0.028361
vn -0.995658 0.088659 0.028361
vn 0.132018 0.079900 0.988022
vn 0.132018 0.079900 0.988022
vn -0.100767 -0.165344 -0.981075
vn 0.000795 -0.999303 -0.037328
vn 0.000795 -0.999303 -0.037328
vn 0.045027 0.998022 0.043875
vn 0.044165 0.997863 0.048151
vn 0.045027 0.998022 0.043875
vn 0.044077 0.997846 0.048591
vn 0.079648 0.077327 0.993819
vn 0.079648 0.077327 0.993819
vn -0.992349 -0.123467 0.000075
vn -0.992349 -0.123467 0.000075
vn -0.007119 0.223021 -0.974788
vn 1.000000 0.000140 0.000084
vn 1.000000 0.000140 0.000084
vn -0.025167 0.999249 -0.029483
vn -0.025167 0.999248 -0.029483
vn -0.041811 -0.078679 0.996023
vn -0.041811 -0.078679 0.996023
vn -0.034971 -0.187402 -0.981661
vn 0.138018 0.990419 -0.004707
vn 0.138018 0.990418 -0.004707
vn -0.083097 -0.454503 -0.886861
vn -0.052188 0.068976 0.996252
vn -0.052188 0.068976 0.996252
vn 1.000000 0.000000 0.000000
vn 0.203342 0.089462 -0.975012
vn 0.203342 0.089462 -0.975012
vn -1.000000 -0.000021 0.000000
vn -1.000000 -0.000021 0.000000
vn 0.000000 0.000000 1.000000
vn 0.015005 0.999776 0.014930
vn 0.015005 0.999776 0.014930
vn 0.130010 0.991334 0.018842
vn 0.134793 0.990540 0.025709
vn 0.130058 0.991326 0.018910
vn -1.000000 -0.000003 0.000000
vn -1.000000 -0.000003 0.000000
vn 0.040137 0.066112 0.997005
vn 0.040137 0.066112 0.997005
vn 0.994824 0.096399 0.032149
vn 0.994823 0.096399 0.032149
vn 0.031286 -0.135284 -0.990313
vn 0.031286 -0.135284 -0.990313
vn 0.007999 0.002572 0.999965
vn 0.007999 0.002572 0.999965
vn -1.000000 0.000045 0.000000
vn -0.000803 0.002940 -0.999995
vn -0.000803 0.002940 -0.999995
vn 1.000000 0.000000 0.000000
vn 1.000000 0.000000 0.000000
vn 0.120834 0.992673 0.000000
vn 0.233644 0.386880 -0.892039
vn 0.965007 -0.240043 0.105545
vn 0.034882 -0.073410 0.996692
vn 0.034882 -0.073410 0.996692
vn 0.033443 0.999379 -0.011121
vn 0.070982 0.996990 0.031197
vn 0.033024 0.999387 -0.011593
vn 0.161302 0.019205 0.986718
vn 0.161302 0.019205 0.986718
vn -0.999383 0.000006 -0.035119
vn -0.999383 0.000006 -0.035119
vn 0.000000 0.000000 -1.000000
vn 0.000000 0.000000 -1.000000
vn 0.998590 -0.045633 0.027132
vn 0.998590 -0.045633 0.027132
vn -0.002559 0.199168 0.979962
vn -0.999993 -0.003669 0.000769
vn -0.999993 -0.003669 0.000769
vn -0.003371 0.973911 0.226906
vn -0.003371 0.973911 0.226906
vn 0.000000 0.000000 -1.000000
vn 0.000000 0.000000 -1.000000
vn -0.999646 -0.007147 -0.025644
vn -0.999195 -0.027810 -0.028899
vn -0.999203 -0.027574 -0.028861
vn -0.999646 -0.007147 -0.025644
vn 0.024811 0.021823 0.999454
vn 0.024811 0.021823 0.999454
vn 0.017707 0.999683 0.017883
vn 0.017707 0.999683 0.017883
vn 0.996481 0.004277 -0.083712
vn 0.996481 0.004277 -0.083712
vn -0.010271 -0.109842 0.993896
vn -0.988361 0.136901 -0.066344
vn 0.025403 -0.184195 -0.982562
vn 0.025403 -0.184195 -0.982561
vn 0.083671 0.991983 0.094711
vn -0.986820 0.135020 -0.089194
vn -0.986820 0.135020 -0.089194
vn -0.001497 0.124365 0.992236
vn -0.001497 0.124365 0.992236
vn 0.984560 0.160306 -0.070312
vn 0.984560 0.160306 -0.070312
vn -0.000504 -0.001413 -0.999999
vn -0.000504 -0.001413 -0.999999
vn -0.005864 0.999909 0.012128
vn -0.005864 0.999909 0.012128
vn 0.994373 0.000038 -0.105934
vn -0.018972 -0.182537 0.983016
vn -0.989162 0.142555 -0.035176
vn -0.989162 0.142555 -0.035176
vn 0.049338 0.060597 -0.996942
vn 0.049338 0.060597 -0.996942
vn -0.038272 0.177179 0.983434
vn -0.038272 0.177179 0.983434
vn -0.000000 0.000000 -1.000000
vn 0.000000 0.000000 -1.000000
vn -0.000000 0.000000 -1.000000
vn -1.000000 0.000000 0.000000
vn -0.027939 -0.999354 0.022609
vn -0.027939 -0.999354 0.022609
vn 0.137446 -0.990501 0.004059
vn 0.018377 -0.999786 0.009535
vn 0.018377 -0.999786 0.009535
vn 0.010291 -0.999858 -0.013339
vn 0.010291 -0.999858 -0.013339
vn -0.011321 -0.999795 0.016796
vn -0.011321 -0.999795 0.016796
vn 0.012551 -0.977052 -0.212633
vn 0.041149 -0.999072 -0.012695
vn -0.100537 -0.994236 0.037246
vn -0.100537 -0.994236 0.037246
vn -0.113190 -0.993419 0.017519
vn -0.113190 -0.993419 0.017519
vn -0.080789 -0.996154 -0.033924
vn -0.080789 -0.996154 -0.033924
vn -0.135991 -0.990579 -0.016115
vn -0.135991 -0.990579 -0.016115
vn 0.006011 -0.999882 0.014116
vn 0.006011 -0.999882 0.014116
vn -0.012070 0.999857 0.011852
vn -0.012070 0.999857 0.011852
vn 0.995073 0.091815 0.037417
vn 0.995073 0.091815 0.037417
vn 0.990962 0.099119 0.090383
vn 0.990962 0.099119 0.090383
vn 0.000001 0.000000 -1.000000
vn -0.006415 0.096548 0.995308
vn -0.006415 0.096548 0.995308
vn 0.128833 0.095832 0.987025
vn -0.966747 0.254159 0.028347
vn -0.966747 0.254159 0.028347
vn -0.997838 -0.065715 -0.000259
vn -0.997838 -0.065715 -0.000259
s off
g Wall_W_Decor_Corner_Bricks
usemtl initialShadingGroup
f 95/182/1 94/183/2 93/184/3
f 2/190/4 3/191/5 5/192/6 4/193/7
f 6/1/8 1/2/9 2/3/10 4/4/11
s 1
f 87/394/12 90/391/13 8/392/14 88/393/15
s off
f 86/5/16 88/6/17 8/7/18 7/8/19
f 81/194/20 80/195/21 79/196/22
f 12/201/23 13/202/24 10/203/25 9/204/26
f 98/205/27 97/206/28 96/207/29
f 103/215/30 104/216/31 102/217/32
f 163/219/33 162/222/34 161/220/35
f 169/89/36 170/88/37 168/91/38
f 109/95/39 110/94/40 108/98/41
f 28/223/42 29/224/43 25/225/44 24/226/45
f 25/11/46 29/12/47 27/13/48 26/14/49
f 107/227/50 106/228/51 105/229/52
f 112/235/53 113/236/54 111/237/55
f 115/244/56 116/245/57 114/246/58
f 119/250/59 118/251/60 117/252/61
f 181/258/62 182/259/63 180/260/64
f 185/253/65 184/257/66 183/254/67
f 126/369/68 125/372/69 124/370/70
f 123/264/71 121/265/72 40/266/73 41/267/74
f 42/15/75 39/16/76 120/17/77 122/18/78
f 128/268/79 129/269/80 127/270/81
f 188/272/82 187/276/83 186/273/84
f 131/278/85 132/279/86 130/280/87
f 49/284/88 50/285/89 52/286/90 51/287/91
f 51/395/92 52/396/93 54/397/94 53/398/95
f 48/21/96 54/22/97 52/23/98 50/24/99
f 140/288/100 141/289/101 139/290/102
f 55/25/103 58/26/104 57/27/105 56/28/106
f 134/294/107 135/295/108 133/296/109
f 143/302/110 144/303/111 142/304/112
f 200/306/113 199/309/114 198/307/115
f 203/310/116 202/311/117 201/312/118
f 147/316/119 146/317/120 145/318/121
f 206/324/122 205/325/123 204/326/124
f 211/330/125 212/331/126 210/332/127
f 149/337/128 150/338/129 148/339/130
s 2
f 151/402/131 75/400/132 152/401/133
s off
f 76/343/134 151/344/135 154/345/136 77/346/137
f 75/29/138 78/30/139 153/31/140 152/32/141
f 218/347/142 217/348/143 216/349/144
s 3
f 79/196/145 90/199/146 89/200/147 81/194/148
s off
f 83/353/149 84/354/150 82/355/151
s 4
f 79/409/152 82/405/153 85/406/154 7/408/155
s 5
f 89/35/156 91/36/157 84/37/158 81/40/159
s off
f 86/5/160 85/9/161 87/10/162 88/6/163
s 6
f 82/355/164 92/357/165 87/358/166 85/359/167
s off
f 89/35/168 90/41/169 92/42/170 91/36/171
s 7
f 1/411/172 93/412/173 94/413/174
s off
f 156/189/175 157/187/176 155/186/177
f 101/208/178 99/213/179 100/209/180
f 159/214/181 160/212/182 158/211/183
s 8
f 97/421/184 99/418/185 101/419/186 96/420/187
s 9
f 99/47/188 11/45/189 100/46/190
s 10
f 16/426/191 103/424/192 102/425/193
s 11
f 106/431/194 26/429/195 105/430/196
s off
f 166/234/197 167/233/198 165/232/199
s 12
f 109/432/200 19/434/201 21/435/202 20/436/203
s off
f 173/360/204 172/361/205 171/362/206
s 13
f 116/245/207 30/249/208 114/246/209
s 14
f 115/437/210 112/440/211 111/441/212 31/442/213
s off
f 176/243/214 175/242/215 174/241/216
s 15
f 34/443/217 117/444/218 118/445/219
s 16
f 122/448/220 41/450/221 43/451/222 42/452/223
s off
f 120/17/224 121/19/225 123/20/226 122/18/227
s 17
f 125/48/228 43/50/229 41/51/230 40/52/231
s 18
f 39/453/232 124/454/233 125/455/234 120/458/235
s 19
f 124/370/236 43/368/237 126/369/238
s 20
f 46/281/239 47/282/240 44/283/241 130/280/242
s 21
f 131/459/243 130/460/244 44/461/245 128/462/246
s off
f 191/277/247 190/275/248 189/274/249
f 137/373/250 138/374/251 136/375/252
s 22
f 136/469/253 133/466/254 55/467/255 56/468/256
s off
f 193/380/257 194/379/258 192/378/259
s 23
f 53/291/260 54/292/261 48/293/262 139/290/263
s 24
f 140/471/264 48/473/265 50/474/266 49/475/267
s 25
f 53/53/268 141/54/269 140/55/270
s 26
f 59/476/271 60/477/272 143/478/273 61/480/274
s 27
f 64/481/275 145/482/276 146/483/277
s off
f 208/323/278 209/321/279 207/320/280
s 28
f 72/340/281 73/341/282 69/342/283 148/339/284
s 29
f 149/486/285 69/488/286 71/489/287 70/490/288
s off
f 215/175/289 214/174/290 213/176/291
f 151/33/292 152/32/293 153/31/294 154/34/295
s 30
f 94/58/296 95/59/297 157/60/298 156/61/299
s 31
f 6/185/300 155/186/301 93/184/302 1/188/303
s 32
f 4/491/304 5/492/305 156/493/306 6/495/307
s 33
f 100/209/308 96/207/309 101/208/310
s 34
f 159/496/311 11/498/312 13/499/313 12/500/314
s 35
f 159/69/315 97/66/316 98/67/317 160/68/318
s 36
f 15/70/319 18/71/320 162/72/321 103/75/322
s 37
f 16/218/323 102/217/324 161/220/325 17/221/326
s 38
f 17/501/327 162/503/328 18/504/329 164/505/330
s off
f 164/381/331 18/382/332 15/383/333 14/384/334
f 164/76/335 14/77/336 16/78/337 17/79/338
s 39
f 165/232/339 105/229/340 26/230/341 27/231/342
s 40
f 166/506/343 27/508/344 29/509/345 28/510/346
s 41
f 28/80/347 24/81/348 106/82/349 166/85/350
s 42
f 19/86/351 23/87/352 170/88/353 21/90/354
s 43
f 168/388/355 21/386/356 169/387/357
s 44
f 172/516/358 170/513/359 23/514/360 171/515/361
s 45
f 108/365/362 171/362/363 23/363/364 19/364/365
s 46
f 172/92/366 109/95/367 20/96/368 22/97/369
s off
f 179/111/370 178/108/371 177/107/372
s 47
f 176/104/373 115/101/374 31/102/375 175/103/376
s 48
f 175/242/377 178/239/378 179/240/379 174/241/380
s 49
f 112/110/381 177/107/382 178/108/383 113/109/384
s 50
f 176/517/385 174/518/386 179/519/387 177/520/388
s 51
f 118/112/389 119/113/390 38/114/391 182/115/392
s 52
f 35/261/393 36/262/394 180/260/395 37/263/396
s 53
f 184/528/397 182/525/398 38/526/399 183/527/400
s 54
f 185/253/401 183/254/402 38/255/403 119/250/404
s 55
f 184/118/405 34/120/406 35/121/407 37/122/408
s 56
f 128/128/409 187/125/410 188/126/411 129/127/412
s 57
f 190/275/413 188/272/414 186/273/415 189/274/416
s 58
f 191/529/417 189/530/418 186/531/419 187/532/420
s 59
f 190/133/421 132/130/422 131/131/423 45/132/424
s 60
f 137/373/425 136/375/426 192/378/427 194/379/428
s off
f 196/297/429 197/301/430 195/298/431
s 61
f 193/535/432 192/536/433 195/539/434 197/540/435
s 62
f 133/296/436 195/298/437 58/299/438 55/300/439
s 63
f 137/140/440 135/137/441 134/138/442 138/139/443
s 64
f 143/148/444 199/145/445 200/146/446 144/147/447
s 65
f 61/305/448 142/304/449 198/307/450 62/308/451
s 66
f 202/546/452 199/543/453 63/544/454 201/545/455
s 67
f 203/310/456 201/312/457 59/315/458
s 68
f 202/149/459 59/151/460 61/152/461 62/153/462
s 69
f 65/327/463 66/328/464 67/329/465 204/326/466
s 70
f 206/158/467 65/156/468 205/157/469
s 71
f 146/159/470 208/162/471 67/163/472 66/164/473
s 72
f 145/318/474 207/320/475 209/321/476 147/316/477
s 73
f 206/547/478 204/548/479 67/549/480 208/550/481
s 74
f 69/165/482 73/166/483 212/167/484 71/169/485
s 75
f 214/336/486 211/330/487 210/332/488 213/335/489
s 76
f 215/553/490 212/556/491 73/557/492 72/558/493
s 77
f 214/174/494 150/171/495 149/172/496 70/173/497
s 78
f 217/564/498 78/562/499 216/563/500
s 79
f 218/347/501 216/349/502 74/352/503
s 80
f 217/177/504 74/179/505 76/180/506 77/181/507
s 4
f 83/404/508 82/405/153 79/409/152 80/410/509
s 1
f 92/390/510 90/391/13 87/394/12
s 6
f 91/356/511 92/357/165 82/355/164 84/354/512
s 33
f 98/205/513 96/207/309 158/211/514 160/212/515
f 158/211/514 96/207/309 100/209/308 11/210/516
s 8
f 9/416/517 10/417/518 99/418/185 97/421/184
s 35
f 12/64/519 9/65/520 97/66/316 159/69/315
s 34
f 159/496/311 158/497/521 11/498/312
s 9
f 10/43/522 13/44/523 11/45/189 99/47/188
s 37
f 161/220/325 102/217/324 104/216/524 163/219/525
s 10
f 14/422/526 15/423/527 103/424/192 16/426/191
s 38
f 17/501/327 161/502/528 162/503/328
s 39
f 107/227/529 105/229/340 165/232/339 167/233/530
s 40
f 166/506/343 165/507/531 27/508/344
s 11
f 24/427/532 25/428/533 26/429/195 106/431/194
s 42
f 21/90/354 170/88/353 169/89/534
s 44
f 22/511/535 168/512/536 170/513/359 172/516/358
s 46
f 172/92/366 173/93/537 110/94/538 109/95/367
s 12
f 109/432/200 108/433/539 19/434/201
s 43
f 20/385/540 21/386/356 168/388/355 22/389/541
s 48
f 31/238/542 111/237/543 113/236/544
f 31/238/542 113/236/544 178/239/378 175/242/377
s 47
f 32/99/545 116/100/546 115/101/374 176/104/373
s 14
f 115/437/210 114/438/547 30/439/548 112/440/211
s 49
f 30/105/549 33/106/550 177/107/382 112/110/381
s 50
f 176/517/385 177/520/388 33/521/551 32/522/552
s 15
f 34/443/217 118/445/219 36/446/553 35/447/554
s 55
f 184/118/405 185/119/555 34/120/406
s 53
f 37/523/556 180/524/557 182/525/398 184/528/397
s 51
f 118/112/389 182/115/392 181/116/558 36/117/559
s 52
f 180/260/395 36/262/394 181/258/560
s 16
f 122/448/220 123/449/561 41/450/221
s 17
f 125/48/228 126/49/562 43/50/229
s 18
f 120/458/235 125/455/234 40/456/563 121/457/564
s 57
f 45/271/565 127/270/566 129/269/567
f 45/271/565 129/269/567 188/272/414 190/275/413
s 21
f 131/459/243 128/462/246 127/463/568 45/464/569
s 59
f 46/129/570 132/130/422 190/133/421 191/134/571
s 58
f 191/529/417 187/532/420 47/533/572 46/534/573
s 56
f 44/123/574 47/124/575 187/125/410 128/128/409
s 24
f 140/471/264 139/472/576 48/473/265
s 25
f 53/53/268 140/55/270 49/56/577 51/57/578
s 60
f 192/378/427 136/375/426 56/376/579 57/377/580
s 61
f 195/539/434 192/536/433 57/537/581 58/538/582
s 63
f 197/135/583 196/136/584 194/141/585 193/142/586
f 194/141/585 196/136/584 135/137/441 137/140/440
s 22
f 134/465/587 133/466/254 136/469/253 138/470/588
s 65
f 198/307/450 142/304/449 144/303/589 200/306/590
s 64
f 60/143/591 63/144/592 199/145/445 143/148/444
s 26
f 61/480/274 143/478/273 142/479/593
s 68
f 202/149/459 203/150/594 59/151/460
s 66
f 62/541/595 198/542/596 199/543/453 202/546/452
s 69
f 65/327/463 204/326/466 205/325/597
s 70
f 68/154/598 64/155/599 65/156/468 206/158/467
s 27
f 64/481/275 146/483/277 66/484/600 65/485/601
s 71
f 146/159/470 147/160/602 209/161/603 208/162/471
s 73
f 206/547/478 208/550/481 207/551/604 68/552/605
s 75
f 70/333/606 71/334/607 211/330/487 214/336/486
s 74
f 71/169/485 212/167/484 211/168/608
s 29
f 149/486/285 148/487/609 69/488/286
s 77
f 72/170/610 150/171/495 214/174/494 215/175/611
s 76
f 215/553/490 213/554/612 210/555/613 212/556/491
s 2
f 74/399/614 75/400/132 151/402/131 76/403/615
s 78
f 78/562/499 154/560/616 153/561/617
f 77/559/618 154/560/616 78/562/499 217/564/498
s 80
f 217/177/504 218/178/619 74/179/505
s 79
f 74/352/503 216/349/502 78/350/620 75/351/621
s 28
f 72/340/281 148/339/284 150/338/622
s 72
f 68/319/623 207/320/475 145/318/474 64/322/624
s 67
f 59/315/458 201/312/457 63/313/625 60/314/626
s 62
f 196/297/627 195/298/437 133/296/436 135/295/628
s 23
f 53/291/260 139/290/263 141/289/629
s 20
f 46/281/239 130/280/242 132/279/630
s 19
f 42/367/631 43/368/237 124/370/236 39/371/632
s 54
f 185/253/401 119/250/404 117/252/633 34/256/634
s 13
f 32/247/635 33/248/636 30/249/208 116/245/207
s 45
f 173/360/637 171/362/363 108/365/362 110/366/638
s 31
f 93/184/302 155/186/301 157/187/639 95/182/640
s 3
f 7/197/641 8/198/642 90/199/146 79/196/145
s 30
f 94/58/296 156/61/299 5/62/643 3/63/644
s 36
f 103/75/322 162/72/321 163/73/645 104/74/646
s 32
f 6/495/307 156/493/306 155/494/647
s 7
f 1/411/172 94/413/174 3/414/648 2/415/649
s 4
f 7/408/155 85/406/154 86/407/650
s 5
f 81/40/159 84/37/158 83/38/651 80/39/652
s 41
f 166/85/350 106/82/349 107/83/653 167/84/654
