# This file uses centimeters as units for non-parametric coordinates.

mtllib Breakable Glass.mtl
g default
v -328.947676 0.000000 231.877991
v 328.947676 0.000000 231.877991
v -328.947676 0.000000 -231.877991
v 328.947676 0.000000 -231.877991
vt 0.000000 0.000000
vt 1.000000 0.000000
vt 0.000000 1.000000
vt 1.000000 1.000000
vn 0.000000 1.000000 0.000000
vn 0.000000 1.000000 0.000000
vn 0.000000 1.000000 0.000000
vn 0.000000 1.000000 0.000000
s off
g pPlane1
usemtl initialShadingGroup
f 1/1/1 2/2/2 4/4/3 3/3/4
