# This file uses centimeters as units for non-parametric coordinates.

mtllib Bumper+Propellor.mtl
g default
v 0.298534 -0.259570 -0.096999
v 0.253948 -0.259570 -0.184504
v 0.184504 -0.259570 -0.253948
v 0.096999 -0.259570 -0.298534
v 0.000000 -0.259570 -0.313897
v -0.096999 -0.259570 -0.298534
v -0.184504 -0.259570 -0.253948
v -0.253948 -0.259570 -0.184504
v -0.298534 -0.259570 -0.096999
v -0.313897 -0.259570 0.000000
v -0.298534 -0.259570 0.096999
v -0.253948 -0.259570 0.184504
v -0.184504 -0.259570 0.253948
v -0.096999 -0.259570 0.298534
v -0.000000 -0.259570 0.313897
v 0.096999 -0.259570 0.298533
v 0.184504 -0.259570 0.253948
v 0.253948 -0.259570 0.184504
v 0.298533 -0.259570 0.096999
v 0.313897 -0.259570 0.000000
v 0.354331 -0.259570 -0.115129
v 0.301412 -0.259570 -0.218989
v 0.218989 -0.259570 -0.301412
v 0.115129 -0.259570 -0.354331
v 0.000000 -0.259570 -0.372566
v -0.115129 -0.259570 -0.354331
v -0.218989 -0.259570 -0.301412
v -0.301412 -0.259570 -0.218989
v -0.354331 -0.259570 -0.115129
v -0.372566 -0.259570 0.000000
v -0.354331 -0.259570 0.115129
v -0.301412 -0.259570 0.218989
v -0.218989 -0.259570 0.301412
v -0.115129 -0.259570 0.354331
v -0.000000 -0.259570 0.372566
v 0.115129 -0.259570 0.354331
v 0.218989 -0.259570 0.301412
v 0.301412 -0.259570 0.218989
v 0.354331 -0.259570 0.115129
v 0.372566 -0.259570 0.000000
v 0.354331 -0.283111 -0.115129
v 0.301412 -0.283111 -0.218989
v 0.218989 -0.283111 -0.301412
v 0.115129 -0.283111 -0.354331
v 0.000000 -0.283111 -0.372566
v -0.115129 -0.283111 -0.354331
v -0.218989 -0.283111 -0.301412
v -0.301412 -0.283111 -0.218989
v -0.354331 -0.283111 -0.115129
v -0.372566 -0.283111 0.000000
v -0.354331 -0.283111 0.115129
v -0.301412 -0.283111 0.218989
v -0.218989 -0.283111 0.301412
v -0.115129 -0.283111 0.354331
v -0.000000 -0.283111 0.372566
v 0.115129 -0.283111 0.354331
v 0.218989 -0.283111 0.301412
v 0.301412 -0.283111 0.218989
v 0.354331 -0.283111 0.115129
v 0.372566 -0.283111 0.000000
v 0.298534 -0.283111 -0.096999
v 0.253948 -0.283111 -0.184504
v 0.184504 -0.283111 -0.253948
v 0.096999 -0.283111 -0.298534
v 0.000000 -0.283111 -0.313897
v -0.096999 -0.283111 -0.298534
v -0.184504 -0.283111 -0.253948
v -0.253948 -0.283111 -0.184504
v -0.298534 -0.283111 -0.096999
v -0.313897 -0.283111 0.000000
v -0.298534 -0.283111 0.096999
v -0.253948 -0.283111 0.184504
v -0.184504 -0.283111 0.253948
v -0.096999 -0.283111 0.298533
v -0.000000 -0.283111 0.313897
v 0.096999 -0.283111 0.298533
v 0.184504 -0.283111 0.253948
v 0.253948 -0.283111 0.184504
v 0.298533 -0.283111 0.096999
v 0.313897 -0.283111 0.000000
vt 0.022077 0.953675
vt 0.068534 0.952754
vt 0.116413 0.952646
vt 0.164505 0.952475
vt 0.212611 0.952255
vt 0.260712 0.952024
vt 0.308811 0.951792
vt 0.356910 0.951563
vt 0.405009 0.951337
vt 0.453108 0.951114
vt 0.501207 0.950895
vt 0.549305 0.950679
vt 0.597403 0.950467
vt 0.645501 0.950258
vt 0.693599 0.950052
vt 0.741696 0.949850
vt 0.789789 0.949649
vt 0.837867 0.949441
vt 0.885885 0.949201
vt 0.933633 0.948930
vt 0.979415 0.949994
vt 0.016621 0.936777
vt 0.067683 0.936527
vt 0.116316 0.936474
vt 0.164505 0.936285
vt 0.212621 0.936057
vt 0.260725 0.935823
vt 0.308827 0.935591
vt 0.356928 0.935362
vt 0.405029 0.935136
vt 0.453131 0.934913
vt 0.501232 0.934693
vt 0.549333 0.934477
vt 0.597435 0.934265
vt 0.645536 0.934056
vt 0.693638 0.933851
vt 0.741740 0.933649
vt 0.789841 0.933450
vt 0.837948 0.933254
vt 0.886103 0.933071
vt 0.934625 0.933017
vt 0.985518 0.933712
vt 0.016700 0.929854
vt 0.067610 0.930041
vt 0.116183 0.929908
vt 0.164358 0.929692
vt 0.212471 0.929457
vt 0.260575 0.929222
vt 0.308677 0.928990
vt 0.356780 0.928760
vt 0.404882 0.928534
vt 0.452984 0.928311
vt 0.501087 0.928092
vt 0.549190 0.927876
vt 0.597292 0.927664
vt 0.645396 0.927455
vt 0.693498 0.927250
vt 0.741602 0.927048
vt 0.789706 0.926851
vt 0.837820 0.926660
vt 0.886003 0.926503
vt 0.934606 0.926535
vt 0.985662 0.926782
vt 0.022513 0.913541
vt 0.068557 0.914106
vt 0.116374 0.913796
vt 0.164420 0.913512
vt 0.212511 0.913261
vt 0.260613 0.913022
vt 0.308718 0.912789
vt 0.356823 0.912559
vt 0.404929 0.912333
vt 0.453034 0.912110
vt 0.501140 0.911891
vt 0.549246 0.911675
vt 0.597352 0.911463
vt 0.645458 0.911254
vt 0.693564 0.911049
vt 0.741671 0.910849
vt 0.789780 0.910655
vt 0.837892 0.910478
vt 0.885994 0.910352
vt 0.933913 0.910302
vt 0.980326 0.909789
vt 0.022882 0.906930
vt 0.068744 0.907499
vt 0.116296 0.907205
vt 0.164293 0.906914
vt 0.212378 0.906660
vt 0.260480 0.906421
vt 0.308586 0.906187
vt 0.356693 0.905957
vt 0.404800 0.905731
vt 0.452907 0.905509
vt 0.501014 0.905289
vt 0.549121 0.905073
vt 0.597228 0.904861
vt 0.645336 0.904653
vt 0.693443 0.904448
vt 0.741551 0.904247
vt 0.789661 0.904053
vt 0.837771 0.903878
vt 0.885849 0.903754
vt 0.933628 0.903699
vt 0.979888 0.903178
vn 0.000000 1.000000 -0.000000
vn 0.000000 1.000000 -0.000000
vn 0.000000 1.000000 -0.000000
vn 0.000000 1.000000 -0.000000
vn 0.000000 1.000000 0.000000
vn 0.000000 1.000000 0.000000
vn 0.000000 1.000000 0.000000
vn 0.000000 1.000000 0.000000
vn 0.000000 1.000000 0.000000
vn 0.000000 1.000000 0.000000
vn 0.000000 1.000000 -0.000000
vn 0.000000 1.000000 -0.000000
vn 0.000000 1.000000 -0.000000
vn 0.000000 1.000000 -0.000000
vn 0.000000 1.000000 0.000000
vn 0.000000 1.000000 0.000000
vn 0.000000 1.000000 0.000000
vn 0.000000 1.000000 0.000000
vn 0.000000 1.000000 0.000000
vn 0.000000 1.000000 0.000000
vn 0.000000 1.000000 0.000000
vn 0.000000 1.000000 0.000000
vn 0.000000 1.000000 0.000000
vn 0.000000 1.000000 0.000000
vn 0.000000 1.000000 -0.000000
vn 0.000000 1.000000 -0.000000
vn 0.000000 1.000000 -0.000000
vn 0.000000 1.000000 -0.000000
vn 0.000000 1.000000 0.000000
vn 0.000000 1.000000 0.000000
vn 0.000000 1.000000 0.000000
vn 0.000000 1.000000 0.000000
vn 0.000000 1.000000 0.000000
vn 0.000000 1.000000 0.000000
vn 0.000000 1.000000 0.000000
vn 0.000000 1.000000 0.000000
vn 0.000000 1.000000 0.000000
vn 0.000000 1.000000 0.000000
vn 0.000000 1.000000 0.000000
vn 0.000000 1.000000 0.000000
vn 0.809017 0.000000 -0.587785
vn 0.951057 0.000000 -0.309016
vn 0.951057 0.000000 -0.309016
vn 0.809017 0.000000 -0.587785
vn 0.587785 0.000000 -0.809017
vn 0.587785 0.000000 -0.809017
vn 0.309017 0.000000 -0.951057
vn 0.309017 0.000000 -0.951057
vn 0.000000 0.000000 -1.000000
vn 0.000000 0.000000 -1.000000
vn -0.309017 0.000000 -0.951056
vn -0.309017 0.000000 -0.951056
vn -0.587786 0.000000 -0.809017
vn -0.587786 0.000000 -0.809017
vn -0.809017 0.000000 -0.587785
vn -0.809017 0.000000 -0.587785
vn -0.951057 0.000000 -0.309017
vn -0.951057 0.000000 -0.309017
vn -1.000000 0.000000 0.000000
vn -1.000000 0.000000 0.000000
vn -0.951057 0.000000 0.309017
vn -0.951057 0.000000 0.309017
vn -0.809017 0.000000 0.587785
vn -0.809017 0.000000 0.587785
vn -0.587785 0.000000 0.809017
vn -0.587785 0.000000 0.809017
vn -0.309017 0.000000 0.951057
vn -0.309017 0.000000 0.951057
vn 0.000000 0.000000 1.000000
vn 0.000000 0.000000 1.000000
vn 0.309017 0.000000 0.951057
vn 0.309017 0.000000 0.951057
vn 0.587785 0.000000 0.809017
vn 0.587785 0.000000 0.809017
vn 0.809017 0.000000 0.587785
vn 0.809017 0.000000 0.587785
vn 0.951057 0.000000 0.309017
vn 0.951057 0.000000 0.309017
vn 1.000000 0.000000 0.000001
vn 1.000000 0.000000 0.000001
vn -0.000000 -1.000000 0.000000
vn -0.000000 -1.000000 0.000000
vn -0.000000 -1.000000 0.000000
vn -0.000000 -1.000000 0.000000
vn -0.000000 -1.000000 0.000000
vn -0.000000 -1.000000 0.000000
vn -0.000000 -1.000000 0.000000
vn -0.000000 -1.000000 0.000000
vn 0.000000 -1.000000 0.000001
vn 0.000000 -1.000000 0.000001
vn 0.000000 -1.000000 0.000001
vn 0.000000 -1.000000 0.000001
vn 0.000000 -1.000000 0.000001
vn 0.000000 -1.000000 0.000001
vn 0.000000 -1.000000 0.000001
vn 0.000000 -1.000000 0.000001
vn 0.000000 -1.000000 0.000000
vn 0.000000 -1.000000 0.000000
vn 0.000001 -1.000000 -0.000000
vn 0.000001 -1.000000 -0.000000
vn 0.000000 -1.000000 -0.000000
vn 0.000000 -1.000000 -0.000000
vn 0.000000 -1.000000 -0.000000
vn 0.000000 -1.000000 -0.000000
vn 0.000000 -1.000000 -0.000001
vn 0.000000 -1.000000 -0.000001
vn 0.000000 -1.000000 -0.000001
vn 0.000000 -1.000000 -0.000001
vn -0.000000 -1.000000 -0.000001
vn -0.000000 -1.000000 -0.000001
vn -0.000000 -1.000000 -0.000000
vn -0.000000 -1.000000 -0.000000
vn -0.000000 -1.000000 -0.000000
vn -0.000000 -1.000000 -0.000000
vn -0.000000 -1.000000 -0.000000
vn -0.000000 -1.000000 -0.000000
vn -0.000000 -1.000000 -0.000000
vn -0.000000 -1.000000 -0.000000
vn -0.000001 -1.000000 0.000000
vn -0.000001 -1.000000 -0.000000
vn -0.809017 0.000001 0.587785
vn -0.951057 0.000001 0.309016
vn -0.951057 0.000001 0.309016
vn -0.809017 0.000001 0.587785
vn -0.587785 0.000001 0.809017
vn -0.587785 0.000001 0.809017
vn -0.309017 0.000001 0.951057
vn -0.309017 0.000001 0.951057
vn 0.000000 0.000001 1.000000
vn 0.000000 0.000001 1.000000
vn 0.309017 0.000001 0.951057
vn 0.309017 0.000001 0.951057
vn 0.587785 0.000002 0.809017
vn 0.587786 0.000002 0.809017
vn 0.809017 0.000002 0.587785
vn 0.809017 0.000002 0.587785
vn 0.951057 0.000002 0.309017
vn 0.951057 0.000002 0.309017
vn 1.000000 0.000002 0.000000
vn 1.000000 0.000002 0.000000
vn 0.951056 0.000002 -0.309017
vn 0.951057 0.000002 -0.309017
vn 0.809017 0.000001 -0.587785
vn 0.809017 0.000001 -0.587785
vn 0.587785 0.000001 -0.809017
vn 0.587785 0.000001 -0.809017
vn 0.309017 0.000001 -0.951057
vn 0.309017 0.000001 -0.951057
vn 0.000000 0.000001 -1.000000
vn 0.000000 0.000001 -1.000000
vn -0.309017 0.000001 -0.951056
vn -0.309017 0.000001 -0.951056
vn -0.587785 0.000001 -0.809017
vn -0.587785 0.000001 -0.809017
vn -0.809017 0.000000 -0.587785
vn -0.809017 0.000000 -0.587785
vn -0.951056 0.000000 -0.309017
vn -0.951057 0.000000 -0.309017
vn -1.000000 0.000000 -0.000001
vn -1.000000 0.000000 -0.000001
s 1
g Iron_Ring1 Merged_anim
usemtl initialShadingGroup
f 2/2/1 1/1/2 21/22/3 22/23/4
f 3/3/5 2/2/1 22/23/4 23/24/6
f 4/4/7 3/3/5 23/24/6 24/25/8
f 5/5/9 4/4/7 24/25/8 25/26/10
f 6/6/11 5/5/9 25/26/10 26/27/12
f 7/7/13 6/6/11 26/27/12 27/28/14
f 8/8/15 7/7/13 27/28/14 28/29/16
f 9/9/17 8/8/15 28/29/16 29/30/18
f 10/10/19 9/9/17 29/30/18 30/31/20
f 11/11/21 10/10/19 30/31/20 31/32/22
f 12/12/23 11/11/21 31/32/22 32/33/24
f 13/13/25 12/12/23 32/33/24 33/34/26
f 14/14/27 13/13/25 33/34/26 34/35/28
f 15/15/29 14/14/27 34/35/28 35/36/30
f 16/16/31 15/15/29 35/36/30 36/37/32
f 17/17/33 16/16/31 36/37/32 37/38/34
f 18/18/35 17/17/33 37/38/34 38/39/36
f 19/19/37 18/18/35 38/39/36 39/40/38
f 20/20/39 19/19/37 39/40/38 40/41/40
f 1/21/2 20/20/39 40/41/40 21/42/3
s 2
f 22/23/41 21/22/42 41/43/43 42/44/44
f 23/24/45 22/23/41 42/44/44 43/45/46
f 24/25/47 23/24/45 43/45/46 44/46/48
f 25/26/49 24/25/47 44/46/48 45/47/50
f 26/27/51 25/26/49 45/47/50 46/48/52
f 27/28/53 26/27/51 46/48/52 47/49/54
f 28/29/55 27/28/53 47/49/54 48/50/56
f 29/30/57 28/29/55 48/50/56 49/51/58
f 30/31/59 29/30/57 49/51/58 50/52/60
f 31/32/61 30/31/59 50/52/60 51/53/62
f 32/33/63 31/32/61 51/53/62 52/54/64
f 33/34/65 32/33/63 52/54/64 53/55/66
f 34/35/67 33/34/65 53/55/66 54/56/68
f 35/36/69 34/35/67 54/56/68 55/57/70
f 36/37/71 35/36/69 55/57/70 56/58/72
f 37/38/73 36/37/71 56/58/72 57/59/74
f 38/39/75 37/38/73 57/59/74 58/60/76
f 39/40/77 38/39/75 58/60/76 59/61/78
f 40/41/79 39/40/77 59/61/78 60/62/80
f 21/42/42 40/41/79 60/62/80 41/63/43
s 3
f 42/44/81 41/43/82 61/64/83 62/65/84
f 43/45/85 42/44/81 62/65/84 63/66/86
f 44/46/87 43/45/85 63/66/86 64/67/88
f 45/47/89 44/46/87 64/67/88 65/68/90
f 46/48/91 45/47/89 65/68/90 66/69/92
f 47/49/93 46/48/91 66/69/92 67/70/94
f 48/50/95 47/49/93 67/70/94 68/71/96
f 49/51/97 48/50/95 68/71/96 69/72/98
f 50/52/99 49/51/97 69/72/98 70/73/100
f 51/53/101 50/52/99 70/73/100 71/74/102
f 52/54/103 51/53/101 71/74/102 72/75/104
f 53/55/105 52/54/103 72/75/104 73/76/106
f 54/56/107 53/55/105 73/76/106 74/77/108
f 55/57/109 54/56/107 74/77/108 75/78/110
f 56/58/111 55/57/109 75/78/110 76/79/112
f 57/59/113 56/58/111 76/79/112 77/80/114
f 58/60/115 57/59/113 77/80/114 78/81/116
f 59/61/117 58/60/115 78/81/116 79/82/118
f 60/62/119 59/61/117 79/82/118 80/83/120
f 41/63/82 60/62/119 80/83/120 61/84/83
s 4
f 62/65/121 61/64/122 1/85/123 2/86/124
f 63/66/125 62/65/121 2/86/124 3/87/126
f 64/67/127 63/66/125 3/87/126 4/88/128
f 65/68/129 64/67/127 4/88/128 5/89/130
f 66/69/131 65/68/129 5/89/130 6/90/132
f 67/70/133 66/69/131 6/90/132 7/91/134
f 68/71/135 67/70/133 7/91/134 8/92/136
f 69/72/137 68/71/135 8/92/136 9/93/138
f 70/73/139 69/72/137 9/93/138 10/94/140
f 71/74/141 70/73/139 10/94/140 11/95/142
f 72/75/143 71/74/141 11/95/142 12/96/144
f 73/76/145 72/75/143 12/96/144 13/97/146
f 74/77/147 73/76/145 13/97/146 14/98/148
f 75/78/149 74/77/147 14/98/148 15/99/150
f 76/79/151 75/78/149 15/99/150 16/100/152
f 77/80/153 76/79/151 16/100/152 17/101/154
f 78/81/155 77/80/153 17/101/154 18/102/156
f 79/82/157 78/81/155 18/102/156 19/103/158
f 80/83/159 79/82/157 19/103/158 20/104/160
f 61/84/122 80/83/159 20/104/160 1/105/123
g default
v 0.000000 -0.442830 0.000000
v 0.000000 -0.367808 0.000000
v 0.382300 -0.382811 -0.124217
v 0.362363 -0.367808 -0.117739
v 0.325204 -0.382811 -0.236274
v 0.308244 -0.367808 -0.223953
v 0.236274 -0.382811 -0.325204
v 0.223953 -0.367808 -0.308244
v 0.124217 -0.382811 -0.382300
v 0.117739 -0.367808 -0.362363
v 0.000000 -0.382811 -0.401974
v 0.000000 -0.367808 -0.381011
v -0.124217 -0.382811 -0.382300
v -0.117739 -0.367808 -0.362363
v -0.236274 -0.382811 -0.325204
v -0.223953 -0.367808 -0.308244
v -0.325204 -0.382811 -0.236274
v -0.308244 -0.367808 -0.223953
v -0.382300 -0.382811 -0.124217
v -0.362363 -0.367808 -0.117739
v -0.401974 -0.382811 0.000000
v -0.381011 -0.367808 0.000000
v -0.382300 -0.382811 0.124217
v -0.362363 -0.367808 0.117739
v -0.325204 -0.382811 0.236274
v -0.308244 -0.367808 0.223953
v -0.236274 -0.382811 0.325204
v -0.223953 -0.367808 0.308244
v -0.124217 -0.382811 0.382300
v -0.117739 -0.367808 0.362363
v -0.000000 -0.382811 0.401974
v -0.000000 -0.367808 0.381011
v 0.124217 -0.382811 0.382300
v 0.117739 -0.367808 0.362363
v 0.236274 -0.382811 0.325204
v 0.223953 -0.367808 0.308244
v 0.325204 -0.382811 0.236274
v 0.308244 -0.367808 0.223953
v 0.382300 -0.382811 0.124217
v 0.362363 -0.367808 0.117739
v 0.401974 -0.382811 0.000000
v 0.381011 -0.367808 -0.000000
v 0.395159 -0.442830 -0.128395
v 0.399346 -0.436828 -0.129755
v 0.336142 -0.442830 -0.244222
v 0.339704 -0.436828 -0.246810
v 0.244222 -0.442830 -0.336142
v 0.246810 -0.436828 -0.339704
v 0.128395 -0.442830 -0.395159
v 0.129755 -0.436828 -0.399346
v 0.000000 -0.442830 -0.415495
v 0.000000 -0.436828 -0.419898
v -0.128395 -0.442830 -0.395159
v -0.129755 -0.436828 -0.399346
v -0.244222 -0.442830 -0.336142
v -0.246810 -0.436828 -0.339704
v -0.336142 -0.442830 -0.244222
v -0.339704 -0.436828 -0.246810
v -0.395159 -0.442830 -0.128395
v -0.399346 -0.436828 -0.129755
v -0.415495 -0.442830 0.000000
v -0.419897 -0.436828 0.000000
v -0.395159 -0.442830 0.128395
v -0.399346 -0.436828 0.129755
v -0.336142 -0.442830 0.244222
v -0.339704 -0.436828 0.246810
v -0.244222 -0.442830 0.336142
v -0.246810 -0.436828 0.339704
v -0.128395 -0.442830 0.395159
v -0.129755 -0.436828 0.399346
v -0.000000 -0.442830 0.415495
v -0.000000 -0.436828 0.419897
v 0.128395 -0.442830 0.395159
v 0.129755 -0.436828 0.399346
v 0.244222 -0.442830 0.336142
v 0.246809 -0.436828 0.339704
v 0.336142 -0.442830 0.244222
v 0.339704 -0.436828 0.246810
v 0.395159 -0.442830 0.128395
v 0.399346 -0.436828 0.129755
v 0.415495 -0.442830 -0.000000
v 0.419897 -0.436828 0.000000
vt 0.956090 0.051699
vt 0.960296 0.060080
vt 0.924331 0.084301
vt 0.928723 0.817139
vt 0.894899 0.790008
vt 0.893802 0.789035
vt 0.862813 0.758707
vt 0.861817 0.757631
vt 0.833962 0.724400
vt 0.833077 0.723231
vt 0.808628 0.687420
vt 0.807862 0.686170
vt 0.787056 0.648127
vt 0.786416 0.646807
vt 0.769455 0.606901
vt 0.768949 0.605525
vt 0.755997 0.564144
vt 0.755629 0.562724
vt 0.746813 0.520269
vt 0.746586 0.518820
vt 0.741990 0.475704
vt 0.741907 0.474240
vt 0.741577 0.430880
vt 0.741638 0.429415
vt 0.745577 0.386233
vt 0.745782 0.384781
vt 0.753952 0.342197
vt 0.754299 0.340772
vt 0.766619 0.299199
vt 0.767105 0.297815
vt 0.783457 0.257656
vt 0.784076 0.256327
vt 0.804301 0.217971
vt 0.805048 0.216710
vt 0.828949 0.180531
vt 0.829817 0.179349
vt 0.857163 0.145698
vt 0.858142 0.144607
vt 0.888667 0.113811
vt 0.889749 0.112822
vt 0.923156 0.085179
vt 0.686834 0.279820
vt 0.652792 0.313863
vt 0.609896 0.335719
vt 0.562346 0.343250
vt 0.514796 0.335719
vt 0.471901 0.313862
vt 0.437859 0.279820
vt 0.416002 0.236925
vt 0.408471 0.189375
vt 0.416002 0.141825
vt 0.437859 0.098929
vt 0.471901 0.064887
vt 0.514796 0.043031
vt 0.562346 0.035500
vt 0.609896 0.043031
vt 0.652792 0.064887
vt 0.686834 0.098929
vt 0.708690 0.141825
vt 0.716221 0.189375
vt 0.708690 0.236925
vt 0.562346 0.189375
vt 0.181183 0.425214
vt 0.168902 0.401111
vt 0.149773 0.381983
vt 0.125671 0.369702
vt 0.098953 0.365470
vt 0.072235 0.369702
vt 0.048132 0.381983
vt 0.029004 0.401111
vt 0.016723 0.425214
vt 0.012491 0.451932
vt 0.016723 0.478650
vt 0.029004 0.502753
vt 0.048132 0.521881
vt 0.072235 0.534162
vt 0.098953 0.538394
vt 0.125671 0.534162
vt 0.149773 0.521881
vt 0.168902 0.502753
vt 0.181182 0.478650
vt 0.185414 0.451932
vt 0.180320 0.425494
vt 0.168168 0.401644
vt 0.149241 0.382717
vt 0.125391 0.370564
vt 0.098953 0.366377
vt 0.072515 0.370564
vt 0.048665 0.382717
vt 0.029737 0.401644
vt 0.017585 0.425494
vt 0.013398 0.451932
vt 0.017585 0.478370
vt 0.029737 0.502220
vt 0.048665 0.521148
vt 0.072515 0.533300
vt 0.098953 0.537487
vt 0.125391 0.533300
vt 0.149241 0.521148
vt 0.168168 0.502220
vt 0.180320 0.478370
vt 0.098953 0.451932
vt 0.184508 0.451932
vt 0.911692 0.841908
vt 0.874416 0.812007
vt 0.923834 0.825141
vt 0.840264 0.778584
vt 0.888149 0.796517
vt 0.809567 0.741961
vt 0.855455 0.764520
vt 0.782622 0.702495
vt 0.826068 0.729460
vt 0.759693 0.660569
vt 0.800274 0.691679
vt 0.741001 0.616591
vt 0.778323 0.651543
vt 0.726728 0.570986
vt 0.760429 0.609441
vt 0.717012 0.524198
vt 0.746765 0.565783
vt 0.711947 0.476681
vt 0.737464 0.520992
vt 0.711584 0.428895
vt 0.732616 0.475503
vt 0.715925 0.381307
vt 0.732268 0.429758
vt 0.724928 0.334376
vt 0.736424 0.384201
vt 0.738506 0.288559
vt 0.745043 0.339273
vt 0.756527 0.244301
vt 0.758041 0.295412
vt 0.778816 0.202031
vt 0.775293 0.253044
vt 0.805157 0.162161
vt 0.796630 0.212578
vt 0.835294 0.125076
vt 0.821847 0.174409
vt 0.868934 0.091136
vt 0.850697 0.138907
vt 0.905750 0.060672
vt 0.882901 0.106416
vt 0.945387 0.033979
vt 0.918146 0.077253
vn 0.553507 0.813195 -0.179845
vn 0.553507 0.813195 -0.179845
vn 0.581992 0.813194 0.000001
vn 0.581992 0.813194 0.000001
vn 0.470840 0.813195 -0.342086
vn 0.470840 0.813195 -0.342086
vn 0.342086 0.813195 -0.470841
vn 0.342086 0.813195 -0.470841
vn 0.179845 0.813195 -0.553506
vn 0.179845 0.813195 -0.553506
vn -0.000000 0.813196 -0.581991
vn -0.000000 0.813196 -0.581991
vn -0.179845 0.813196 -0.553506
vn -0.179845 0.813195 -0.553506
vn -0.342085 0.813196 -0.470840
vn -0.342085 0.813196 -0.470840
vn -0.470840 0.813196 -0.342085
vn -0.470840 0.813196 -0.342085
vn -0.553506 0.813196 -0.179845
vn -0.553506 0.813195 -0.179845
vn -0.581991 0.813195 0.000000
vn -0.581991 0.813195 0.000000
vn -0.553506 0.813195 0.179845
vn -0.553506 0.813195 0.179845
vn -0.470841 0.813195 0.342087
vn -0.470841 0.813195 0.342087
vn -0.342086 0.813195 0.470841
vn -0.342086 0.813195 0.470841
vn -0.179845 0.813195 0.553506
vn -0.179845 0.813195 0.553506
vn 0.000000 0.813194 0.581992
vn 0.000000 0.813195 0.581992
vn 0.179846 0.813194 0.553508
vn 0.179845 0.813194 0.553508
vn 0.342086 0.813195 0.470841
vn 0.342086 0.813195 0.470841
vn 0.470841 0.813195 0.342086
vn 0.470840 0.813195 0.342086
vn 0.553507 0.813195 0.179845
vn 0.553507 0.813195 0.179845
vn 0.000000 1.000000 -0.000000
vn 0.000000 1.000000 0.000000
vn 0.000000 1.000000 0.000000
vn 0.000000 1.000000 0.000000
vn 0.000000 1.000000 0.000000
vn 0.000000 1.000000 0.000000
vn 0.000000 1.000000 0.000000
vn 0.000000 1.000000 0.000000
vn 0.000000 1.000000 0.000000
vn 0.000000 1.000000 -0.000000
vn 0.000000 1.000000 0.000000
vn 0.000000 1.000000 0.000000
vn 0.000000 1.000000 0.000000
vn 0.000000 1.000000 0.000000
vn 0.000000 1.000000 0.000000
vn 0.000000 1.000000 -0.000000
vn 0.000000 1.000000 0.000000
vn 0.000000 1.000000 0.000000
vn 0.000000 1.000000 -0.000000
vn 0.000000 1.000000 0.000000
vn 0.000000 1.000000 -0.000000
vn 0.766828 -0.591521 -0.249155
vn 0.766828 -0.591521 -0.249155
vn 0.806288 -0.591523 0.000000
vn 0.806288 -0.591523 0.000000
vn 0.652302 -0.591522 -0.473924
vn 0.652302 -0.591522 -0.473925
vn 0.473923 -0.591524 -0.652300
vn 0.473923 -0.591524 -0.652300
vn 0.249156 -0.591527 -0.766823
vn 0.249155 -0.591527 -0.766823
vn -0.000000 -0.591527 -0.806285
vn -0.000000 -0.591527 -0.806285
vn -0.249156 -0.591525 -0.766824
vn -0.249156 -0.591525 -0.766824
vn -0.473924 -0.591524 -0.652300
vn -0.473925 -0.591524 -0.652299
vn -0.652301 -0.591525 -0.473921
vn -0.652300 -0.591525 -0.473922
vn -0.766825 -0.591524 -0.249156
vn -0.766826 -0.591524 -0.249155
vn -0.806289 -0.591522 0.000000
vn -0.806289 -0.591522 0.000000
vn -0.766826 -0.591524 0.249156
vn -0.766825 -0.591524 0.249155
vn -0.652301 -0.591525 0.473921
vn -0.652300 -0.591525 0.473922
vn -0.473924 -0.591525 0.652300
vn -0.473924 -0.591525 0.652299
vn -0.249156 -0.591523 0.766825
vn -0.249156 -0.591523 0.766826
vn -0.000000 -0.591523 0.806288
vn -0.000000 -0.591523 0.806288
vn 0.249156 -0.591523 0.766826
vn 0.249156 -0.591523 0.766826
vn 0.473925 -0.591523 0.652300
vn 0.473924 -0.591523 0.652300
vn 0.652301 -0.591525 0.473922
vn 0.652301 -0.591525 0.473922
vn 0.766825 -0.591525 0.249155
vn 0.766825 -0.591525 0.249155
vn 0.000000 -1.000000 0.000000
vn 0.000000 -1.000000 0.000000
vn 0.000000 -1.000000 0.000000
vn 0.000000 -1.000000 0.000000
vn 0.000000 -1.000000 0.000000
vn 0.000000 -1.000000 0.000000
vn 0.000000 -1.000000 0.000000
vn 0.000000 -1.000000 0.000000
vn 0.000000 -1.000000 0.000000
vn 0.000000 -1.000000 0.000000
vn 0.000000 -1.000000 -0.000000
vn 0.000000 -1.000000 -0.000000
vn 0.000000 -1.000000 0.000000
vn 0.000000 -1.000000 0.000000
vn 0.000000 -1.000000 0.000000
vn 0.000000 -1.000000 -0.000000
vn 0.000000 -1.000000 -0.000000
vn 0.000000 -1.000000 0.000000
vn 0.000000 -1.000000 0.000000
vn 0.000000 -1.000000 0.000000
vn 0.000000 -1.000000 0.000000
vn 0.902662 0.314930 -0.293292
vn 0.767850 0.314930 -0.557876
vn 0.767850 0.314930 -0.557876
vn 0.902662 0.314930 -0.293292
vn 0.557876 0.314930 -0.767850
vn 0.557875 0.314930 -0.767850
vn 0.293292 0.314930 -0.902662
vn 0.293292 0.314930 -0.902662
vn -0.000000 0.314931 -0.949115
vn -0.000000 0.314931 -0.949115
vn -0.293293 0.314930 -0.902662
vn -0.293293 0.314930 -0.902662
vn -0.557876 0.314929 -0.767850
vn -0.557876 0.314929 -0.767850
vn -0.767850 0.314930 -0.557876
vn -0.767850 0.314930 -0.557876
vn -0.902662 0.314930 -0.293293
vn -0.902662 0.314930 -0.293293
vn -0.949115 0.314930 0.000000
vn -0.949115 0.314930 0.000000
vn -0.902662 0.314930 0.293293
vn -0.902662 0.314930 0.293293
vn -0.767850 0.314930 0.557876
vn -0.767850 0.314930 0.557876
vn -0.557876 0.314930 0.767850
vn -0.557876 0.314930 0.767850
vn -0.293293 0.314929 0.902662
vn -0.293292 0.314929 0.902662
vn 0.000000 0.314930 0.949115
vn 0.000000 0.314930 0.949115
vn 0.293292 0.314930 0.902662
vn 0.293292 0.314930 0.902662
vn 0.557875 0.314930 0.767850
vn 0.557875 0.314930 0.767850
vn 0.767850 0.314931 0.557876
vn 0.767850 0.314931 0.557875
vn 0.902662 0.314931 0.293292
vn 0.902662 0.314931 0.293292
vn 0.949115 0.314930 0.000001
vn 0.949115 0.314930 0.000001
s 1
g Merged_anim Bottom2
usemtl initialShadingGroup
f 83/106/161 84/107/162 122/108/163 121/249/164
f 84/109/162 83/211/161 85/213/165 86/110/166
f 86/111/166 85/213/165 87/215/167 88/112/168
f 88/113/168 87/215/167 89/217/169 90/114/170
f 90/115/170 89/217/169 91/219/171 92/116/172
f 92/117/172 91/219/171 93/221/173 94/118/174
f 94/119/174 93/221/173 95/223/175 96/120/176
f 96/121/176 95/223/175 97/225/177 98/122/178
f 98/123/178 97/225/177 99/227/179 100/124/180
f 100/125/180 99/227/179 101/229/181 102/126/182
f 102/127/182 101/229/181 103/231/183 104/128/184
f 104/129/184 103/231/183 105/233/185 106/130/186
f 106/131/186 105/233/185 107/235/187 108/132/188
f 108/133/188 107/235/187 109/237/189 110/134/190
f 110/135/190 109/237/189 111/239/191 112/136/192
f 112/137/192 111/239/191 113/241/193 114/138/194
f 114/139/194 113/241/193 115/243/195 116/140/196
f 116/141/196 115/243/195 117/245/197 118/142/198
f 118/143/198 117/245/197 119/247/199 120/144/200
f 120/145/200 119/247/199 121/249/164 122/146/163
s 2
f 84/166/201 86/147/202 82/167/203
f 86/147/202 88/148/204 82/167/203
f 88/148/204 90/149/205 82/167/203
f 90/149/205 92/150/206 82/167/203
f 92/150/206 94/151/207 82/167/203
f 94/151/207 96/152/208 82/167/203
f 96/152/208 98/153/209 82/167/203
f 98/153/209 100/154/210 82/167/203
f 100/154/210 102/155/211 82/167/203
f 102/155/211 104/156/212 82/167/203
f 104/156/212 106/157/213 82/167/203
f 106/157/213 108/158/214 82/167/203
f 108/158/214 110/159/215 82/167/203
f 110/159/215 112/160/216 82/167/203
f 112/160/216 114/161/217 82/167/203
f 114/161/217 116/162/218 82/167/203
f 116/162/218 118/163/219 82/167/203
f 118/163/219 120/164/220 82/167/203
f 120/164/220 122/165/221 82/167/203
f 122/165/221 84/166/201 82/167/203
s 3
f 123/188/222 124/168/223 162/187/224 161/208/225
f 124/168/223 123/188/222 125/189/226 126/169/227
f 126/169/227 125/189/226 127/190/228 128/170/229
f 128/170/229 127/190/228 129/191/230 130/171/231
f 130/171/231 129/191/230 131/192/232 132/172/233
f 132/172/233 131/192/232 133/193/234 134/173/235
f 134/173/235 133/193/234 135/194/236 136/174/237
f 136/174/237 135/194/236 137/195/238 138/175/239
f 138/175/239 137/195/238 139/196/240 140/176/241
f 140/176/241 139/196/240 141/197/242 142/177/243
f 142/177/243 141/197/242 143/198/244 144/178/245
f 144/178/245 143/198/244 145/199/246 146/179/247
f 146/179/247 145/199/246 147/200/248 148/180/249
f 148/180/249 147/200/248 149/201/250 150/181/251
f 150/181/251 149/201/250 151/202/252 152/182/253
f 152/182/253 151/202/252 153/203/254 154/183/255
f 154/183/255 153/203/254 155/204/256 156/184/257
f 156/184/257 155/204/256 157/205/258 158/185/259
f 158/185/259 157/205/258 159/206/260 160/186/261
f 160/186/261 159/206/260 161/208/225 162/187/224
s 4
f 125/189/262 123/188/263 81/207/264
f 127/190/265 125/189/262 81/207/264
f 129/191/266 127/190/265 81/207/264
f 131/192/267 129/191/266 81/207/264
f 133/193/268 131/192/267 81/207/264
f 135/194/269 133/193/268 81/207/264
f 137/195/270 135/194/269 81/207/264
f 139/196/271 137/195/270 81/207/264
f 141/197/272 139/196/271 81/207/264
f 143/198/273 141/197/272 81/207/264
f 145/199/274 143/198/273 81/207/264
f 147/200/275 145/199/274 81/207/264
f 149/201/276 147/200/275 81/207/264
f 151/202/277 149/201/276 81/207/264
f 153/203/278 151/202/277 81/207/264
f 155/204/279 153/203/278 81/207/264
f 157/205/280 155/204/279 81/207/264
f 159/206/281 157/205/280 81/207/264
f 161/208/282 159/206/281 81/207/264
f 123/188/263 161/208/282 81/207/264
s 5
f 124/209/283 126/210/284 85/213/285 83/211/286
f 126/210/284 128/212/287 87/215/288 85/213/285
f 128/212/287 130/214/289 89/217/290 87/215/288
f 130/214/289 132/216/291 91/219/292 89/217/290
f 132/216/291 134/218/293 93/221/294 91/219/292
f 134/218/293 136/220/295 95/223/296 93/221/294
f 136/220/295 138/222/297 97/225/298 95/223/296
f 138/222/297 140/224/299 99/227/300 97/225/298
f 140/224/299 142/226/301 101/229/302 99/227/300
f 142/226/301 144/228/303 103/231/304 101/229/302
f 144/228/303 146/230/305 105/233/306 103/231/304
f 146/230/305 148/232/307 107/235/308 105/233/306
f 148/232/307 150/234/309 109/237/310 107/235/308
f 150/234/309 152/236/311 111/239/312 109/237/310
f 152/236/311 154/238/313 113/241/314 111/239/312
f 154/238/313 156/240/315 115/243/316 113/241/314
f 156/240/315 158/242/317 117/245/318 115/243/316
f 158/242/317 160/244/319 119/247/320 117/245/318
f 160/244/319 162/246/321 121/249/322 119/247/320
f 162/246/321 124/248/283 83/106/286 121/249/322
g default
v -0.183201 -0.415726 -0.237934
v -0.200658 -0.415726 -0.245165
v -0.218114 -0.415726 -0.237934
v -0.225345 -0.415726 -0.220478
v -0.218114 -0.415726 -0.203021
v -0.200658 -0.415726 -0.195791
v -0.183201 -0.415726 -0.203021
v -0.175971 -0.415726 -0.220478
v -0.183201 -0.077339 -0.237934
v -0.200658 -0.077339 -0.245165
v -0.218114 -0.077339 -0.237934
v -0.225345 -0.077339 -0.220478
v -0.218114 -0.077339 -0.203021
v -0.200658 -0.077339 -0.195791
v -0.183201 -0.077339 -0.203021
v -0.175971 -0.077339 -0.220478
v 0.283061 -0.415726 -0.131684
v 0.265604 -0.415726 -0.138915
v 0.248148 -0.415726 -0.131684
v 0.240917 -0.415726 -0.114228
v 0.248148 -0.415726 -0.096772
v 0.265604 -0.415726 -0.089541
v 0.283061 -0.415726 -0.096772
v 0.290291 -0.415726 -0.114228
v 0.283061 -0.077339 -0.131684
v 0.265604 -0.077339 -0.138915
v 0.248148 -0.077339 -0.131684
v 0.240917 -0.077339 -0.114228
v 0.248148 -0.077339 -0.096772
v 0.265604 -0.077339 -0.089541
v 0.283061 -0.077339 -0.096772
v 0.290291 -0.077339 -0.114228
v -0.085211 -0.415726 0.263423
v -0.102668 -0.415726 0.256193
v -0.120124 -0.415726 0.263423
v -0.127355 -0.415726 0.280880
v -0.120124 -0.415726 0.298336
v -0.102668 -0.415726 0.305567
v -0.085211 -0.415726 0.298336
v -0.077981 -0.415726 0.280880
v -0.085211 -0.077339 0.263423
v -0.102668 -0.077339 0.256193
v -0.120124 -0.077339 0.263423
v -0.127355 -0.077339 0.280880
v -0.120124 -0.077339 0.298336
v -0.102668 -0.077339 0.305567
v -0.085211 -0.077339 0.298336
v -0.077981 -0.077339 0.280880
vt 0.030601 0.631508
vt 0.045374 0.631508
vt 0.060148 0.631508
vt 0.074921 0.631508
vt 0.089694 0.631508
vt 0.104468 0.631508
vt 0.119241 0.631508
vt 0.134015 0.631508
vt 0.148788 0.631508
vt 0.030601 0.896086
vt 0.045374 0.896086
vt 0.060148 0.896086
vt 0.074921 0.896086
vt 0.089694 0.896086
vt 0.104468 0.896086
vt 0.119241 0.896086
vt 0.134015 0.896086
vt 0.148788 0.896086
vt 0.030601 0.631508
vt 0.045374 0.631508
vt 0.045374 0.896086
vt 0.030601 0.896086
vt 0.060148 0.631508
vt 0.060148 0.896086
vt 0.074921 0.631508
vt 0.074921 0.896086
vt 0.089694 0.631508
vt 0.089694 0.896086
vt 0.104468 0.631508
vt 0.104468 0.896086
vt 0.119241 0.631508
vt 0.119241 0.896086
vt 0.134015 0.631508
vt 0.134015 0.896086
vt 0.148788 0.631508
vt 0.148788 0.896086
vt 0.030601 0.631508
vt 0.045374 0.631508
vt 0.045374 0.896086
vt 0.030601 0.896086
vt 0.060148 0.631508
vt 0.060148 0.896086
vt 0.074921 0.631508
vt 0.074921 0.896086
vt 0.089694 0.631508
vt 0.089694 0.896086
vt 0.104468 0.631508
vt 0.104468 0.896086
vt 0.119241 0.631508
vt 0.119241 0.896086
vt 0.134015 0.631508
vt 0.134015 0.896086
vt 0.148788 0.631508
vt 0.148788 0.896086
vn 0.707107 0.000000 -0.707107
vn 0.000000 0.000000 -1.000000
vn 0.000000 0.000000 -1.000000
vn 0.707107 0.000000 -0.707107
vn -0.707107 0.000000 -0.707107
vn -0.707107 0.000000 -0.707107
vn -1.000000 0.000000 0.000000
vn -1.000000 0.000000 0.000000
vn -0.707107 0.000000 0.707107
vn -0.707107 0.000000 0.707107
vn 0.000000 0.000000 1.000000
vn 0.000000 0.000000 1.000000
vn 0.707107 0.000000 0.707107
vn 0.707107 0.000000 0.707107
vn 1.000000 0.000000 0.000000
vn 1.000000 0.000000 0.000000
vn 0.707107 0.000000 -0.707107
vn 0.000000 0.000000 -1.000000
vn 0.000000 0.000000 -1.000000
vn 0.707107 0.000000 -0.707107
vn -0.707107 0.000000 -0.707107
vn -0.707107 0.000000 -0.707107
vn -1.000000 0.000000 0.000000
vn -1.000000 0.000000 0.000000
vn -0.707107 0.000000 0.707107
vn -0.707107 0.000000 0.707107
vn 0.000000 0.000000 1.000000
vn 0.000000 0.000000 1.000000
vn 0.707107 0.000000 0.707107
vn 0.707107 0.000000 0.707107
vn 1.000000 0.000000 0.000000
vn 1.000000 0.000000 0.000000
vn 0.707107 0.000000 -0.707107
vn 0.000000 0.000000 -1.000000
vn 0.000000 0.000000 -1.000000
vn 0.707107 0.000000 -0.707107
vn -0.707107 0.000000 -0.707107
vn -0.707107 0.000000 -0.707107
vn -1.000000 0.000000 0.000000
vn -1.000000 0.000000 0.000000
vn -0.707106 0.000000 0.707107
vn -0.707106 0.000000 0.707107
vn 0.000000 0.000000 1.000000
vn 0.000000 0.000000 1.000000
vn 0.707106 0.000000 0.707107
vn 0.707106 0.000000 0.707107
vn 1.000000 0.000000 0.000000
vn 1.000000 0.000000 0.000000
s 1
g Merged_anim Iron_Poles
usemtl initialShadingGroup
f 163/250/323 164/251/324 172/260/325 171/259/326
f 164/251/324 165/252/327 173/261/328 172/260/325
f 165/252/327 166/253/329 174/262/330 173/261/328
f 166/253/329 167/254/331 175/263/332 174/262/330
f 167/254/331 168/255/333 176/264/334 175/263/332
f 168/255/333 169/256/335 177/265/336 176/264/334
f 169/256/335 170/257/337 178/266/338 177/265/336
f 170/257/337 163/258/323 171/267/326 178/266/338
s 2
f 179/268/339 180/269/340 188/270/341 187/271/342
f 180/269/340 181/272/343 189/273/344 188/270/341
f 181/272/343 182/274/345 190/275/346 189/273/344
f 182/274/345 183/276/347 191/277/348 190/275/346
f 183/276/347 184/278/349 192/279/350 191/277/348
f 184/278/349 185/280/351 193/281/352 192/279/350
f 185/280/351 186/282/353 194/283/354 193/281/352
f 186/282/353 179/284/339 187/285/342 194/283/354
s 3
f 195/286/355 196/287/356 204/288/357 203/289/358
f 196/287/356 197/290/359 205/291/360 204/288/357
f 197/290/359 198/292/361 206/293/362 205/291/360
f 198/292/361 199/294/363 207/295/364 206/293/362
f 199/294/363 200/296/365 208/297/366 207/295/364
f 200/296/365 201/298/367 209/299/368 208/297/366
f 201/298/367 202/300/369 210/301/370 209/299/368
f 202/300/369 195/302/355 203/303/358 210/301/370
g default
v 0.221568 -0.000000 -0.160979
v 0.084632 -0.000000 -0.260469
v -0.084632 0.000000 -0.260469
v -0.221569 -0.000000 -0.160979
v -0.273874 -0.000000 0.000000
v -0.221568 -0.000000 0.160979
v -0.084632 -0.000000 0.260469
v 0.084632 -0.000000 0.260469
v 0.221568 0.000000 0.160979
v 0.273874 -0.000000 0.000000
v 0.000000 0.067939 0.000000
v -0.048961 0.055292 -0.150687
v 0.048961 0.055292 -0.150687
v 0.128182 0.055292 -0.093129
v 0.158441 0.055292 0.000000
v 0.128182 0.055292 0.093129
v 0.048961 0.055292 0.150687
v -0.048961 0.055292 0.150687
v -0.128182 0.055292 0.093129
v -0.158441 0.055292 0.000000
v -0.128182 0.055292 -0.093129
v 0.385086 -0.113019 -0.279781
v 0.147090 -0.113019 -0.452696
v 0.000000 0.001390 0.000000
v -0.147090 -0.113019 -0.452696
v -0.385086 -0.113019 -0.279781
v -0.475993 -0.113019 0.000000
v -0.385086 -0.113019 0.279781
v -0.147090 -0.113019 0.452696
v 0.147090 -0.113019 0.452696
v 0.385086 -0.113019 0.279781
v 0.475993 -0.113019 0.000000
v 0.132381 -0.112231 0.407426
v -0.132381 -0.112231 0.407426
v -0.346577 -0.112231 0.251803
v -0.428393 -0.112231 0.000000
v -0.346578 -0.112231 -0.251803
v -0.132381 -0.112231 -0.407426
v 0.132381 -0.112231 -0.407427
v 0.346577 -0.112231 -0.251803
v 0.428393 -0.112231 0.000000
v 0.346577 -0.112231 0.251803
v -0.000000 -0.113506 -0.470584
v -0.000000 -0.000000 -0.275193
v -0.276602 -0.113506 -0.380710
v -0.161754 -0.000000 -0.222636
v -0.438102 -0.113506 -0.174502
v -0.256198 -0.000000 -0.102047
v -0.447552 -0.113506 0.145418
v -0.261724 -0.000000 0.085039
v -0.276602 -0.113506 0.380710
v -0.161754 -0.000000 0.222636
v 0.000000 -0.113506 0.470584
v 0.000000 -0.000000 0.275193
v 0.276602 -0.113506 0.380710
v 0.161754 -0.000000 0.222636
v 0.447552 -0.113506 0.145418
v 0.261724 0.000000 0.085039
v 0.447552 -0.113506 -0.145418
v 0.261724 -0.000000 -0.085039
v 0.276602 -0.113506 -0.380710
v 0.161754 -0.000000 -0.222636
v 0.221568 0.024174 -0.160979
v 0.213697 0.035769 -0.155260
v 0.161754 0.023781 -0.222636
v 0.153373 0.035556 -0.217289
v 0.084632 0.024174 -0.260469
v 0.081625 0.035769 -0.251216
v -0.000000 0.023781 -0.275193
v -0.003638 0.035556 -0.265941
v -0.084632 0.024174 -0.260469
v -0.081625 0.035769 -0.251216
v -0.161754 0.023781 -0.222636
v -0.159260 0.035556 -0.213013
v -0.221569 0.024170 -0.160979
v -0.213708 0.035766 -0.155268
v -0.256198 0.024123 -0.102047
v -0.246938 0.035659 -0.098653
v -0.273874 0.024175 0.000000
v -0.264115 0.035774 0.000000
v -0.261724 0.023781 0.085039
v -0.251801 0.035556 0.085640
v -0.221568 0.024174 0.160979
v -0.213697 0.035769 0.155260
v -0.161754 0.023781 0.222636
v -0.153373 0.035556 0.217289
v -0.084632 0.024174 0.260469
v -0.081625 0.035769 0.251216
v 0.000000 0.023781 0.275193
v 0.003638 0.035556 0.265941
v 0.084632 0.024174 0.260469
v 0.081625 0.035769 0.251216
v 0.161754 0.023781 0.222636
v 0.159260 0.035556 0.213013
v 0.221568 0.024174 0.160979
v 0.213697 0.035769 0.155260
v 0.261724 0.023781 0.085039
v 0.254049 0.035556 0.078720
v 0.273874 0.024174 0.000000
v 0.264144 0.035769 0.000000
v 0.261724 0.023781 -0.085039
v 0.251801 0.035556 -0.085640
v 0.385086 -0.098402 -0.279781
v 0.380405 -0.089505 -0.276380
v 0.276602 -0.097901 -0.380710
v 0.273259 -0.088988 -0.376109
v 0.147090 -0.098402 -0.452696
v 0.145302 -0.089505 -0.447193
v -0.000000 -0.097901 -0.470584
v -0.000000 -0.088988 -0.464897
v -0.147090 -0.098402 -0.452696
v -0.145302 -0.089505 -0.447193
v -0.276602 -0.097901 -0.380710
v -0.273259 -0.088988 -0.376109
v -0.385086 -0.098405 -0.279781
v -0.380414 -0.089510 -0.276387
v -0.438102 -0.097904 -0.174502
v -0.432811 -0.088990 -0.172395
v -0.475993 -0.098401 0.000000
v -0.470198 -0.089501 0.000000
v -0.447552 -0.097901 0.145418
v -0.442143 -0.088988 0.143661
v -0.385086 -0.098402 0.279781
v -0.380405 -0.089505 0.276380
v -0.276602 -0.097901 0.380710
v -0.273259 -0.088988 0.376109
v -0.147090 -0.098402 0.452696
v -0.145302 -0.089505 0.447193
v 0.000000 -0.097901 0.470584
v 0.000000 -0.088988 0.464897
v 0.147090 -0.098402 0.452696
v 0.145302 -0.089505 0.447193
v 0.276602 -0.097901 0.380710
v 0.273259 -0.088988 0.376109
v 0.385086 -0.098402 0.279781
v 0.380405 -0.089505 0.276380
v 0.447552 -0.097901 0.145418
v 0.442143 -0.088988 0.143661
v 0.475993 -0.098402 0.000000
v 0.470206 -0.089505 0.000000
v 0.447552 -0.097901 -0.145418
v 0.442143 -0.088988 -0.143661
vt 0.749432 0.815297
vt 0.439184 0.611614
vt 0.771037 0.881514
vt 0.727989 0.881567
vt 0.693132 0.856307
vt 0.679793 0.815398
vt 0.693059 0.774432
vt 0.727827 0.749079
vt 0.770875 0.749026
vt 0.805732 0.774287
vt 0.819085 0.815211
vt 0.805833 0.856169
vt 0.968168 0.862764
vt 0.961428 0.862162
vt 0.961759 0.826686
vt 0.959451 0.095356
vt 0.959635 0.134034
vt 0.959976 0.135438
vt 0.959646 0.170914
vt 0.959649 0.172155
vt 0.959833 0.210833
vt 0.960174 0.212237
vt 0.959844 0.247713
vt 0.959847 0.248955
vt 0.960031 0.287633
vt 0.960372 0.289037
vt 0.960047 0.324514
vt 0.960035 0.325554
vt 0.960142 0.354900
vt 0.960146 0.356475
vt 0.960242 0.401238
vt 0.960233 0.402607
vt 0.960427 0.441283
vt 0.960769 0.442688
vt 0.960438 0.478163
vt 0.960442 0.479405
vt 0.960625 0.518083
vt 0.960967 0.519487
vt 0.960636 0.554963
vt 0.960640 0.556205
vt 0.960823 0.594883
vt 0.961165 0.596287
vt 0.960834 0.631763
vt 0.960838 0.633005
vt 0.961021 0.671682
vt 0.961363 0.673087
vt 0.961032 0.708562
vt 0.961036 0.709804
vt 0.961219 0.748482
vt 0.961561 0.749886
vt 0.961230 0.785362
vt 0.961234 0.786604
vt 0.961417 0.825282
vt 0.966187 0.094716
vt 0.966385 0.171516
vt 0.966583 0.248316
vt 0.966783 0.325115
vt 0.966979 0.401966
vt 0.967178 0.478766
vt 0.967376 0.555565
vt 0.967574 0.632365
vt 0.967772 0.709165
vt 0.967970 0.785964
vt 0.517443 0.722164
vt 0.437517 0.747050
vt 0.461952 0.681108
vt 0.358223 0.720203
vt 0.416751 0.681216
vt 0.313460 0.661840
vt 0.380049 0.654719
vt 0.310892 0.568178
vt 0.365975 0.611836
vt 0.360925 0.501065
vt 0.379917 0.568776
vt 0.440851 0.476178
vt 0.416416 0.542121
vt 0.520139 0.503024
vt 0.461611 0.542010
vt 0.568506 0.571347
vt 0.498240 0.568486
vt 0.567476 0.655051
vt 0.512312 0.611435
vt 0.966660 0.209915
vt 0.395424 0.746340
vt 0.966858 0.286715
vt 0.324578 0.694892
vt 0.966883 0.355670
vt 0.297542 0.611633
vt 0.967254 0.440365
vt 0.324575 0.528365
vt 0.967452 0.517165
vt 0.395396 0.476898
vt 0.967650 0.593965
vt 0.482943 0.476888
vt 0.967848 0.670764
vt 0.553776 0.528340
vt 0.968046 0.747564
vt 0.580838 0.611599
vt 0.968244 0.824364
vt 0.302544 0.518469
vt 0.498451 0.654453
vt 0.553794 0.694864
vt 0.966462 0.133116
vt 0.482972 0.746331
vt 0.229289 0.462184
vt 0.203285 0.516498
vt 0.630196 0.429469
vt 0.633641 0.426606
vt 0.668671 0.476564
vt 0.664820 0.478738
vt 0.691154 0.531523
vt 0.695369 0.530178
vt 0.705432 0.588772
vt 0.700999 0.589154
vt 0.701408 0.647405
vt 0.705793 0.648024
vt 0.689094 0.704821
vt 0.684937 0.703231
vt 0.659844 0.755782
vt 0.663523 0.758241
vt 0.632467 0.793624
vt 0.629318 0.790477
vt 0.575085 0.834806
vt 0.577337 0.838626
vt 0.522648 0.860799
vt 0.521302 0.856555
vt 0.464729 0.869711
vt 0.465096 0.874126
vt 0.406113 0.870445
vt 0.406741 0.866037
vt 0.350026 0.853363
vt 0.348441 0.857499
vt 0.296881 0.828592
vt 0.299359 0.824893
vt 0.253757 0.788856
vt 0.250534 0.791894
vt 0.216629 0.743453
vt 0.220468 0.741198
vt 0.195050 0.688876
vt 0.190827 0.690210
vt 0.181413 0.631724
vt 0.185848 0.631369
vt 0.186038 0.572909
vt 0.181659 0.572278
vt 0.199128 0.514990
vt 0.976993 0.094689
vt 0.604868 0.560063
vt 0.610966 0.634661
vt 0.584138 0.704735
vt 0.528880 0.755707
vt 0.457175 0.778521
vt 0.382750 0.767943
vt 0.320304 0.726119
vt 0.282189 0.661388
vt 0.275859 0.586797
vt 0.674343 0.473393
vt 0.225418 0.459930
vt 0.711906 0.588219
vt 0.695164 0.707141
vt 0.636942 0.798333
vt 0.524616 0.866994
vt 0.405197 0.876879
vt 0.293264 0.833991
vt 0.211026 0.746746
vt 0.174937 0.632249
vt 0.193010 0.512801
vt 0.711862 0.648881
vt 0.613437 0.596829
vt 0.668663 0.761586
vt 0.602754 0.671698
vt 0.580498 0.843874
vt 0.566065 0.729011
vt 0.465603 0.880234
vt 0.494707 0.772467
vt 0.346249 0.863222
vt 0.419171 0.778775
vt 0.246075 0.796098
vt 0.348411 0.751680
vt 0.184983 0.692057
vt 0.296424 0.696577
vt 0.175597 0.571412
vt 0.273488 0.624477
vt 0.638763 0.423191
vt 0.284177 0.550328
vt 0.701204 0.528322
vt 0.590635 0.525472
vt 0.977092 0.133088
vt 0.977191 0.171488
vt 0.978875 0.824336
vt 0.978974 0.862736
vt 0.567253 0.497089
vt 0.978677 0.747537
vt 0.978776 0.785936
vt 0.978479 0.670737
vt 0.978578 0.709137
vt 0.978281 0.593937
vt 0.978380 0.632337
vt 0.978083 0.517138
vt 0.978182 0.555537
vt 0.977885 0.440338
vt 0.977984 0.478738
vt 0.977666 0.355642
vt 0.977786 0.401938
vt 0.977488 0.286687
vt 0.977587 0.325087
vt 0.977290 0.209888
vt 0.977389 0.248288
vt 0.792802 0.755604
vt 0.773406 0.741512
vt 0.819605 0.792496
vt 0.812197 0.769695
vt 0.819605 0.838097
vt 0.827014 0.815297
vt 0.792802 0.874990
vt 0.812197 0.860898
vt 0.749432 0.889081
vt 0.773406 0.889081
vt 0.706063 0.874990
vt 0.725458 0.889081
vt 0.679259 0.838097
vt 0.686667 0.860898
vt 0.680741 0.787936
vt 0.671851 0.815297
vt 0.706063 0.755604
vt 0.686667 0.769695
vt 0.749432 0.741512
vt 0.725458 0.741512
vt 0.219802 0.457408
vn -0.079220 -0.966581 0.243813
vn -0.207400 -0.966581 0.150685
vn -0.000000 -1.000000 0.000000
vn 0.079220 -0.966581 0.243813
vn 0.207400 -0.966581 0.150685
vn 0.256361 -0.966581 -0.000000
vn 0.207400 -0.966581 -0.150685
vn 0.079220 -0.966581 -0.243814
vn -0.079220 -0.966581 -0.243813
vn -0.207400 -0.966581 -0.150685
vn -0.256361 -0.966581 -0.000000
vn 0.043998 0.990517 -0.130153
vn -0.040907 0.990517 -0.131157
vn -0.000000 1.000000 -0.000000
vn 0.112097 0.990517 -0.079435
vn 0.137379 0.990517 0.001625
vn 0.110187 0.990517 0.082064
vn 0.040907 0.990517 0.131157
vn -0.043998 0.990517 0.130153
vn -0.112095 0.990517 0.079436
vn -0.136948 0.990578 0.000312
vn -0.107276 0.990759 -0.082997
vn 0.007911 -0.999832 -0.016543
vn 0.000282 -0.999811 -0.019426
vn 0.008811 -0.999832 -0.016072
vn 0.016123 -0.999832 -0.008734
vn 0.011647 -0.999811 -0.015550
vn 0.016574 -0.999832 -0.007824
vn 0.018115 -0.999833 0.002526
vn 0.018562 -0.999811 -0.005735
vn 0.017941 -0.999833 0.003465
vn 0.013392 -0.999831 0.012600
vn 0.018296 -0.999813 0.006214
vn 0.012394 -0.999830 0.013682
vn 0.003324 -0.999832 0.018033
vn 0.011190 -0.999811 0.015882
vn 0.002319 -0.999832 0.018181
vn -0.007911 -0.999832 0.016543
vn -0.000282 -0.999811 0.019426
vn -0.008811 -0.999832 0.016072
vn -0.016123 -0.999832 0.008734
vn -0.011647 -0.999811 0.015550
vn -0.016574 -0.999832 0.007824
vn -0.018178 -0.999832 -0.002412
vn -0.018562 -0.999811 0.005735
vn -0.018008 -0.999832 -0.003413
vn -0.013288 -0.999832 -0.012635
vn -0.018388 -0.999811 -0.006271
vn -0.012562 -0.999832 -0.013346
vn -0.003324 -0.999832 -0.018033
vn -0.011190 -0.999811 -0.015882
vn -0.002319 -0.999832 -0.018181
vn 0.625412 0.629543 -0.461015
vn 0.625186 0.629582 -0.461270
vn 0.732743 0.629494 -0.258506
vn 0.742491 0.633242 -0.218432
vn 0.472296 0.633243 -0.613140
vn 0.440855 0.629494 -0.639831
vn 0.234991 0.629543 -0.740577
vn 0.234659 0.629581 -0.740650
vn 0.021701 0.633243 -0.773649
vn -0.019424 0.629494 -0.776762
vn -0.245189 0.629543 -0.737264
vn -0.245501 0.629581 -0.737127
vn -0.437227 0.633125 -0.638737
vn -0.472344 0.629332 -0.617117
vn -0.614358 0.628597 -0.476896
vn -0.613701 0.628378 -0.478029
vn -0.725053 0.647181 -0.235491
vn -0.725042 0.647181 -0.235523
vn -0.764342 0.644529 -0.019065
vn -0.764293 0.644536 -0.020705
vn -0.742265 0.633554 0.218292
vn -0.732584 0.629732 0.258378
vn -0.625412 0.629543 0.461015
vn -0.625186 0.629582 0.461270
vn -0.472296 0.633242 0.613140
vn -0.440855 0.629494 0.639831
vn -0.234991 0.629543 0.740578
vn -0.234659 0.629581 0.740651
vn -0.021701 0.633243 0.773649
vn 0.019424 0.629494 0.776762
vn 0.245189 0.629543 0.737264
vn 0.245501 0.629581 0.737127
vn 0.437183 0.633243 0.638650
vn 0.472283 0.629495 0.616997
vn 0.631715 0.629543 0.452341
vn 0.631887 0.629581 0.452047
vn 0.729079 0.633241 0.259710
vn 0.744748 0.629493 0.221560
vn 0.776949 0.629541 -0.005361
vn 0.776915 0.629579 -0.005700
vn 0.809017 0.000000 -0.587785
vn 0.587785 0.000000 -0.809017
vn 0.587785 0.000000 -0.809017
vn 0.809017 0.000000 -0.587785
vn 0.309017 0.000000 -0.951057
vn -0.000000 0.000000 -1.000000
vn -0.000000 0.000000 -1.000000
vn 0.309017 0.000000 -0.951057
vn -0.309017 0.000000 -0.951057
vn -0.587781 0.000000 -0.809020
vn -0.587779 0.000000 -0.809022
vn -0.309017 0.000000 -0.951056
vn -0.787544 0.000000 -0.616259
vn -0.951059 0.000000 -0.309009
vn -0.951056 0.000000 -0.309019
vn -0.787633 0.000000 -0.616145
vn -0.999547 0.000000 -0.030081
vn -0.951057 0.000000 0.309015
vn -0.951057 0.000000 0.309014
vn -0.999541 0.000000 -0.030285
vn -0.809017 0.000000 0.587785
vn -0.587785 0.000000 0.809017
vn -0.587785 0.000000 0.809017
vn -0.809017 0.000000 0.587785
vn -0.309017 0.000000 0.951056
vn 0.000000 0.000000 1.000000
vn 0.000000 0.000000 1.000000
vn -0.309017 0.000000 0.951057
vn 0.309017 0.000000 0.951057
vn 0.587785 0.000000 0.809017
vn 0.587785 0.000000 0.809017
vn 0.309017 0.000000 0.951057
vn 0.809017 0.000000 0.587785
vn 0.951057 0.000000 0.309017
vn 0.951057 0.000000 0.309017
vn 0.809017 0.000000 0.587785
vn 1.000000 0.000000 -0.000000
vn 0.951057 0.000000 -0.309017
vn 0.951057 0.000000 -0.309017
vn 1.000000 0.000000 -0.000000
vn 0.127432 0.984607 -0.119624
vn 0.106858 0.984437 -0.139518
vn 0.032781 0.984607 -0.171681
vn 0.004443 0.984437 -0.175682
vn -0.074391 0.984607 -0.158161
vn -0.099671 0.984437 -0.144741
vn -0.151055 0.984786 -0.085903
vn -0.164497 0.984580 -0.059521
vn -0.173907 0.984619 0.016771
vn -0.168455 0.984437 0.050067
vn -0.127432 0.984607 0.119624
vn -0.106858 0.984437 0.139518
vn -0.032781 0.984607 0.171681
vn -0.004443 0.984437 0.175682
vn 0.074391 0.984607 0.158161
vn 0.099669 0.984437 0.144742
vn 0.153148 0.984607 0.084229
vn 0.165711 0.984437 0.058514
vn 0.173408 0.984607 -0.021875
vn 0.168457 0.984437 -0.050063
vn 0.679055 0.543579 -0.493362
vn 0.679055 0.543579 -0.493362
vn 0.800783 0.539488 -0.260190
vn 0.800783 0.539488 -0.260190
vn 0.494913 0.539485 -0.681188
vn 0.494913 0.539485 -0.681188
vn 0.259376 0.543581 -0.798276
vn 0.259376 0.543581 -0.798276
vn -0.000000 0.539487 -0.841994
vn -0.000000 0.539487 -0.841994
vn -0.259376 0.543581 -0.798276
vn -0.259376 0.543581 -0.798276
vn -0.494960 0.539322 -0.681283
vn -0.494958 0.539322 -0.681284
vn -0.661630 0.542948 -0.517159
vn -0.660710 0.542924 -0.518359
vn -0.800402 0.539373 -0.261599
vn -0.801332 0.539296 -0.258897
vn -0.839021 0.543562 -0.024164
vn -0.838997 0.543546 -0.025317
vn -0.800717 0.539603 0.260155
vn -0.800718 0.539603 0.260153
vn -0.679055 0.543580 0.493362
vn -0.679055 0.543579 0.493362
vn -0.494913 0.539485 0.681188
vn -0.494913 0.539485 0.681188
vn -0.259376 0.543581 0.798276
vn -0.259376 0.543581 0.798276
vn 0.000000 0.539487 0.841994
vn 0.000000 0.539487 0.841994
vn 0.259376 0.543581 0.798276
vn 0.259376 0.543581 0.798276
vn 0.494912 0.539487 0.681187
vn 0.494912 0.539487 0.681187
vn 0.679054 0.543582 0.493361
vn 0.679054 0.543582 0.493361
vn 0.800783 0.539489 0.260190
vn 0.800783 0.539489 0.260190
vn 0.839356 0.543582 -0.000000
vn 0.839356 0.543582 -0.000000
vn 0.338998 0.907975 -0.246296
vn 0.247083 0.907356 -0.340081
vn 0.247083 0.907356 -0.340081
vn 0.338998 0.907975 -0.246296
vn 0.129486 0.907975 -0.398515
vn -0.000000 0.907356 -0.420363
vn -0.000000 0.907356 -0.420363
vn 0.129486 0.907975 -0.398515
vn -0.129486 0.907975 -0.398515
vn -0.247086 0.907356 -0.340079
vn -0.247084 0.907356 -0.340080
vn -0.129486 0.907975 -0.398515
vn -0.330440 0.907880 -0.257999
vn -0.399248 0.907392 -0.131304
vn -0.400105 0.907334 -0.129077
vn -0.329617 0.907861 -0.259117
vn -0.418995 0.907911 -0.011866
vn -0.399789 0.907356 0.129901
vn -0.399789 0.907356 0.129900
vn -0.418989 0.907899 -0.012975
vn -0.338998 0.907975 0.246296
vn -0.247083 0.907356 0.340081
vn -0.247083 0.907356 0.340081
vn -0.338998 0.907975 0.246296
vn -0.129486 0.907975 0.398515
vn 0.000000 0.907356 0.420363
vn 0.000000 0.907356 0.420363
vn -0.129486 0.907975 0.398515
vn 0.129486 0.907975 0.398515
vn 0.247083 0.907356 0.340081
vn 0.247083 0.907356 0.340081
vn 0.129486 0.907975 0.398515
vn 0.338998 0.907975 0.246296
vn 0.399789 0.907356 0.129899
vn 0.399789 0.907356 0.129899
vn 0.338998 0.907975 0.246296
vn 0.419024 0.907975 0.000000
vn 0.399789 0.907356 -0.129899
vn 0.399789 0.907356 -0.129899
vn 0.419024 0.907975 0.000000
vn 0.587785 0.000000 -0.809017
vn 0.587786 0.000000 -0.809017
vn 0.809017 0.000000 -0.587785
vn 0.809017 0.000000 -0.587785
vn -0.000000 0.000000 -1.000000
vn -0.000000 0.000000 -1.000000
vn 0.309017 0.000000 -0.951057
vn 0.309017 0.000000 -0.951057
vn -0.587782 0.000000 -0.809020
vn -0.587781 0.000000 -0.809020
vn -0.309017 0.000000 -0.951056
vn -0.309017 0.000000 -0.951056
vn -0.951076 0.000000 -0.308957
vn -0.951077 0.000000 -0.308955
vn -0.787309 0.000000 -0.616559
vn -0.787309 0.000000 -0.616559
vn -0.951057 0.000000 0.309014
vn -0.951058 0.000000 0.309014
vn -0.999565 0.000000 -0.029479
vn -0.999565 0.000000 -0.029480
vn -0.587785 0.000000 0.809017
vn -0.587785 0.000000 0.809017
vn -0.809017 0.000000 0.587785
vn -0.809017 0.000000 0.587785
vn 0.000000 0.000000 1.000000
vn 0.000000 0.000000 1.000000
vn -0.309017 0.000000 0.951057
vn -0.309017 0.000000 0.951056
vn 0.587785 0.000000 0.809017
vn 0.587785 0.000000 0.809017
vn 0.309017 0.000000 0.951056
vn 0.309017 0.000000 0.951056
vn 0.951057 0.000000 0.309017
vn 0.951057 0.000000 0.309017
vn 0.809017 0.000000 0.587785
vn 0.809017 0.000000 0.587785
vn 0.951057 0.000000 -0.309017
vn 0.951057 0.000000 -0.309017
vn 1.000000 0.000000 0.000000
vn 1.000000 0.000000 0.000000
s 1
g Merged_anim Top1
usemtl initialShadingGroup
f 249/312/371 250/313/372 234/304/373
f 248/311/374 249/312/371 234/304/373
f 247/310/375 248/311/374 234/304/373
f 246/309/376 247/310/375 234/304/373
f 245/308/377 246/309/376 234/304/373
f 244/307/378 245/308/377 234/304/373
f 243/306/379 244/307/378 234/304/373
f 252/315/380 243/306/379 234/304/373
f 251/314/381 252/315/380 234/304/373
f 250/313/372 251/314/381 234/304/373
s 2
f 223/369/382 222/371/383 221/305/384
f 224/404/385 223/369/382 221/305/384
f 225/385/386 224/404/385 221/305/384
f 226/383/387 225/385/386 221/305/384
f 227/381/388 226/383/387 221/305/384
f 228/379/389 227/381/388 221/305/384
f 229/377/390 228/379/389 221/305/384
f 230/375/391 229/377/390 221/305/384
f 231/373/392 230/375/391 221/305/384
f 222/371/383 231/373/392 221/305/384
s 3
f 244/307/393 263/519/394 239/522/395
f 245/308/396 261/521/397 238/524/398
f 246/309/399 259/523/400 237/526/401
f 247/310/402 257/525/403 236/528/404
f 248/311/405 255/527/406 235/530/407
f 249/312/408 253/529/409 233/512/410
f 250/313/411 271/511/412 232/514/413
f 251/314/414 269/513/415 242/516/416
f 252/315/417 267/515/418 241/518/419
f 243/306/420 265/517/421 240/520/422
f 235/530/407 253/529/409 249/312/408 248/311/405
f 236/528/404 255/527/406 248/311/405 247/310/402
f 237/526/401 257/525/403 247/310/402 246/309/399
f 238/524/398 259/523/400 246/309/399 245/308/396
f 239/522/395 261/521/397 245/308/396 244/307/393
f 240/520/422 263/519/394 244/307/393 243/306/420
f 241/518/419 265/517/421 243/306/420 252/315/417
f 242/516/416 267/515/418 252/315/417 251/314/414
f 232/514/413 269/513/415 251/314/414 250/313/411
f 233/512/410 271/511/412 250/313/411 249/312/408
s 4
f 273/316/423 274/317/424 312/318/425 311/402/426
f 274/319/424 273/357/423 275/406/427 276/320/428
f 276/321/428 275/406/427 277/358/429 278/322/430
f 278/323/430 277/358/429 279/386/431 280/324/432
f 280/325/432 279/386/431 281/359/433 282/326/434
f 282/327/434 281/359/433 283/388/435 284/328/436
f 284/329/436 283/388/435 285/360/437 286/330/438
f 286/331/438 285/360/437 287/390/439 288/332/440
f 288/333/440 287/390/439 289/361/441 290/334/442
f 290/335/442 289/361/441 291/392/443 292/336/444
f 292/337/444 291/392/443 293/362/445 294/338/446
f 294/339/446 293/362/445 295/394/447 296/340/448
f 296/341/448 295/394/447 297/363/449 298/342/450
f 298/343/450 297/363/449 299/396/451 300/344/452
f 300/345/452 299/396/451 301/364/453 302/346/454
f 302/347/454 301/364/453 303/398/455 304/348/456
f 304/349/456 303/398/455 305/365/457 306/350/458
f 306/351/458 305/365/457 307/400/459 308/352/460
f 308/353/460 307/400/459 309/366/461 310/354/462
f 310/355/462 309/366/461 311/402/426 312/356/425
s 5
f 211/449/463 272/490/464 275/406/465 273/357/466
f 212/491/467 254/509/468 279/386/469 277/358/470
f 213/510/471 256/507/472 283/388/473 281/359/474
f 214/508/475 258/505/476 287/390/477 285/360/478
f 215/506/479 260/503/480 291/392/481 289/361/482
f 216/504/483 262/501/484 295/394/485 293/362/486
f 217/502/487 264/499/488 299/396/489 297/363/490
f 218/500/491 266/497/492 303/398/493 301/364/494
f 219/498/495 268/495/496 307/400/497 305/365/498
f 220/496/499 270/492/500 311/402/501 309/366/502
s 2
f 274/405/503 276/367/504 223/369/382 224/404/385
f 278/407/505 280/368/506 222/371/383 223/369/382
f 282/387/507 284/370/508 231/373/392 222/371/383
f 286/389/509 288/372/510 230/375/391 231/373/392
f 290/391/511 292/374/512 229/377/390 230/375/391
f 294/393/513 296/376/514 228/379/389 229/377/390
f 298/395/515 300/378/516 227/381/388 228/379/389
f 302/397/517 304/380/518 226/383/387 227/381/388
f 306/399/519 308/382/520 225/385/386 226/383/387
f 310/401/521 312/384/522 224/404/385 225/385/386
s 5
f 279/386/469 254/509/468 213/510/471 281/359/474
s 2
f 222/371/383 280/368/506 282/387/507
s 5
f 283/388/473 256/507/472 214/508/475 285/360/478
s 2
f 231/373/392 284/370/508 286/389/509
s 5
f 287/390/477 258/505/476 215/506/479 289/361/482
s 2
f 230/375/391 288/372/510 290/391/511
s 5
f 291/392/481 260/503/480 216/504/483 293/362/486
s 2
f 229/377/390 292/374/512 294/393/513
s 5
f 295/394/485 262/501/484 217/502/487 297/363/490
s 2
f 228/379/389 296/376/514 298/395/515
s 5
f 299/396/489 264/499/488 218/500/491 301/364/494
s 2
f 227/381/388 300/378/516 302/397/517
s 5
f 303/398/493 266/497/492 219/498/495 305/365/498
s 2
f 226/383/387 304/380/518 306/399/519
s 5
f 307/400/497 268/495/496 220/496/499 309/366/502
s 2
f 225/385/386 308/382/520 310/401/521
s 5
f 311/402/501 270/492/500 211/493/463 273/316/466
s 2
f 224/404/385 312/384/522 274/405/503
s 5
f 275/406/465 272/490/464 212/491/467 277/358/470
s 2
f 223/369/382 276/367/504 278/407/505
s 14
f 313/460/523 314/408/524 352/409/525 351/448/526
f 314/410/524 313/411/523 315/412/527 316/413/528
f 316/413/528 315/412/527 317/415/529 318/414/530
f 318/414/530 317/415/529 319/416/531 320/417/532
f 320/417/532 319/416/531 321/419/533 322/418/534
f 322/418/534 321/419/533 323/420/535 324/421/536
f 324/421/536 323/420/535 325/423/537 326/422/538
f 326/422/538 325/423/537 327/424/539 328/425/540
f 328/425/540 327/424/539 329/427/541 330/426/542
f 330/426/542 329/427/541 331/428/543 332/429/544
f 332/429/544 331/428/543 333/431/545 334/430/546
f 334/430/546 333/431/545 335/432/547 336/433/548
f 336/433/548 335/432/547 337/435/549 338/434/550
f 338/434/550 337/435/549 339/436/551 340/437/552
f 340/437/552 339/436/551 341/439/553 342/438/554
f 342/438/554 341/439/553 343/440/555 344/441/556
f 344/441/556 343/440/555 345/443/557 346/442/558
f 346/442/558 345/443/557 347/444/559 348/445/560
f 348/445/560 347/444/559 349/447/561 350/446/562
f 350/446/562 349/447/561 351/448/526 352/409/525
s 15
f 314/410/563 316/413/564 272/489/565 211/494/566
f 318/414/567 320/417/568 254/471/569 212/450/570
f 322/418/571 324/421/572 256/473/573 213/451/574
f 326/422/575 328/425/576 258/475/577 214/452/578
f 330/426/579 332/429/580 260/477/581 215/453/582
f 334/430/583 336/433/584 262/479/585 216/454/586
f 338/434/587 340/437/588 264/481/589 217/455/590
f 342/438/591 344/441/592 266/483/593 218/456/594
f 346/442/595 348/445/596 268/485/597 219/457/598
f 350/446/599 352/409/600 270/487/601 220/458/602
s 24
f 271/459/603 315/412/604 313/411/605 232/486/606
f 253/461/607 319/416/608 317/415/609 233/488/610
f 255/462/611 323/420/612 321/419/613 235/470/614
f 257/463/615 327/424/616 325/423/617 236/472/618
f 259/464/619 331/428/620 329/427/621 237/474/622
f 261/465/623 335/432/624 333/431/625 238/476/626
f 263/466/627 339/436/628 337/435/629 239/478/630
f 265/467/631 343/440/632 341/439/633 240/480/634
f 267/468/635 347/444/636 345/443/637 241/482/638
f 269/469/639 351/448/640 349/447/641 242/484/642
f 321/419/613 319/416/608 253/461/607 235/470/614
s 15
f 254/471/569 320/417/568 322/418/571 213/451/574
s 24
f 325/423/617 323/420/612 255/462/611 236/472/618
s 15
f 256/473/573 324/421/572 326/422/575 214/452/578
s 24
f 329/427/621 327/424/616 257/463/615 237/474/622
s 15
f 258/475/577 328/425/576 330/426/579 215/453/582
s 24
f 333/431/625 331/428/620 259/464/619 238/476/626
s 15
f 260/477/581 332/429/580 334/430/583 216/454/586
s 24
f 337/435/629 335/432/624 261/465/623 239/478/630
s 15
f 262/479/585 336/433/584 338/434/587 217/455/590
s 24
f 341/439/633 339/436/628 263/466/627 240/480/634
s 15
f 264/481/589 340/437/588 342/438/591 218/456/594
s 24
f 345/443/637 343/440/632 265/467/631 241/482/638
s 15
f 266/483/593 344/441/592 346/442/595 219/457/598
s 24
f 349/447/641 347/444/636 267/468/635 242/484/642
s 15
f 268/485/597 348/445/596 350/446/599 220/458/602
s 24
f 313/460/605 351/448/640 269/469/639 232/531/606
s 15
f 270/487/601 352/409/600 314/408/563 211/403/566
s 24
f 317/415/609 315/412/604 271/459/603 233/488/610
s 15
f 272/489/565 316/413/564 318/414/567 212/450/570
g default
v 0.094354 -0.576036 -0.042009
v 0.069110 -0.576036 -0.076755
v 0.031916 -0.576036 -0.098228
v -0.010796 -0.576036 -0.102718
v -0.051642 -0.576036 -0.089446
v -0.083558 -0.576036 -0.060709
v -0.101027 -0.576036 -0.021474
v -0.101027 -0.576036 0.021474
v -0.083558 -0.576036 0.060709
v -0.051642 -0.576036 0.089446
v -0.010796 -0.576036 0.102718
v 0.031916 -0.576036 0.098228
v 0.069110 -0.576036 0.076755
v 0.094354 -0.576036 0.042009
v 0.103284 -0.576036 0.000000
v 0.181064 -0.554208 -0.080615
v 0.132621 -0.554208 -0.147291
v 0.061247 -0.554208 -0.188499
v -0.020717 -0.554208 -0.197114
v -0.099100 -0.554208 -0.171646
v -0.160347 -0.554208 -0.116499
v -0.193869 -0.554208 -0.041208
v -0.193869 -0.554208 0.041208
v -0.160347 -0.554208 0.116499
v -0.099100 -0.554208 0.171646
v -0.020718 -0.554208 0.197114
v 0.061247 -0.554208 0.188499
v 0.132621 -0.554208 0.147291
v 0.181064 -0.554208 0.080615
v 0.198200 -0.554208 0.000000
v 0.253106 -0.519798 -0.112690
v 0.185389 -0.519798 -0.205895
v 0.085616 -0.519798 -0.263499
v -0.028960 -0.519798 -0.275541
v -0.138529 -0.519798 -0.239940
v -0.224145 -0.519798 -0.162851
v -0.271004 -0.519798 -0.057604
v -0.271004 -0.519798 0.057604
v -0.224145 -0.519798 0.162851
v -0.138529 -0.519798 0.239940
v -0.028961 -0.519798 0.275541
v 0.085616 -0.519798 0.263499
v 0.185389 -0.519798 0.205895
v 0.253106 -0.519798 0.112690
v 0.277059 -0.519798 0.000000
v 0.304642 -0.475593 -0.135635
v 0.223137 -0.475593 -0.247818
v 0.103049 -0.475593 -0.317151
v -0.034857 -0.475593 -0.331646
v -0.166736 -0.475593 -0.288796
v -0.269785 -0.475593 -0.196010
v -0.326185 -0.475593 -0.069333
v -0.326185 -0.475593 0.069333
v -0.269785 -0.475593 0.196010
v -0.166736 -0.475593 0.288795
v -0.034857 -0.475593 0.331646
v 0.103049 -0.475593 0.317151
v 0.223137 -0.475593 0.247818
v 0.304642 -0.475593 0.135635
v 0.333472 -0.475593 0.000000
v 0.331498 -0.425176 -0.147592
v 0.242807 -0.425176 -0.269665
v 0.112133 -0.425176 -0.345110
v -0.037930 -0.425176 -0.360882
v -0.181435 -0.425176 -0.314255
v -0.293568 -0.425176 -0.213290
v -0.354940 -0.425176 -0.075445
v -0.354940 -0.425176 0.075445
v -0.293568 -0.425176 0.213290
v -0.181435 -0.425176 0.314255
v -0.037930 -0.425176 0.360882
v 0.112133 -0.425176 0.345110
v 0.242807 -0.425176 0.269665
v 0.331498 -0.425176 0.147592
v 0.362870 -0.425176 0.000000
v 0.000000 -0.583514 0.000000
v 0.053834 -0.562766 0.053834
v 0.000000 -0.562766 0.076133
v -0.053834 -0.562766 0.053834
v -0.076133 -0.562766 -0.000000
v -0.053834 -0.562766 -0.053834
v 0.000000 -0.562766 -0.076133
v 0.053834 -0.562766 -0.053834
v 0.076133 -0.562766 -0.000000
v 0.033788 -0.601395 0.033788
v 0.000000 -0.601395 0.047784
v -0.033788 -0.601395 0.033788
v -0.047784 -0.601395 0.000000
v -0.033788 -0.601395 -0.033788
v 0.000000 -0.601395 -0.047784
v 0.033788 -0.601395 -0.033788
v 0.047784 -0.601395 0.000000
v 0.000000 -0.640024 0.000000
vt 0.184002 0.149445
vt 0.169831 0.160341
vt 0.160801 0.176152
vt 0.158063 0.194397
vt 0.161947 0.212562
vt 0.171956 0.228277
vt 0.186832 0.239527
vt 0.204705 0.244882
vt 0.223328 0.243657
vt 0.240358 0.236005
vt 0.253659 0.222889
vt 0.261569 0.205963
vt 0.263112 0.187373
vt 0.258125 0.169496
vt 0.247268 0.154708
vt 0.231965 0.145209
vt 0.166314 0.111366
vt 0.139785 0.132424
vt 0.122781 0.161573
vt 0.117251 0.194659
vt 0.123745 0.227438
vt 0.141344 0.255770
vt 0.167761 0.276095
vt 0.199621 0.285859
vt 0.232882 0.283840
vt 0.263329 0.270299
vt 0.287112 0.246947
vt 0.301219 0.216715
vt 0.303852 0.183379
vt 0.294632 0.151056
vt 0.274586 0.123718
vt 0.245938 0.104978
vt 0.148767 0.078600
vt 0.112617 0.109151
vt 0.089266 0.149604
vt 0.081593 0.195298
vt 0.090498 0.240600
vt 0.114768 0.279797
vt 0.151254 0.307942
vt 0.195290 0.321489
vt 0.241275 0.318744
vt 0.283375 0.300068
vt 0.316255 0.267835
vt 0.335751 0.226125
vt 0.339403 0.180190
vt 0.326767 0.135717
vt 0.299450 0.097923
vt 0.260743 0.070600
vt 0.132444 0.052660
vt 0.089427 0.090698
vt 0.061232 0.140111
vt 0.051978 0.196090
vt 0.062988 0.251676
vt 0.092844 0.299804
vt 0.137703 0.334364
vt 0.191832 0.350990
vt 0.248347 0.347595
vt 0.300076 0.324630
vt 0.340463 0.285026
vt 0.364401 0.233827
vt 0.368909 0.177537
vt 0.353561 0.123222
vt 0.320644 0.077291
vt 0.274869 0.043472
vt 0.117674 0.033022
vt 0.070189 0.075920
vt 0.038252 0.132524
vt 0.027795 0.196858
vt 0.040577 0.260803
vt 0.075026 0.316182
vt 0.126732 0.355939
vt 0.189097 0.375041
vt 0.254193 0.371084
vt 0.313760 0.344595
vt 0.360251 0.298961
vt 0.387794 0.240013
vt 0.392989 0.175282
vt 0.375446 0.112986
vt 0.338100 0.060687
vt 0.287710 0.022849
vt 0.202124 0.188475
vt 0.201411 0.189701
vt 0.200869 0.192069
vt 0.201138 0.195037
vt 0.202454 0.197998
vt 0.204757 0.200438
vt 0.207792 0.201973
vt 0.211190 0.202374
vt 0.214528 0.201577
vt 0.217395 0.199678
vt 0.219445 0.196923
vt 0.220457 0.193683
vt 0.220375 0.190420
vt 0.219380 0.187660
vt 0.217975 0.185942
vt 0.315224 0.486872
vt 0.295067 0.462987
vt 0.317864 0.452234
vt 0.330838 0.466582
vt 0.289091 0.431479
vt 0.314243 0.433683
vt 0.300695 0.401183
vt 0.320987 0.416257
vt 0.326838 0.381692
vt 0.336011 0.405263
vt 0.359443 0.379296
vt 0.354617 0.404142
vt 0.388269 0.394752
vt 0.370954 0.413285
vt 0.404491 0.422973
vt 0.379921 0.429891
vt 0.404224 0.454877
vt 0.378893 0.449009
vt 0.347264 0.436530
vn 0.174785 -0.981527 -0.077820
vn 0.128022 -0.981526 -0.142183
vn 0.226426 -0.941006 -0.251472
vn 0.309133 -0.941007 -0.137635
vn 0.059123 -0.981526 -0.181962
vn 0.104568 -0.941006 -0.321827
vn -0.019999 -0.981527 -0.190278
vn -0.035371 -0.941006 -0.336535
vn -0.095663 -0.981527 -0.165693
vn -0.169194 -0.941006 -0.293053
vn -0.154786 -0.981527 -0.112459
vn -0.273762 -0.941006 -0.198900
vn -0.187145 -0.981527 -0.039779
vn -0.330994 -0.941007 -0.070355
vn -0.187145 -0.981527 0.039779
vn -0.330994 -0.941007 0.070355
vn -0.154786 -0.981527 0.112459
vn -0.273762 -0.941006 0.198900
vn -0.095663 -0.981527 0.165693
vn -0.169194 -0.941006 0.293053
vn -0.019999 -0.981527 0.190278
vn -0.035371 -0.941007 0.336535
vn 0.059123 -0.981527 0.181962
vn 0.104568 -0.941007 0.321827
vn 0.128022 -0.981527 0.142183
vn 0.226426 -0.941007 0.251472
vn 0.174785 -0.981527 0.077819
vn 0.309133 -0.941007 0.137635
vn 0.191326 -0.981527 -0.000000
vn 0.338389 -0.941007 -0.000000
vn 0.353638 -0.848932 -0.392754
vn 0.482811 -0.848932 -0.214962
vn 0.163317 -0.848932 -0.502636
vn -0.055243 -0.848932 -0.525608
vn -0.264251 -0.848931 -0.457697
vn -0.427568 -0.848931 -0.310646
vn -0.516954 -0.848932 -0.109882
vn -0.516954 -0.848932 0.109882
vn -0.427568 -0.848932 0.310646
vn -0.264252 -0.848932 0.457697
vn -0.055244 -0.848932 0.525608
vn 0.163316 -0.848932 0.502636
vn 0.353637 -0.848932 0.392754
vn 0.482811 -0.848932 0.214962
vn 0.528503 -0.848932 0.000000
vn 0.508607 -0.649806 -0.564865
vn 0.694386 -0.649806 -0.309161
vn 0.234884 -0.649806 -0.722898
vn -0.079452 -0.649806 -0.755936
vn -0.380050 -0.649806 -0.658266
vn -0.614934 -0.649806 -0.446776
vn -0.743490 -0.649806 -0.158034
vn -0.743490 -0.649806 0.158034
vn -0.614934 -0.649806 0.446776
vn -0.380050 -0.649806 0.658266
vn -0.079452 -0.649806 0.755936
vn 0.234884 -0.649806 0.722898
vn 0.508606 -0.649806 0.564865
vn 0.694386 -0.649806 0.309161
vn 0.760100 -0.649806 -0.000000
vn 0.578044 -0.503709 -0.641983
vn 0.789188 -0.503709 -0.351369
vn 0.266952 -0.503709 -0.821593
vn -0.090299 -0.503709 -0.859141
vn -0.431937 -0.503709 -0.748136
vn -0.698888 -0.503709 -0.507772
vn -0.844996 -0.503709 -0.179609
vn -0.844996 -0.503709 0.179609
vn -0.698888 -0.503709 0.507772
vn -0.431937 -0.503709 0.748136
vn -0.090299 -0.503709 0.859141
vn 0.266952 -0.503709 0.821593
vn 0.578044 -0.503709 0.641983
vn 0.789188 -0.503709 0.351369
vn 0.863873 -0.503709 -0.000000
vn -0.000000 -1.000000 0.000000
vn 0.570070 -0.591644 0.570069
vn 0.000000 -0.591643 0.806200
vn 0.000000 -0.643831 0.765168
vn 0.541055 -0.643831 0.541055
vn -0.570069 -0.591643 0.570069
vn -0.541055 -0.643831 0.541055
vn -0.806200 -0.591643 0.000000
vn -0.765168 -0.643831 0.000000
vn -0.570069 -0.591643 -0.570069
vn -0.541055 -0.643831 -0.541055
vn -0.000000 -0.591643 -0.806200
vn -0.000000 -0.643831 -0.765168
vn 0.570069 -0.591644 -0.570069
vn 0.541055 -0.643831 -0.541055
vn 0.806200 -0.591644 -0.000000
vn 0.765168 -0.643831 -0.000000
vn 0.000000 -1.000000 0.000000
s 1
g Merged_anim Bottom6
usemtl initialShadingGroup
f 353/532/643 354/533/644 369/549/645 368/548/646
f 354/533/644 355/534/647 370/550/648 369/549/645
f 355/534/647 356/535/649 371/551/650 370/550/648
f 356/535/649 357/536/651 372/552/652 371/551/650
f 357/536/651 358/537/653 373/553/654 372/552/652
f 358/537/653 359/538/655 374/554/656 373/553/654
f 359/538/655 360/539/657 375/555/658 374/554/656
f 360/539/657 361/540/659 376/556/660 375/555/658
f 361/540/659 362/541/661 377/557/662 376/556/660
f 362/541/661 363/542/663 378/558/664 377/557/662
f 363/542/663 364/543/665 379/559/666 378/558/664
f 364/543/665 365/544/667 380/560/668 379/559/666
f 365/544/667 366/545/669 381/561/670 380/560/668
f 366/545/669 367/546/671 382/562/672 381/561/670
f 367/546/671 353/547/643 368/563/646 382/562/672
f 368/548/646 369/549/645 384/565/673 383/564/674
f 369/549/645 370/550/648 385/566/675 384/565/673
f 370/550/648 371/551/650 386/567/676 385/566/675
f 371/551/650 372/552/652 387/568/677 386/567/676
f 372/552/652 373/553/654 388/569/678 387/568/677
f 373/553/654 374/554/656 389/570/679 388/569/678
f 374/554/656 375/555/658 390/571/680 389/570/679
f 375/555/658 376/556/660 391/572/681 390/571/680
f 376/556/660 377/557/662 392/573/682 391/572/681
f 377/557/662 378/558/664 393/574/683 392/573/682
f 378/558/664 379/559/666 394/575/684 393/574/683
f 379/559/666 380/560/668 395/576/685 394/575/684
f 380/560/668 381/561/670 396/577/686 395/576/685
f 381/561/670 382/562/672 397/578/687 396/577/686
f 382/562/672 368/563/646 383/579/674 397/578/687
f 383/564/674 384/565/673 399/581/688 398/580/689
f 384/565/673 385/566/675 400/582/690 399/581/688
f 385/566/675 386/567/676 401/583/691 400/582/690
f 386/567/676 387/568/677 402/584/692 401/583/691
f 387/568/677 388/569/678 403/585/693 402/584/692
f 388/569/678 389/570/679 404/586/694 403/585/693
f 389/570/679 390/571/680 405/587/695 404/586/694
f 390/571/680 391/572/681 406/588/696 405/587/695
f 391/572/681 392/573/682 407/589/697 406/588/696
f 392/573/682 393/574/683 408/590/698 407/589/697
f 393/574/683 394/575/684 409/591/699 408/590/698
f 394/575/684 395/576/685 410/592/700 409/591/699
f 395/576/685 396/577/686 411/593/701 410/592/700
f 396/577/686 397/578/687 412/594/702 411/593/701
f 397/578/687 383/579/674 398/595/689 412/594/702
f 398/580/689 399/581/688 414/597/703 413/596/704
f 399/581/688 400/582/690 415/598/705 414/597/703
f 400/582/690 401/583/691 416/599/706 415/598/705
f 401/583/691 402/584/692 417/600/707 416/599/706
f 402/584/692 403/585/693 418/601/708 417/600/707
f 403/585/693 404/586/694 419/602/709 418/601/708
f 404/586/694 405/587/695 420/603/710 419/602/709
f 405/587/695 406/588/696 421/604/711 420/603/710
f 406/588/696 407/589/697 422/605/712 421/604/711
f 407/589/697 408/590/698 423/606/713 422/605/712
f 408/590/698 409/591/699 424/607/714 423/606/713
f 409/591/699 410/592/700 425/608/715 424/607/714
f 410/592/700 411/593/701 426/609/716 425/608/715
f 411/593/701 412/594/702 427/610/717 426/609/716
f 412/594/702 398/595/689 413/611/704 427/610/717
f 354/533/644 353/532/643 428/612/718
f 355/534/647 354/533/644 428/613/718
f 356/535/649 355/534/647 428/614/718
f 357/536/651 356/535/649 428/615/718
f 358/537/653 357/536/651 428/616/718
f 359/538/655 358/537/653 428/617/718
f 360/539/657 359/538/655 428/618/718
f 361/540/659 360/539/657 428/619/718
f 362/541/661 361/540/659 428/620/718
f 363/542/663 362/541/661 428/621/718
f 364/543/665 363/542/663 428/622/718
f 365/544/667 364/543/665 428/623/718
f 366/545/669 365/544/667 428/624/718
f 367/546/671 366/545/669 428/625/718
f 353/547/643 367/546/671 428/626/718
s 2
f 429/627/719 430/628/720 438/629/721 437/630/722
f 430/628/720 431/631/723 439/632/724 438/629/721
f 431/631/723 432/633/725 440/634/726 439/632/724
f 432/633/725 433/635/727 441/636/728 440/634/726
f 433/635/727 434/637/729 442/638/730 441/636/728
f 434/637/729 435/639/731 443/640/732 442/638/730
f 435/639/731 436/641/733 444/642/734 443/640/732
f 436/641/733 429/643/719 437/644/722 444/642/734
f 437/630/722 438/629/721 445/645/735
f 438/629/721 439/632/724 445/645/735
f 439/632/724 440/634/726 445/645/735
f 440/634/726 441/636/728 445/645/735
f 441/636/728 442/638/730 445/645/735
f 442/638/730 443/640/732 445/645/735
f 443/640/732 444/642/734 445/645/735
f 444/642/734 437/644/722 445/645/735
g default
v -0.026034 -0.578495 0.027691
v 0.029679 -0.595328 0.027691
v -0.030908 -0.588586 0.027691
v 0.024805 -0.605419 0.027691
v -0.064547 -0.566858 0.351024
v -0.069421 -0.576949 0.351024
v 0.063318 -0.617056 0.351024
v 0.068192 -0.606965 0.351024
v -0.048351 -0.583315 0.412526
v -0.023294 -0.590886 0.433061
v -0.043477 -0.573224 0.412526
v -0.018421 -0.580795 0.433061
v 0.042248 -0.610690 0.412526
v 0.017192 -0.603119 0.433061
v 0.047122 -0.600599 0.412526
v 0.022065 -0.593028 0.433061
v -0.064480 -0.579095 0.223588
v -0.059133 -0.569119 0.223588
v 0.063251 -0.604818 0.223588
v 0.057904 -0.614795 0.223588
v 0.031513 -0.585605 -0.018899
v -0.026599 -0.588536 -0.017612
v 0.033814 -0.596572 -0.018984
v -0.024299 -0.599503 -0.017698
v 0.064478 -0.582568 -0.343039
v 0.066778 -0.593535 -0.343125
v -0.071677 -0.600520 -0.340060
v -0.073978 -0.589553 -0.339974
v 0.043430 -0.594452 -0.404124
v 0.016837 -0.595706 -0.424075
v 0.041130 -0.583485 -0.404039
v 0.014536 -0.584739 -0.423990
v -0.051071 -0.599219 -0.402032
v -0.025393 -0.597836 -0.423140
v -0.053372 -0.588252 -0.401947
v -0.027693 -0.586869 -0.423055
v 0.064308 -0.594828 -0.215605
v 0.061521 -0.583858 -0.215509
v -0.065827 -0.589056 -0.212686
v -0.063039 -0.600026 -0.212782
vt 0.935267 0.150319
vt 0.891209 0.134374
vt 0.946876 0.750535
vt 0.907126 0.766393
vt 0.978192 0.969711
vt 0.978192 0.981746
vt 0.020918 0.969711
vt 0.020918 0.981746
vt 0.371290 0.981746
vt 0.773759 0.367392
vt 0.884608 0.520078
vt 0.790944 0.558180
vt 0.788602 0.510196
vt 0.800714 0.489136
vt 0.829414 0.477460
vt 0.852788 0.484085
vt 0.845225 0.445291
vt 0.773902 0.419479
vt 0.877963 0.404762
vt 0.371290 0.969711
vt 0.441451 0.969711
vt 0.477028 0.981746
vt 0.522081 0.969711
vt 0.557658 0.981746
vt 0.627820 0.969711
vt 0.627820 0.981746
vt 0.477028 0.969711
vt 0.441451 0.981746
vt 0.557658 0.969711
vt 0.522081 0.981746
vt 0.234279 0.969711
vt 0.916112 0.607938
vt 0.234279 0.981746
vt 0.907977 0.307058
vt 0.811983 0.272662
vt 0.764831 0.981746
vt 0.829995 0.642969
vt 0.764831 0.969711
vt 0.477029 0.981747
vt 0.477029 0.969710
vt 0.522081 0.969710
vt 0.522081 0.981747
vt 0.884737 0.520422
vt 0.790846 0.557913
vt 0.789834 0.509820
vt 0.801041 0.489261
vt 0.830059 0.477674
vt 0.853000 0.484598
vt 0.557657 0.981747
vt 0.557657 0.969710
vt 0.627818 0.969710
vt 0.627818 0.981747
vt 0.371292 0.981747
vt 0.371292 0.969710
vt 0.441453 0.969710
vt 0.441453 0.981747
vt 0.020916 0.969710
vt 0.234280 0.969710
vt 0.234280 0.981747
vt 0.020916 0.981747
vt 0.945221 0.750721
vt 0.904952 0.766801
vt 0.828896 0.642925
vt 0.915712 0.608259
vt 0.764830 0.981747
vt 0.764830 0.969710
vt 0.978194 0.969710
vt 0.978194 0.981747
vt 0.908310 0.307206
vt 0.812651 0.272579
vt 0.892015 0.134566
vt 0.936024 0.150496
vt 0.844713 0.445580
vt 0.773289 0.419727
vt 0.773916 0.367146
vt 0.877887 0.404782
vt 0.819446 0.453791
vt 0.787446 0.442208
vt 0.819569 0.453395
vt 0.787504 0.442132
vn -0.000001 0.000000 1.000000
vn -0.000001 0.000000 1.000000
vn -0.000001 0.000000 1.000000
vn -0.000001 0.000000 1.000000
vn -0.286100 -0.958200 0.000070
vn -0.286103 -0.958199 0.000070
vn -0.289234 -0.957259 0.000001
vn -0.289234 -0.957259 0.000001
vn -0.289234 -0.957259 0.000001
vn -0.289234 -0.957259 0.000001
vn 0.848988 -0.410039 0.333297
vn 0.848988 -0.410039 0.333297
vn 0.890815 -0.445891 0.087355
vn 0.891102 -0.446367 0.081817
vn -0.890814 0.445891 0.087354
vn -0.891102 0.446367 0.081816
vn -0.848989 0.410040 0.333295
vn -0.848989 0.410040 0.333295
vn -0.877958 0.447182 -0.170936
vn -0.884551 0.450540 -0.120761
vn -0.884377 0.450452 -0.122352
vn -0.877957 0.447182 -0.170936
vn -0.282915 -0.959145 -0.000062
vn -0.282915 -0.959145 -0.000062
vn -0.283908 -0.958852 0.000021
vn -0.283907 -0.958852 0.000021
vn 0.884552 -0.450538 -0.120761
vn 0.884378 -0.450450 -0.122352
vn 0.877959 -0.447180 -0.170935
vn 0.877959 -0.447180 -0.170935
vn 0.283907 0.958852 0.000022
vn 0.283907 0.958852 0.000022
vn 0.282915 0.959145 -0.000062
vn 0.282915 0.959145 -0.000062
vn 0.289234 0.957258 0.000000
vn 0.289234 0.957259 0.000000
vn 0.289234 0.957259 0.000000
vn 0.289234 0.957258 0.000000
vn 0.286100 0.958200 0.000071
vn 0.286102 0.958199 0.000071
vn -0.560025 0.270479 0.783079
vn -0.560025 0.270479 0.783079
vn -0.560025 0.270479 0.783079
vn -0.560025 0.270479 0.783079
vn 0.560025 -0.270477 0.783080
vn 0.560024 -0.270477 0.783080
vn 0.560024 -0.270477 0.783080
vn 0.560024 -0.270477 0.783080
vn -0.022289 0.003125 -0.999747
vn -0.022289 0.003125 -0.999747
vn -0.022289 0.003125 -0.999747
vn -0.022289 0.003125 -0.999747
vn 0.047019 -0.998885 -0.004240
vn 0.047021 -0.998885 -0.004240
vn 0.050288 -0.998726 -0.004242
vn 0.050288 -0.998726 -0.004242
vn 0.050288 -0.998726 -0.004242
vn 0.050288 -0.998726 -0.004242
vn -0.929928 -0.192639 -0.313248
vn -0.929928 -0.192639 -0.313248
vn -0.973660 -0.218139 -0.066349
vn -0.973930 -0.218549 -0.060805
vn 0.969765 0.218685 -0.108314
vn 0.970282 0.219061 -0.102785
vn 0.915070 0.194722 -0.353172
vn 0.915070 0.194722 -0.353172
vn 0.963358 0.222224 0.150195
vn 0.969446 0.224053 0.099877
vn 0.969291 0.224004 0.101472
vn 0.963358 0.222224 0.150195
vn 0.043703 -0.999036 -0.004034
vn 0.043703 -0.999036 -0.004034
vn 0.044735 -0.998990 -0.004141
vn 0.044735 -0.998990 -0.004141
vn -0.964062 -0.224807 0.141584
vn -0.963837 -0.224768 0.143170
vn -0.955738 -0.223291 0.191590
vn -0.955738 -0.223291 0.191590
vn -0.044736 0.998990 0.004098
vn -0.044735 0.998991 0.004098
vn -0.043700 0.999036 0.004159
vn -0.043700 0.999036 0.004159
vn -0.050288 0.998726 0.004242
vn -0.050288 0.998726 0.004242
vn -0.050288 0.998726 0.004242
vn -0.050288 0.998726 0.004242
vn -0.047022 0.998885 0.004099
vn -0.047024 0.998885 0.004099
vn 0.591060 0.130205 -0.796049
vn 0.591060 0.130205 -0.796049
vn 0.591060 0.130205 -0.796049
vn 0.591060 0.130205 -0.796049
vn -0.625972 -0.125311 -0.769712
vn -0.625972 -0.125311 -0.769712
vn -0.625972 -0.125311 -0.769712
vn -0.625972 -0.125311 -0.769712
s off
g Merged_anim Propellor_Blades1
usemtl initialShadingGroup
f 457/667/736 455/672/737 459/668/738 461/675/739
s 1
f 451/656/740 452/657/741 458/658/742 459/659/743 455/660/744 454/661/745
s 2
f 460/669/746 458/674/747 452/670/748 453/671/749
s 3
f 450/654/750 451/665/751 454/666/752 456/673/753
f 448/652/754 462/676/755 463/678/756 446/653/757
s 1
f 448/648/758 449/649/759 465/682/760 462/677/761
s 2
f 464/681/762 465/683/763 449/650/764 447/651/765
s 4
f 463/679/766 464/680/767 447/647/768 446/646/769
f 456/662/770 457/724/771 461/725/772 460/663/773 453/655/774 450/664/775
s off
f 454/666/776 455/672/777 457/667/778 456/673/779
f 459/668/780 458/674/781 460/669/782 461/675/783
s 3
f 463/678/756 462/676/755 451/665/751 450/654/750
s 4
f 450/664/775 453/655/774 464/680/767 463/679/766
s 2
f 453/671/749 452/670/748 465/683/763 464/681/762
s 1
f 462/677/761 465/682/760 452/657/741 451/656/740
s off
f 477/684/784 475/685/785 479/686/786 481/687/787
s 5
f 471/688/788 472/689/789 478/690/790 479/691/791 475/692/792 474/693/793
s 6
f 480/694/794 478/695/795 472/696/796 473/697/797
s 7
f 470/698/798 471/699/799 474/700/800 476/701/801
f 468/702/802 482/703/803 483/704/804 466/705/805
s 5
f 468/706/806 469/707/807 485/708/808 482/709/809
s 6
f 484/710/810 485/711/811 469/712/812 467/713/813
s 8
f 483/714/814 484/715/815 467/716/816 466/717/817
f 476/718/818 477/722/819 481/723/820 480/719/821 473/720/822 470/721/823
s off
f 474/700/824 475/685/825 477/684/826 476/701/827
f 479/686/828 478/695/829 480/694/830 481/687/831
s 7
f 483/704/804 482/703/803 471/699/799 470/698/798
s 8
f 470/721/823 473/720/822 484/715/815 483/714/814
s 6
f 473/697/797 472/696/796 485/711/811 484/710/810
s 5
f 482/709/809 485/708/808 472/689/789 471/688/788
