# This file uses centimeters as units for non-parametric coordinates.

mtllib Door_A.mtl
g default
v -44.689484 74.223618 8.593170
v 50.084015 81.310234 8.593170
v -47.214874 98.567444 8.593170
v 47.558563 111.144432 8.593170
v -47.214874 98.567444 6.536102
v 47.558563 111.144432 6.536102
v -44.689484 74.223618 6.536102
v 50.084015 81.310234 6.536102
v 43.266815 74.552910 6.532684
v 50.669159 77.437271 6.532684
v 42.951569 113.089973 6.532684
v 48.049774 114.922768 6.532684
v 42.951569 113.089973 3.148224
v 48.049774 114.922768 3.148224
v 43.266815 74.552910 3.148224
v 50.669159 77.437271 3.148224
v -47.188446 67.215355 6.532684
v -42.764679 70.252411 6.532684
v -48.891266 103.697563 6.532684
v -43.038483 106.579514 6.532684
v -48.891266 103.697563 3.148224
v -43.038483 106.579514 3.148224
v -47.188446 67.215355 3.148224
v -42.764679 70.252411 3.148224
v 55.606476 194.100555 -10.961761
v -53.328827 200.564926 -10.961761
v 63.738983 -1.079793 -10.961761
v -63.738983 -1.079793 -10.961761
v -56.459625 -1.079793 5.653168
v 58.262787 -1.079793 5.653168
v 51.749603 187.440460 5.653168
v -49.421906 195.833572 5.653168
v 51.749603 187.440460 10.961761
v 55.606476 194.100555 10.961761
v -49.421906 195.833572 10.961761
v -53.328827 200.564926 10.961761
v 63.738983 -1.079793 10.961761
v 58.262787 -1.079793 10.961761
v -56.459625 -1.079793 10.961761
v -63.738983 -1.079793 10.961761
v -37.798737 184.506516 5.653168
v 41.256622 175.073822 5.653168
v -44.181610 6.065228 5.653168
v 41.356354 11.574711 3.143402
v -44.181610 6.065228 1.543732
v 41.356354 11.574711 -0.966095
v -37.798737 184.506516 1.543732
v 41.256622 175.073822 1.543732
vt 0.051671 0.052893
vt 0.037251 0.573559
vt 0.201319 0.576493
vt 0.185806 0.052753
vt 0.212588 0.576159
vt 0.197075 0.052419
vt 0.376195 0.563520
vt 0.330983 0.044620
vt 0.387427 0.562541
vt 0.342214 0.043641
vt 0.037050 0.584832
vt 0.201118 0.587765
vt 0.051659 0.041619
vt 0.185794 0.041479
vt 0.354742 0.600498
vt 0.354228 0.631527
vt 0.213373 0.672828
vt 0.213163 0.651667
vt 0.200153 0.672959
vt 0.199944 0.651797
vt 0.367960 0.600717
vt 0.367446 0.631746
vt 0.357947 0.644214
vt 0.217092 0.685515
vt 0.350248 0.588065
vt 0.208670 0.639233
vt 0.170166 0.613780
vt 0.164864 0.634059
vt 0.031004 0.681165
vt 0.033843 0.655839
vt 0.017865 0.679691
vt 0.020705 0.654366
vt 0.182957 0.617124
vt 0.177655 0.637403
vt 0.169253 0.646530
vt 0.035392 0.693635
vt 0.166268 0.601147
vt 0.029945 0.643206
vt 0.375510 0.809213
vt 0.048410 0.809174
vt 0.012414 0.871700
vt 0.375517 0.743498
vt 0.017466 0.952815
vt 0.017468 0.910521
vt 0.394327 0.910539
vt 0.396962 0.829887
vt 0.012408 0.829945
vt 0.017977 0.973611
vt 0.017905 0.963370
vt 0.396969 0.871641
vt 0.381797 0.960801
vt 0.060949 0.729998
vt 0.421446 0.958517
vt 0.894802 0.926351
vt 0.396256 0.885487
vt 0.396097 0.895596
vt 0.858445 0.104110
vt 0.459001 0.071723
vt 0.476326 0.920266
vt 0.846593 0.867838
vt 0.977371 0.333133
vt 0.827700 0.820994
vt 0.496007 0.866936
vt 0.482968 0.107447
vt 0.840594 0.136864
vt 0.967474 0.943104
vt 0.975546 0.045886
vt 0.968739 0.802534
vt 0.968327 0.045821
vt 0.960255 0.943039
vt 0.971607 0.483663
vt 0.964389 0.483598
vt 0.970152 0.333068
vt 0.939066 0.045440
vt 0.364790 0.706977
vt 0.961520 0.802469
vt 0.402128 0.037303
vt 0.020872 0.889704
vt 0.365162 0.722884
vt 0.394325 0.952833
vt 0.021031 0.879594
vt 0.048417 0.743460
vt 0.060577 0.714090
vt 0.381870 0.971042
vn 0.000000 0.000000 1.000000
vn 0.000000 0.000000 1.000000
vn 0.000000 0.000000 1.000000
vn 0.000000 0.000000 1.000000
vn -0.131552 0.991309 0.000000
vn -0.131552 0.991309 0.000000
vn -0.131552 0.991309 0.000000
vn -0.131552 0.991309 0.000000
vn 0.000000 0.000000 -1.000000
vn 0.000000 0.000000 -1.000000
vn 0.000000 0.000000 -1.000000
vn 0.000000 0.000000 -1.000000
vn 0.074567 -0.997216 0.000000
vn 0.074567 -0.997216 0.000000
vn 0.074567 -0.997216 0.000000
vn 0.074567 -0.997216 0.000000
vn 0.996436 0.084347 0.000000
vn 0.996436 0.084347 0.000000
vn 0.996436 0.084347 0.000000
vn 0.996436 0.084347 0.000000
vn -0.994662 -0.103184 0.000000
vn -0.994662 -0.103184 0.000000
vn -0.994662 -0.103184 0.000000
vn -0.994662 -0.103184 0.000000
vn 0.000004 0.000000 1.000000
vn 0.000004 0.000000 1.000000
vn 0.000004 0.000000 1.000000
vn 0.000004 0.000000 1.000000
vn -0.338300 0.941038 0.000000
vn -0.338300 0.941038 0.000000
vn -0.338300 0.941038 0.000000
vn -0.338300 0.941038 0.000000
vn 0.363066 -0.931763 0.000000
vn 0.363066 -0.931763 0.000000
vn 0.363066 -0.931763 0.000000
vn 0.363066 -0.931763 0.000000
vn 0.997567 0.069708 0.000000
vn 0.997567 0.069708 0.000000
vn 0.997567 0.069708 0.000000
vn 0.997567 0.069708 0.000000
vn -0.999967 -0.008180 0.000000
vn -0.999967 -0.008180 0.000000
vn -0.999967 -0.008180 0.000000
vn -0.999967 -0.008180 0.000000
vn 0.000000 0.000000 1.000000
vn 0.000000 0.000000 1.000000
vn 0.000000 0.000000 1.000000
vn 0.000000 0.000000 1.000000
vn -0.441754 0.897136 0.000000
vn -0.441754 0.897136 0.000000
vn -0.441754 0.897136 0.000000
vn -0.441754 0.897136 0.000000
vn 0.565985 -0.824415 0.000000
vn 0.565985 -0.824415 0.000000
vn 0.565985 -0.824415 0.000000
vn 0.565985 -0.824415 0.000000
vn 0.999972 0.007537 0.000000
vn 0.999972 0.007537 0.000000
vn 0.999972 0.007537 0.000000
vn 0.999972 0.007537 0.000000
vn -0.998912 -0.046625 0.000000
vn -0.998912 -0.046625 0.000000
vn -0.998912 -0.046625 0.000000
vn -0.998912 -0.046625 0.000000
vn 0.059237 0.998244 0.000000
vn 0.059237 0.998244 0.000000
vn 0.059237 0.998244 0.000000
vn 0.059237 0.998244 0.000000
vn 0.999133 0.041630 0.000000
vn 0.999133 0.041630 0.000000
vn 0.999133 0.041630 0.000000
vn 0.999133 0.041630 0.000000
vn -0.998670 0.051558 0.000000
vn -0.998670 0.051558 0.000000
vn -0.998670 0.051558 0.000000
vn -0.998670 0.051558 0.000000
vn -0.082675 -0.996577 0.000000
vn -0.082675 -0.996577 0.000000
vn -0.082675 -0.996577 0.000000
vn -0.082675 -0.996577 0.000000
vn 0.000000 0.000000 1.000000
vn -0.000000 0.000000 1.000000
vn -0.000000 0.000000 1.000000
vn 0.000000 0.000000 1.000000
vn 0.999362 -0.035717 0.000000
vn 0.999362 -0.035717 0.000000
vn 0.999362 -0.035717 0.000000
vn 0.999362 -0.035717 0.000000
vn 0.001686 0.024183 0.999706
vn -0.068284 0.022863 0.997404
vn -0.060109 0.034069 0.997610
vn 0.003204 0.045935 0.998939
vn -0.000000 0.000000 1.000000
vn -0.000000 0.000000 1.000000
vn -0.058406 -0.005639 0.998277
vn -0.065830 -0.006355 0.997811
vn -0.999404 -0.034528 0.000000
vn -0.999404 -0.034528 0.000000
vn -0.999404 -0.034528 0.000000
vn -0.999404 -0.034528 0.000000
vn 0.015065 -0.007616 0.999858
vn 0.015065 -0.007616 0.999858
vn 0.015065 -0.007616 0.999858
vn 0.015065 -0.007616 0.999858
vn -0.064277 0.997932 0.000000
vn -0.064277 0.997932 0.000000
vn -0.064277 0.997932 0.000000
vn -0.064277 0.997932 0.000000
vn 0.999361 -0.035747 0.000000
vn 0.999361 -0.035747 0.000000
vn 0.999361 -0.035747 0.000000
vn 0.999361 -0.035747 0.000000
vn -0.118477 -0.992957 0.000000
vn -0.118477 -0.992957 0.000000
vn -0.118477 -0.992957 0.000000
vn -0.118477 -0.992957 0.000000
vn -1.000000 -0.000610 0.000000
vn -1.000000 -0.000610 0.000000
vn -1.000000 -0.000610 0.000000
vn -1.000000 -0.000610 0.000000
vn -0.000000 0.000000 1.000000
vn -0.000000 0.000000 1.000000
vn 0.000000 0.000000 1.000000
vn 0.000000 0.000000 1.000000
s off
g W_Door_A
usemtl initialShadingGroup
f 1/1/1 2/2/2 4/3/3 3/4/4
f 3/4/5 4/3/6 6/5/7 5/6/8
f 5/6/9 6/5/10 8/7/11 7/8/12
f 7/8/13 8/7/14 2/9/15 1/10/16
f 2/2/17 8/11/18 6/12/19 4/3/20
f 7/13/21 1/1/22 3/4/23 5/14/24
f 9/15/25 10/16/26 12/17/27 11/18/28
f 11/18/29 12/17/30 14/19/31 13/20/32
f 15/21/33 16/22/34 10/16/35 9/15/36
f 10/16/37 16/23/38 14/24/39 12/17/40
f 15/25/41 9/15/42 11/18/43 13/26/44
f 17/27/45 18/28/46 20/29/47 19/30/48
f 19/30/49 20/29/50 22/31/51 21/32/52
f 23/33/53 24/34/54 18/28/55 17/27/56
f 18/28/57 24/35/58 22/36/59 20/29/60
f 23/37/61 17/27/62 19/30/63 21/38/64
f 25/39/65 26/40/66 36/82/67 34/42/68
f 34/80/69 37/43/70 27/44/71 25/45/72
f 26/47/73 28/46/74 40/50/75 36/41/76
f 33/79/77 35/52/78 32/83/79 31/75/80
s 1
f 39/55/81 35/81/82 36/41/83 40/50/84
s off
f 29/56/85 32/78/86 35/81/87 39/55/88
s 2
f 29/77/89 30/74/90 44/57/91 43/58/92
f 32/53/93 29/77/89 43/58/92 41/59/94
f 44/57/91 30/74/90 31/54/95 42/60/96
f 42/60/96 31/54/95 32/53/93 41/59/94
s off
f 38/49/97 33/51/98 31/84/99 30/48/100
f 46/65/101 48/62/102 47/63/103 45/64/104
f 44/73/105 46/61/106 45/71/107 43/72/108
f 43/72/109 45/71/110 47/68/111 41/76/112
f 41/76/113 47/68/114 48/66/115 42/70/116
f 42/69/117 48/67/118 46/61/119 44/73/120
s 1
f 36/82/83 35/52/82 33/79/121 34/42/122
f 34/80/122 33/51/121 38/49/123 37/43/124
